<svg width="81" height="23" viewBox="0 0 81 23" fill="none" xmlns="http://www.w3.org/2000/svg">
<path d="M17.7641 2.79327L16.0949 0.331787L1.56641 21.7545H4.90471L17.7641 2.79327Z" fill="url(#paint0_linear_6508_97164)"/>
<path d="M21.422 7.99141L19.7152 5.55688L8.35938 21.7545H11.7729L21.422 7.99141Z" fill="url(#paint1_linear_6508_97164)"/>
<path d="M27.4135 21.7543H30.8251L22.0804 8.69165L20.375 11.2399L27.4135 21.7543Z" fill="#F5F5F7"/>
<path d="M19.2197 21.7542H22.4693L17.8236 14.9617L16.1992 17.3366L19.2197 21.7542Z" fill="#F5F5F7"/>
<path d="M33.5915 21.3308C33.3047 21.3308 33.0618 21.2331 32.8641 21.0365C32.6653 20.841 32.5664 20.5942 32.5664 20.297V7.3656C32.5664 7.06843 32.6653 6.82159 32.8641 6.62606C33.0628 6.43052 33.3047 6.33179 33.5915 6.33179C33.8784 6.33179 34.1379 6.42955 34.3298 6.62606C34.5207 6.82256 34.6167 7.06843 34.6167 7.3656V20.298C34.6167 20.5951 34.5207 20.842 34.3298 21.0375C34.1379 21.2331 33.8921 21.3318 33.5915 21.3318V21.3308ZM40.2544 10.6287C40.5276 10.6287 40.7596 10.7371 40.9515 10.953C41.1425 11.1688 41.2384 11.3857 41.2384 11.6015C41.2384 11.8716 41.1082 12.1223 40.8487 12.3517L34.4326 18.0271L34.3503 15.6961L39.5171 10.953C39.7355 10.7371 39.9812 10.6287 40.2554 10.6287H40.2544ZM40.5217 21.3105C40.2348 21.3105 39.9812 21.1963 39.7629 20.9659L35.6829 16.6893L37.2407 15.2702L41.2384 19.5468C41.4567 19.7772 41.5664 20.0337 41.5664 20.3173C41.5664 20.601 41.447 20.8546 41.2081 21.0365C40.9691 21.2185 40.74 21.3105 40.5207 21.3105H40.5217Z" fill="#F5F5F7"/>
<path d="M54.4837 9.41963C54.8012 9.41963 55.0607 9.52525 55.2634 9.73754C55.4651 9.94983 55.5664 10.2154 55.5664 10.5365V19.9964C55.5664 20.3174 55.4651 20.5841 55.2634 20.7953C55.0607 21.0066 54.8012 21.1132 54.4837 21.1132C54.1662 21.1132 53.9066 21.0076 53.7039 20.7953C53.5013 20.5841 53.4009 20.3174 53.4009 19.9964V18.4194L53.856 18.5072C53.856 18.7561 53.7515 19.0437 53.5416 19.372C53.3327 19.7004 53.0473 20.011 52.6864 20.3028C52.3255 20.5945 51.8994 20.8392 51.4092 21.0358C50.918 21.2324 50.3916 21.3318 49.828 21.3318C48.8322 21.3318 47.9366 21.0724 47.1434 20.5548C46.3492 20.0371 45.7215 19.325 45.2593 18.4194C44.797 17.5148 44.5664 16.4847 44.5664 15.3323C44.5664 14.1799 44.797 13.1101 45.2593 12.2118C45.7215 11.3135 46.3451 10.6097 47.1321 10.0983C47.919 9.588 48.7887 9.33179 49.7412 9.33179C50.3616 9.33179 50.9356 9.43427 51.463 9.63819C51.9894 9.84316 52.4485 10.1056 52.8384 10.4267C53.2282 10.7477 53.5312 11.0876 53.7474 11.4453C53.9635 11.8029 54.0721 12.1428 54.0721 12.4638L53.4009 12.5297V10.5365C53.4009 10.2301 53.5023 9.9676 53.7039 9.748C53.9056 9.52943 54.1662 9.41963 54.4837 9.41963ZM50.0659 19.3166C50.7443 19.3166 51.343 19.1409 51.8632 18.7906C52.3834 18.4403 52.7867 17.9624 53.0762 17.3558C53.3648 16.7503 53.5095 16.0748 53.5095 15.3302C53.5095 14.5856 53.3648 13.9111 53.0762 13.3046C52.7877 12.6991 52.3834 12.2243 51.8632 11.8813C51.343 11.5383 50.7443 11.3668 50.0659 11.3668C49.3875 11.3668 48.8136 11.5383 48.3006 11.8813C47.7877 12.2243 47.3834 12.6949 47.0876 13.2941C46.7918 13.8934 46.644 14.572 46.644 15.3302C46.644 16.0884 46.7918 16.7503 47.0876 17.3558C47.3834 17.9613 47.7877 18.4403 48.3006 18.7906C48.8125 19.1409 49.4009 19.3166 50.0659 19.3166Z" fill="#F5F5F7"/>
<path d="M65.5499 19.2208C65.8381 19.2208 66.0799 19.3205 66.2741 19.5188C66.4683 19.7181 66.5664 19.9701 66.5664 20.2757C66.5664 20.5814 66.4693 20.8147 66.2741 21.0218C66.0788 21.2288 65.8381 21.3318 65.5499 21.3318H58.5628C58.2457 21.3318 57.9967 21.2135 57.817 20.9758C57.6362 20.7391 57.5536 20.5058 57.568 20.2757C57.5825 20.0917 57.6073 19.9285 57.6434 19.7828C57.6796 19.6371 57.7622 19.4727 57.8924 19.2898L63.6895 11.1689L63.6678 11.4669H58.8655C58.5773 11.4669 58.3355 11.3639 58.1413 11.1569C57.9471 10.9509 57.849 10.6946 57.849 10.3878C57.849 10.0975 57.9461 9.84886 58.1413 9.64181C58.3355 9.43586 58.5773 9.33179 58.8655 9.33179H65.5055C65.7937 9.33179 66.0354 9.44243 66.2307 9.66482C66.4249 9.88611 66.5086 10.1655 66.4796 10.5018C66.4796 10.6245 66.461 10.7504 66.4259 10.8808C66.3898 11.0112 66.3071 11.1602 66.177 11.3278L60.4883 19.3566L60.4015 19.2186H65.5499V19.2208Z" fill="#F5722E"/>
<path d="M77.3852 9.41963C77.7316 9.41963 78.0147 9.52525 78.2359 9.73754C78.4558 9.94983 78.5664 10.2154 78.5664 10.5365V19.9964C78.5664 20.3174 78.4558 20.5841 78.2359 20.7953C78.0147 21.0066 77.7316 21.1132 77.3852 21.1132C77.0389 21.1132 76.7557 21.0076 76.5346 20.7953C76.3135 20.5841 76.2041 20.3174 76.2041 19.9964V18.4194L76.7005 18.5072C76.7005 18.7561 76.5865 19.0437 76.3575 19.372C76.1296 19.7004 75.8183 20.011 75.4245 20.3028C75.0308 20.5945 74.566 20.8392 74.0313 21.0358C73.4954 21.2324 72.9212 21.3318 72.3064 21.3318C71.22 21.3318 70.243 21.0724 69.3777 20.5548C68.5113 20.0371 67.8265 19.325 67.3223 18.4194C66.818 17.5148 66.5664 16.4847 66.5664 15.3323C66.5664 14.1799 66.818 13.1101 67.3223 12.2118C67.8265 11.3135 68.5068 10.6097 69.3653 10.0983C70.2238 9.588 71.1726 9.33179 72.2116 9.33179C72.8885 9.33179 73.5146 9.43427 74.09 9.63819C74.6642 9.84316 75.1651 10.1056 75.5904 10.4267C76.0157 10.7477 76.3462 11.0876 76.582 11.4453C76.8178 11.8029 76.9362 12.1428 76.9362 12.4638L76.2041 12.5297V10.5365C76.2041 10.2301 76.3146 9.9676 76.5346 9.748C76.7546 9.52943 77.0389 9.41963 77.3852 9.41963ZM72.567 19.3166C73.307 19.3166 73.9602 19.1409 74.5277 18.7906C75.0951 18.4403 75.5351 17.9624 75.851 17.3558C76.1657 16.7503 76.3237 16.0748 76.3237 15.3302C76.3237 14.5856 76.1657 13.9111 75.851 13.3046C75.5362 12.6991 75.0951 12.2243 74.5277 11.8813C73.9602 11.5383 73.307 11.3668 72.567 11.3668C71.8269 11.3668 71.2008 11.5383 70.6412 11.8813C70.0817 12.2243 69.6406 12.6949 69.3179 13.2941C68.9953 13.8934 68.834 14.572 68.834 15.3302C68.834 16.0884 68.9953 16.7503 69.3179 17.3558C69.6406 17.9613 70.0817 18.4403 70.6412 18.7906C71.1997 19.1409 71.8416 19.3166 72.567 19.3166Z" fill="#F5F5F7"/>
<defs>
<linearGradient id="paint0_linear_6508_97164" x1="9.66524" y1="0.331787" x2="9.66524" y2="21.7545" gradientUnits="userSpaceOnUse">
<stop stop-color="#F5722E"/>
<stop offset="1" stop-color="#8C4227"/>
</linearGradient>
<linearGradient id="paint1_linear_6508_97164" x1="14.8907" y1="5.55688" x2="14.8907" y2="21.7545" gradientUnits="userSpaceOnUse">
<stop stop-color="#F5722E"/>
<stop offset="1" stop-color="#8C4227"/>
</linearGradient>
</defs>
</svg>
