<svg width="23" height="23" viewBox="0 0 23 23" fill="none" xmlns="http://www.w3.org/2000/svg">
<path d="M21.62 11.7383C21.62 10.9908 21.5529 10.272 21.4283 9.58203H11.5V13.6597H17.1733C16.929 14.9774 16.1863 16.0939 15.0698 16.8414V19.4864H18.4767C20.47 17.6512 21.62 14.9487 21.62 11.7383Z" fill="#4285F4"/>
<path d="M11.4985 22.0407C14.3448 22.0407 16.731 21.0967 18.4752 19.4867L15.0683 16.8417C14.1244 17.4742 12.9169 17.848 11.4985 17.848C8.75292 17.848 6.42896 15.9936 5.6 13.502H2.07812V16.2332C3.81271 19.6784 7.37771 22.0407 11.4985 22.0407Z" fill="#34A853"/>
<path d="M5.60406 13.5027C5.39323 12.8702 5.27344 12.1946 5.27344 11.4998C5.27344 10.805 5.39323 10.1294 5.60406 9.49688V6.76562H2.08219C1.36823 8.18875 0.960938 9.79875 0.960938 11.4998C0.960938 13.2008 1.36823 14.8108 2.08219 16.234L5.60406 13.5027Z" fill="#FBBC05"/>
<path d="M11.4985 5.14974C13.0463 5.14974 14.4358 5.68161 15.5283 6.7262L18.5519 3.70266C16.7263 2.00161 14.34 0.957031 11.4985 0.957031C7.37771 0.957031 3.81271 3.31932 2.07812 6.76453L5.6 9.49578C6.42896 7.00411 8.75292 5.14974 11.4985 5.14974Z" fill="#EA4335"/>
</svg>
