<svg width="26" height="23" viewBox="0 0 26 23" fill="none" xmlns="http://www.w3.org/2000/svg">
<path d="M3.94991 7.25C3.94991 5.85761 4.50478 4.52226 5.49245 3.53769C6.48012 2.55312 7.81969 2 9.21646 2C10.6132 2 11.9528 2.55312 12.9405 3.53769C13.9281 4.52226 14.483 5.85761 14.483 7.25C14.483 8.64239 13.9281 9.97775 12.9405 10.9623C11.9528 11.9469 10.6132 12.5 9.21646 12.5C7.81969 12.5 6.48012 11.9469 5.49245 10.9623C4.50478 9.97775 3.94991 8.64239 3.94991 7.25ZM0 21.7818C0 17.7418 3.28337 14.4688 7.33614 14.4688H11.0968C15.1496 14.4688 18.4329 17.7418 18.4329 21.7818C18.4329 22.4545 17.8857 23 17.2109 23H1.222C0.547228 23 0 22.4545 0 21.7818ZM25.7156 9.25977L20.449 14.5098C20.0623 14.8953 19.4369 14.8953 19.0542 14.5098L16.4209 11.8848C16.0342 11.4992 16.0342 10.8758 16.4209 10.4943C16.8077 10.1129 17.4331 10.1088 17.8158 10.4943L19.7496 12.4221L24.3167 7.86523C24.7034 7.47969 25.3288 7.47969 25.7115 7.86523C26.0941 8.25078 26.0982 8.87422 25.7115 9.25566L25.7156 9.25977Z" fill="#F5722E"/>
</svg>
