<svg width="315" height="184" viewBox="0 0 315 184" fill="none" xmlns="http://www.w3.org/2000/svg">
<rect width="315" height="184" rx="30" fill="#F5F5F7"/>
<rect width="315" height="184" rx="30" fill="url(#paint0_linear_5676_14522)"/>
<g clip-path="url(#clip0_5676_14522)">
<g opacity="0.21">
<path d="M76.8795 19.4242L62.259 -2L-65 184.459H-35.7589L76.8795 19.4242Z" fill="url(#paint1_linear_5676_14522)"/>
<path d="M107.724 63.9967L93.2157 42.6885L-3.3125 184.459H25.7034L107.724 63.9967Z" fill="url(#paint2_linear_5676_14522)"/>
<path d="M160.791 184.459H190.999L113.569 71.9668L98.4688 93.9116L160.791 184.459Z" fill="#263238"/>
<path d="M89.7444 186H118.518L77.3831 127.442L63 147.916L89.7444 186Z" fill="#263238"/>
</g>
</g>
<g opacity="0.9" filter="url(#filter0_f_5676_14522)">
<path d="M38.6554 152.166H33.9654V154.952C34.1614 154.691 34.4507 154.471 34.8334 154.294C35.2254 154.117 35.6407 154.028 36.0794 154.028C36.8634 154.028 37.498 154.196 37.9834 154.532C38.478 154.868 38.828 155.293 39.0334 155.806C39.248 156.319 39.3554 156.861 39.3554 157.43C39.3554 158.121 39.22 158.737 38.9494 159.278C38.688 159.81 38.2914 160.23 37.7594 160.538C37.2367 160.846 36.5927 161 35.8274 161C34.81 161 33.9934 160.748 33.3774 160.244C32.7614 159.74 32.3927 159.073 32.2714 158.242H33.8254C33.928 158.681 34.1567 159.031 34.5114 159.292C34.866 159.544 35.3094 159.67 35.8414 159.67C36.504 159.67 36.9987 159.469 37.3254 159.068C37.6614 158.667 37.8294 158.135 37.8294 157.472C37.8294 156.8 37.6614 156.287 37.3254 155.932C36.9894 155.568 36.4947 155.386 35.8414 155.386C35.384 155.386 34.9967 155.503 34.6794 155.736C34.3714 155.96 34.1474 156.268 34.0074 156.66H32.4954V150.766H38.6554V152.166ZM42.3988 158.83C43.2948 158.055 43.9994 157.421 44.5128 156.926C45.0354 156.422 45.4694 155.899 45.8148 155.358C46.1601 154.817 46.3328 154.275 46.3328 153.734C46.3328 153.174 46.1974 152.735 45.9268 152.418C45.6654 152.101 45.2501 151.942 44.6808 151.942C44.1301 151.942 43.7008 152.119 43.3928 152.474C43.0941 152.819 42.9354 153.286 42.9168 153.874H41.3768C41.4048 152.81 41.7221 151.998 42.3288 151.438C42.9448 150.869 43.7241 150.584 44.6668 150.584C45.6841 150.584 46.4774 150.864 47.0468 151.424C47.6254 151.984 47.9148 152.731 47.9148 153.664C47.9148 154.336 47.7421 154.985 47.3968 155.61C47.0608 156.226 46.6548 156.781 46.1788 157.276C45.7121 157.761 45.1148 158.326 44.3868 158.97L43.7568 159.53H48.1948V160.86H41.3908V159.698L42.3988 158.83ZM51.8188 155.666C50.8482 155.181 50.3628 154.415 50.3628 153.37C50.3628 152.866 50.4888 152.404 50.7408 151.984C50.9928 151.564 51.3708 151.233 51.8748 150.99C52.3788 150.738 52.9948 150.612 53.7228 150.612C54.4415 150.612 55.0528 150.738 55.5568 150.99C56.0702 151.233 56.4528 151.564 56.7048 151.984C56.9568 152.404 57.0828 152.866 57.0828 153.37C57.0828 153.893 56.9475 154.355 56.6768 154.756C56.4155 155.148 56.0655 155.451 55.6268 155.666C56.1588 155.862 56.5788 156.184 56.8868 156.632C57.1948 157.071 57.3488 157.589 57.3488 158.186C57.3488 158.793 57.1948 159.329 56.8868 159.796C56.5788 160.263 56.1495 160.622 55.5988 160.874C55.0482 161.126 54.4228 161.252 53.7228 161.252C53.0228 161.252 52.3975 161.126 51.8468 160.874C51.3055 160.622 50.8808 160.263 50.5728 159.796C50.2648 159.329 50.1108 158.793 50.1108 158.186C50.1108 157.579 50.2648 157.057 50.5728 156.618C50.8808 156.179 51.2962 155.862 51.8188 155.666ZM55.5568 153.566C55.5568 153.043 55.3935 152.642 55.0668 152.362C54.7402 152.082 54.2922 151.942 53.7228 151.942C53.1628 151.942 52.7195 152.082 52.3928 152.362C52.0662 152.642 51.9028 153.048 51.9028 153.58C51.9028 154.047 52.0708 154.429 52.4068 154.728C52.7522 155.017 53.1908 155.162 53.7228 155.162C54.2548 155.162 54.6935 155.013 55.0388 154.714C55.3842 154.415 55.5568 154.033 55.5568 153.566ZM53.7228 156.366C53.1068 156.366 52.6028 156.52 52.2108 156.828C51.8282 157.127 51.6368 157.561 51.6368 158.13C51.6368 158.662 51.8235 159.096 52.1968 159.432C52.5702 159.759 53.0788 159.922 53.7228 159.922C54.3575 159.922 54.8568 159.754 55.2208 159.418C55.5942 159.082 55.7808 158.653 55.7808 158.13C55.7808 157.57 55.5895 157.136 55.2068 156.828C54.8335 156.52 54.3388 156.366 53.7228 156.366ZM60.4066 158.83C61.3026 158.055 62.0072 157.421 62.5206 156.926C63.0432 156.422 63.4772 155.899 63.8226 155.358C64.1679 154.817 64.3406 154.275 64.3406 153.734C64.3406 153.174 64.2052 152.735 63.9346 152.418C63.6732 152.101 63.2579 151.942 62.6886 151.942C62.1379 151.942 61.7086 152.119 61.4006 152.474C61.1019 152.819 60.9432 153.286 60.9246 153.874H59.3846C59.4126 152.81 59.7299 151.998 60.3366 151.438C60.9526 150.869 61.7319 150.584 62.6746 150.584C63.6919 150.584 64.4852 150.864 65.0546 151.424C65.6332 151.984 65.9226 152.731 65.9226 153.664C65.9226 154.336 65.7499 154.985 65.4046 155.61C65.0686 156.226 64.6626 156.781 64.1866 157.276C63.7199 157.761 63.1226 158.326 62.3946 158.97L61.7646 159.53H66.2026V160.86H59.3986V159.698L60.4066 158.83Z" fill="#263238"/>
</g>
<g opacity="0.9" filter="url(#filter1_f_5676_14522)">
<path d="M84.6554 152.166H79.9654V154.952C80.1614 154.691 80.4507 154.471 80.8334 154.294C81.2254 154.117 81.6407 154.028 82.0794 154.028C82.8634 154.028 83.498 154.196 83.9834 154.532C84.478 154.868 84.828 155.293 85.0334 155.806C85.248 156.319 85.3554 156.861 85.3554 157.43C85.3554 158.121 85.22 158.737 84.9494 159.278C84.688 159.81 84.2914 160.23 83.7594 160.538C83.2367 160.846 82.5927 161 81.8274 161C80.81 161 79.9934 160.748 79.3774 160.244C78.7614 159.74 78.3927 159.073 78.2714 158.242H79.8254C79.928 158.681 80.1567 159.031 80.5114 159.292C80.866 159.544 81.3094 159.67 81.8414 159.67C82.504 159.67 82.9987 159.469 83.3254 159.068C83.6614 158.667 83.8294 158.135 83.8294 157.472C83.8294 156.8 83.6614 156.287 83.3254 155.932C82.9894 155.568 82.4947 155.386 81.8414 155.386C81.384 155.386 80.9967 155.503 80.6794 155.736C80.3714 155.96 80.1474 156.268 80.0074 156.66H78.4954V150.766H84.6554V152.166ZM88.3988 158.83C89.2948 158.055 89.9994 157.421 90.5128 156.926C91.0354 156.422 91.4694 155.899 91.8148 155.358C92.1601 154.817 92.3328 154.275 92.3328 153.734C92.3328 153.174 92.1974 152.735 91.9268 152.418C91.6654 152.101 91.2501 151.942 90.6808 151.942C90.1301 151.942 89.7008 152.119 89.3928 152.474C89.0941 152.819 88.9354 153.286 88.9168 153.874H87.3768C87.4048 152.81 87.7221 151.998 88.3288 151.438C88.9448 150.869 89.7241 150.584 90.6668 150.584C91.6841 150.584 92.4774 150.864 93.0468 151.424C93.6254 151.984 93.9148 152.731 93.9148 153.664C93.9148 154.336 93.7421 154.985 93.3968 155.61C93.0608 156.226 92.6548 156.781 92.1788 157.276C91.7121 157.761 91.1148 158.326 90.3868 158.97L89.7568 159.53H94.1948V160.86H87.3908V159.698L88.3988 158.83ZM97.8188 155.666C96.8482 155.181 96.3628 154.415 96.3628 153.37C96.3628 152.866 96.4888 152.404 96.7408 151.984C96.9928 151.564 97.3708 151.233 97.8748 150.99C98.3788 150.738 98.9948 150.612 99.7228 150.612C100.442 150.612 101.053 150.738 101.557 150.99C102.07 151.233 102.453 151.564 102.705 151.984C102.957 152.404 103.083 152.866 103.083 153.37C103.083 153.893 102.948 154.355 102.677 154.756C102.416 155.148 102.066 155.451 101.627 155.666C102.159 155.862 102.579 156.184 102.887 156.632C103.195 157.071 103.349 157.589 103.349 158.186C103.349 158.793 103.195 159.329 102.887 159.796C102.579 160.263 102.15 160.622 101.599 160.874C101.048 161.126 100.423 161.252 99.7228 161.252C99.0228 161.252 98.3975 161.126 97.8468 160.874C97.3055 160.622 96.8808 160.263 96.5728 159.796C96.2648 159.329 96.1108 158.793 96.1108 158.186C96.1108 157.579 96.2648 157.057 96.5728 156.618C96.8808 156.179 97.2962 155.862 97.8188 155.666ZM101.557 153.566C101.557 153.043 101.394 152.642 101.067 152.362C100.74 152.082 100.292 151.942 99.7228 151.942C99.1628 151.942 98.7195 152.082 98.3928 152.362C98.0662 152.642 97.9028 153.048 97.9028 153.58C97.9028 154.047 98.0708 154.429 98.4068 154.728C98.7522 155.017 99.1908 155.162 99.7228 155.162C100.255 155.162 100.694 155.013 101.039 154.714C101.384 154.415 101.557 154.033 101.557 153.566ZM99.7228 156.366C99.1068 156.366 98.6028 156.52 98.2108 156.828C97.8282 157.127 97.6368 157.561 97.6368 158.13C97.6368 158.662 97.8235 159.096 98.1968 159.432C98.5702 159.759 99.0788 159.922 99.7228 159.922C100.358 159.922 100.857 159.754 101.221 159.418C101.594 159.082 101.781 158.653 101.781 158.13C101.781 157.57 101.59 157.136 101.207 156.828C100.834 156.52 100.339 156.366 99.7228 156.366ZM106.407 158.83C107.303 158.055 108.007 157.421 108.521 156.926C109.043 156.422 109.477 155.899 109.823 155.358C110.168 154.817 110.341 154.275 110.341 153.734C110.341 153.174 110.205 152.735 109.935 152.418C109.673 152.101 109.258 151.942 108.689 151.942C108.138 151.942 107.709 152.119 107.401 152.474C107.102 152.819 106.943 153.286 106.925 153.874H105.385C105.413 152.81 105.73 151.998 106.337 151.438C106.953 150.869 107.732 150.584 108.675 150.584C109.692 150.584 110.485 150.864 111.055 151.424C111.633 151.984 111.923 152.731 111.923 153.664C111.923 154.336 111.75 154.985 111.405 155.61C111.069 156.226 110.663 156.781 110.187 157.276C109.72 157.761 109.123 158.326 108.395 158.97L107.765 159.53H112.203V160.86H105.399V159.698L106.407 158.83Z" fill="#263238"/>
</g>
<g opacity="0.9" filter="url(#filter2_f_5676_14522)">
<path d="M130.655 152.166H125.965V154.952C126.161 154.691 126.451 154.471 126.833 154.294C127.225 154.117 127.641 154.028 128.079 154.028C128.863 154.028 129.498 154.196 129.983 154.532C130.478 154.868 130.828 155.293 131.033 155.806C131.248 156.319 131.355 156.861 131.355 157.43C131.355 158.121 131.22 158.737 130.949 159.278C130.688 159.81 130.291 160.23 129.759 160.538C129.237 160.846 128.593 161 127.827 161C126.81 161 125.993 160.748 125.377 160.244C124.761 159.74 124.393 159.073 124.271 158.242H125.825C125.928 158.681 126.157 159.031 126.511 159.292C126.866 159.544 127.309 159.67 127.841 159.67C128.504 159.67 128.999 159.469 129.325 159.068C129.661 158.667 129.829 158.135 129.829 157.472C129.829 156.8 129.661 156.287 129.325 155.932C128.989 155.568 128.495 155.386 127.841 155.386C127.384 155.386 126.997 155.503 126.679 155.736C126.371 155.96 126.147 156.268 126.007 156.66H124.495V150.766H130.655V152.166ZM134.399 158.83C135.295 158.055 135.999 157.421 136.513 156.926C137.035 156.422 137.469 155.899 137.815 155.358C138.16 154.817 138.333 154.275 138.333 153.734C138.333 153.174 138.197 152.735 137.927 152.418C137.665 152.101 137.25 151.942 136.681 151.942C136.13 151.942 135.701 152.119 135.393 152.474C135.094 152.819 134.935 153.286 134.917 153.874H133.377C133.405 152.81 133.722 151.998 134.329 151.438C134.945 150.869 135.724 150.584 136.667 150.584C137.684 150.584 138.477 150.864 139.047 151.424C139.625 151.984 139.915 152.731 139.915 153.664C139.915 154.336 139.742 154.985 139.397 155.61C139.061 156.226 138.655 156.781 138.179 157.276C137.712 157.761 137.115 158.326 136.387 158.97L135.757 159.53H140.195V160.86H133.391V159.698L134.399 158.83ZM143.819 155.666C142.848 155.181 142.363 154.415 142.363 153.37C142.363 152.866 142.489 152.404 142.741 151.984C142.993 151.564 143.371 151.233 143.875 150.99C144.379 150.738 144.995 150.612 145.723 150.612C146.442 150.612 147.053 150.738 147.557 150.99C148.07 151.233 148.453 151.564 148.705 151.984C148.957 152.404 149.083 152.866 149.083 153.37C149.083 153.893 148.948 154.355 148.677 154.756C148.416 155.148 148.066 155.451 147.627 155.666C148.159 155.862 148.579 156.184 148.887 156.632C149.195 157.071 149.349 157.589 149.349 158.186C149.349 158.793 149.195 159.329 148.887 159.796C148.579 160.263 148.15 160.622 147.599 160.874C147.048 161.126 146.423 161.252 145.723 161.252C145.023 161.252 144.398 161.126 143.847 160.874C143.306 160.622 142.881 160.263 142.573 159.796C142.265 159.329 142.111 158.793 142.111 158.186C142.111 157.579 142.265 157.057 142.573 156.618C142.881 156.179 143.296 155.862 143.819 155.666ZM147.557 153.566C147.557 153.043 147.394 152.642 147.067 152.362C146.74 152.082 146.292 151.942 145.723 151.942C145.163 151.942 144.72 152.082 144.393 152.362C144.066 152.642 143.903 153.048 143.903 153.58C143.903 154.047 144.071 154.429 144.407 154.728C144.752 155.017 145.191 155.162 145.723 155.162C146.255 155.162 146.694 155.013 147.039 154.714C147.384 154.415 147.557 154.033 147.557 153.566ZM145.723 156.366C145.107 156.366 144.603 156.52 144.211 156.828C143.828 157.127 143.637 157.561 143.637 158.13C143.637 158.662 143.824 159.096 144.197 159.432C144.57 159.759 145.079 159.922 145.723 159.922C146.358 159.922 146.857 159.754 147.221 159.418C147.594 159.082 147.781 158.653 147.781 158.13C147.781 157.57 147.59 157.136 147.207 156.828C146.834 156.52 146.339 156.366 145.723 156.366ZM152.407 158.83C153.303 158.055 154.007 157.421 154.521 156.926C155.043 156.422 155.477 155.899 155.823 155.358C156.168 154.817 156.341 154.275 156.341 153.734C156.341 153.174 156.205 152.735 155.935 152.418C155.673 152.101 155.258 151.942 154.689 151.942C154.138 151.942 153.709 152.119 153.401 152.474C153.102 152.819 152.943 153.286 152.925 153.874H151.385C151.413 152.81 151.73 151.998 152.337 151.438C152.953 150.869 153.732 150.584 154.675 150.584C155.692 150.584 156.485 150.864 157.055 151.424C157.633 151.984 157.923 152.731 157.923 153.664C157.923 154.336 157.75 154.985 157.405 155.61C157.069 156.226 156.663 156.781 156.187 157.276C155.72 157.761 155.123 158.326 154.395 158.97L153.765 159.53H158.203V160.86H151.399V159.698L152.407 158.83Z" fill="#263238"/>
</g>
<path opacity="0.9" d="M169.63 152.25V150.794H172.542V161H170.932V152.25H169.63ZM176.117 158.83C177.013 158.055 177.717 157.421 178.231 156.926C178.753 156.422 179.187 155.899 179.533 155.358C179.878 154.817 180.051 154.275 180.051 153.734C180.051 153.174 179.915 152.735 179.645 152.418C179.383 152.101 178.968 151.942 178.399 151.942C177.848 151.942 177.419 152.119 177.111 152.474C176.812 152.819 176.653 153.286 176.635 153.874H175.095C175.123 152.81 175.44 151.998 176.047 151.438C176.663 150.869 177.442 150.584 178.385 150.584C179.402 150.584 180.195 150.864 180.765 151.424C181.343 151.984 181.633 152.731 181.633 153.664C181.633 154.336 181.46 154.985 181.115 155.61C180.779 156.226 180.373 156.781 179.897 157.276C179.43 157.761 178.833 158.326 178.105 158.97L177.475 159.53H181.913V160.86H175.109V159.698L176.117 158.83ZM185.537 155.666C184.566 155.181 184.081 154.415 184.081 153.37C184.081 152.866 184.207 152.404 184.459 151.984C184.711 151.564 185.089 151.233 185.593 150.99C186.097 150.738 186.713 150.612 187.441 150.612C188.159 150.612 188.771 150.738 189.275 150.99C189.788 151.233 190.171 151.564 190.423 151.984C190.675 152.404 190.801 152.866 190.801 153.37C190.801 153.893 190.665 154.355 190.395 154.756C190.133 155.148 189.783 155.451 189.345 155.666C189.877 155.862 190.297 156.184 190.605 156.632C190.913 157.071 191.067 157.589 191.067 158.186C191.067 158.793 190.913 159.329 190.605 159.796C190.297 160.263 189.867 160.622 189.317 160.874C188.766 161.126 188.141 161.252 187.441 161.252C186.741 161.252 186.115 161.126 185.565 160.874C185.023 160.622 184.599 160.263 184.291 159.796C183.983 159.329 183.829 158.793 183.829 158.186C183.829 157.579 183.983 157.057 184.291 156.618C184.599 156.179 185.014 155.862 185.537 155.666ZM189.275 153.566C189.275 153.043 189.111 152.642 188.785 152.362C188.458 152.082 188.01 151.942 187.441 151.942C186.881 151.942 186.437 152.082 186.111 152.362C185.784 152.642 185.621 153.048 185.621 153.58C185.621 154.047 185.789 154.429 186.125 154.728C186.47 155.017 186.909 155.162 187.441 155.162C187.973 155.162 188.411 155.013 188.757 154.714C189.102 154.415 189.275 154.033 189.275 153.566ZM187.441 156.366C186.825 156.366 186.321 156.52 185.929 156.828C185.546 157.127 185.355 157.561 185.355 158.13C185.355 158.662 185.541 159.096 185.915 159.432C186.288 159.759 186.797 159.922 187.441 159.922C188.075 159.922 188.575 159.754 188.939 159.418C189.312 159.082 189.499 158.653 189.499 158.13C189.499 157.57 189.307 157.136 188.925 156.828C188.551 156.52 188.057 156.366 187.441 156.366ZM195.23 158.228C195.324 158.695 195.524 159.049 195.832 159.292C196.14 159.535 196.556 159.656 197.078 159.656C197.741 159.656 198.226 159.395 198.534 158.872C198.842 158.349 198.996 157.458 198.996 156.198C198.772 156.515 198.455 156.763 198.044 156.94C197.643 157.108 197.204 157.192 196.728 157.192C196.122 157.192 195.571 157.071 195.076 156.828C194.582 156.576 194.19 156.207 193.9 155.722C193.62 155.227 193.48 154.63 193.48 153.93C193.48 152.903 193.779 152.087 194.376 151.48C194.983 150.864 195.814 150.556 196.868 150.556C198.138 150.556 199.038 150.981 199.57 151.83C200.112 152.67 200.382 153.963 200.382 155.708C200.382 156.912 200.28 157.897 200.074 158.662C199.878 159.427 199.533 160.006 199.038 160.398C198.544 160.79 197.858 160.986 196.98 160.986C195.982 160.986 195.212 160.725 194.67 160.202C194.129 159.679 193.826 159.021 193.76 158.228H195.23ZM197.008 155.848C197.568 155.848 198.007 155.675 198.324 155.33C198.651 154.975 198.814 154.509 198.814 153.93C198.814 153.286 198.642 152.787 198.296 152.432C197.96 152.068 197.498 151.886 196.91 151.886C196.322 151.886 195.856 152.073 195.51 152.446C195.174 152.81 195.006 153.291 195.006 153.888C195.006 154.457 195.17 154.929 195.496 155.302C195.832 155.666 196.336 155.848 197.008 155.848Z" fill="#263238"/>
<path d="M244.629 154.296C244.629 157.026 245.791 159.154 248.157 159.154C250.537 159.154 251.671 157.026 251.671 154.296C251.671 152.882 251.377 151.748 250.775 150.894C250.187 150.04 249.319 149.606 248.157 149.606C246.995 149.606 246.127 150.04 245.525 150.908C244.923 151.762 244.629 152.896 244.629 154.296ZM250.131 154.31C250.131 156.494 249.515 157.796 248.157 157.796C246.799 157.796 246.169 156.494 246.169 154.31C246.169 152.084 246.827 150.964 248.157 150.964C249.473 150.964 250.131 152.084 250.131 154.31ZM260.193 152.812C260.235 150.992 258.681 149.578 256.931 149.606C255.167 149.606 253.655 150.992 253.655 152.798C253.655 154.548 255.097 155.892 256.679 155.892C256.833 155.892 256.959 155.878 257.085 155.85L254.859 159H256.623L258.919 155.738C259.241 155.29 259.479 154.94 259.633 154.688C259.787 154.422 259.927 154.142 260.025 153.834C260.137 153.512 260.193 153.176 260.193 152.812ZM258.723 152.798C258.723 153.316 258.555 153.75 258.205 154.1C257.855 154.45 257.435 154.632 256.931 154.632C256.413 154.632 255.979 154.464 255.629 154.114C255.279 153.764 255.111 153.316 255.111 152.798C255.111 152.28 255.279 151.846 255.629 151.496C255.979 151.146 256.413 150.964 256.931 150.964C257.435 150.964 257.855 151.146 258.205 151.496C258.555 151.846 258.723 152.28 258.723 152.798ZM259.693 160.694H261.331L268.653 148.08H267.015L259.693 160.694ZM272.028 157.712L273.652 155.99C274.296 155.304 274.786 154.716 275.108 154.198C275.444 153.68 275.612 153.106 275.612 152.476C275.612 150.852 274.31 149.606 272.546 149.606C270.656 149.606 269.438 151.048 269.438 152.56C269.438 152.84 269.466 153.106 269.536 153.358H271.034C270.992 153.078 270.964 152.84 270.964 152.644C270.964 151.692 271.594 150.964 272.532 150.964C273.47 150.964 274.072 151.65 274.072 152.588C274.072 153.372 273.624 154.044 272.602 155.122L269.312 158.664V159H275.934V157.712H272.028ZM284.32 156.018C284.32 154.156 282.822 153.134 281.17 153.134C280.75 153.134 280.358 153.176 279.994 153.26V151.09H283.802V149.76H278.538V154.408H280.666C282.024 154.408 282.794 154.996 282.794 156.046C282.794 157.11 281.982 157.796 280.876 157.796C279.882 157.796 279.196 157.278 278.636 156.424L277.6 157.166C278.23 158.356 279.392 159.154 280.918 159.154C282.752 159.154 284.32 157.88 284.32 156.018Z" fill="#263238"/>
<path d="M263.087 43.3764H259.625L261.79 30.4258H265.252L263.087 43.3764Z" fill="#15195A"/>
<path d="M275.639 30.7408C274.956 30.4788 273.873 30.1895 272.534 30.1895C269.115 30.1895 266.707 31.9529 266.693 34.474C266.664 36.3341 268.416 37.3672 269.727 37.9874C271.066 38.6212 271.522 39.0348 271.522 39.5998C271.508 40.4674 270.439 40.8673 269.443 40.8673C268.06 40.8673 267.32 40.6611 266.194 40.1784L265.738 39.9715L265.254 42.8786C266.066 43.2364 267.562 43.554 269.115 43.5679C272.748 43.5679 275.113 41.8317 275.141 39.1451C275.154 37.6708 274.229 36.5412 272.235 35.6181C271.024 35.0255 270.282 34.626 270.282 34.0197C270.296 33.4685 270.909 32.904 272.276 32.904C273.402 32.8763 274.229 33.138 274.855 33.3998L275.168 33.5374L275.639 30.7408Z" fill="#15195A"/>
<path fill-rule="evenodd" clip-rule="evenodd" d="M281.835 30.4258H284.513L287.306 43.3763H284.1C284.1 43.3763 283.786 41.8883 283.687 41.4336H279.242C279.113 41.7778 278.515 43.3763 278.515 43.3763H274.883L280.025 31.5003C280.381 30.6598 281.009 30.4258 281.835 30.4258ZM281.62 35.1657C281.62 35.1657 280.523 38.0451 280.238 38.7891H283.116C282.974 38.1416 282.318 35.0417 282.318 35.0417L282.076 33.9258C281.974 34.2131 281.827 34.6082 281.727 34.8747C281.66 35.0553 281.615 35.1768 281.62 35.1657Z" fill="#15195A"/>
<path fill-rule="evenodd" clip-rule="evenodd" d="M244.623 30.4258H250.193C250.948 30.4531 251.561 30.6873 251.76 31.5144L252.971 37.4664C252.97 37.4618 252.968 37.4572 252.966 37.4527C252.967 37.4571 252.969 37.4614 252.97 37.4658L253.341 39.2569L256.731 30.4258H260.392L254.95 43.3627H251.289L248.203 32.1089C247.139 31.5072 245.924 31.0233 244.566 30.6875L244.623 30.4258Z" fill="#15195A"/>
<defs>
<filter id="filter0_f_5676_14522" x="22.2695" y="140.584" width="53.9336" height="30.668" filterUnits="userSpaceOnUse" color-interpolation-filters="sRGB">
<feFlood flood-opacity="0" result="BackgroundImageFix"/>
<feBlend mode="normal" in="SourceGraphic" in2="BackgroundImageFix" result="shape"/>
<feGaussianBlur stdDeviation="5" result="effect1_foregroundBlur_5676_14522"/>
</filter>
<filter id="filter1_f_5676_14522" x="68.2695" y="140.584" width="53.9336" height="30.668" filterUnits="userSpaceOnUse" color-interpolation-filters="sRGB">
<feFlood flood-opacity="0" result="BackgroundImageFix"/>
<feBlend mode="normal" in="SourceGraphic" in2="BackgroundImageFix" result="shape"/>
<feGaussianBlur stdDeviation="5" result="effect1_foregroundBlur_5676_14522"/>
</filter>
<filter id="filter2_f_5676_14522" x="114.27" y="140.584" width="53.9336" height="30.668" filterUnits="userSpaceOnUse" color-interpolation-filters="sRGB">
<feFlood flood-opacity="0" result="BackgroundImageFix"/>
<feBlend mode="normal" in="SourceGraphic" in2="BackgroundImageFix" result="shape"/>
<feGaussianBlur stdDeviation="5" result="effect1_foregroundBlur_5676_14522"/>
</filter>
<linearGradient id="paint0_linear_5676_14522" x1="315" y1="92" x2="0" y2="92" gradientUnits="userSpaceOnUse">
<stop offset="0.53" stop-color="#979797" stop-opacity="0"/>
<stop offset="1" stop-color="#979797"/>
</linearGradient>
<linearGradient id="paint1_linear_5676_14522" x1="5.93977" y1="-2" x2="5.93977" y2="184.459" gradientUnits="userSpaceOnUse">
<stop stop-color="#F5722E"/>
<stop offset="1" stop-color="#8C4227"/>
</linearGradient>
<linearGradient id="paint2_linear_5676_14522" x1="52.2056" y1="42.6885" x2="52.2056" y2="184.459" gradientUnits="userSpaceOnUse">
<stop stop-color="#F5722E"/>
<stop offset="1" stop-color="#8C4227"/>
</linearGradient>
<clipPath id="clip0_5676_14522">
<path d="M0 30C0 13.4315 13.4315 0 30 0H191V184H30C13.4315 184 0 170.569 0 154V30Z" fill="white"/>
</clipPath>
</defs>
</svg>
