<svg width="30" height="23" viewBox="0 0 30 23" fill="none" xmlns="http://www.w3.org/2000/svg">
<path d="M2.25 2C1.00781 2 0 2.98197 0 4.19231C0 4.88197 0.332813 5.53053 0.9 5.94615L11.1 13.4C11.6344 13.7882 12.3656 13.7882 12.9 13.4L15.5906 11.4361C16.7109 8.70481 19.3266 6.71803 22.4484 6.42115L23.1 5.94615C23.6672 5.53053 24 4.88197 24 4.19231C24 2.98197 22.9922 2 21.75 2H2.25ZM13.8 14.5692C12.7312 15.3502 11.2688 15.3502 10.2 14.5692L0 7.11538V16.6154C0 18.2276 1.34531 19.5385 3 19.5385H16.8844C15.7078 18.15 15 16.3642 15 14.4231C15 14.1673 15.0141 13.9161 15.0375 13.6649L13.8 14.5692ZM30 14.4231C30 12.6788 29.2888 11.0059 28.023 9.77249C26.7571 8.53908 25.0402 7.84615 23.25 7.84615C21.4598 7.84615 19.7429 8.53908 18.477 9.77249C17.2112 11.0059 16.5 12.6788 16.5 14.4231C16.5 16.1674 17.2112 17.8403 18.477 19.0737C19.7429 20.3071 21.4598 21 23.25 21C25.0402 21 26.7571 20.3071 28.023 19.0737C29.2888 17.8403 30 16.1674 30 14.4231ZM26.4047 12.4454C26.6953 12.7286 26.6953 13.1945 26.4047 13.4776L23.0297 16.7661C22.7391 17.0493 22.2609 17.0493 21.9703 16.7661L20.0953 14.9392C19.8047 14.656 19.8047 14.1901 20.0953 13.907C20.3859 13.6238 20.8641 13.6238 21.1547 13.907L22.5 15.2178L25.3453 12.4454C25.6359 12.1623 26.1141 12.1623 26.4047 12.4454Z" fill="#F5722E"/>
</svg>
