<svg width="36" height="23" viewBox="0 0 36 23" fill="none" xmlns="http://www.w3.org/2000/svg">
<g id="envelope-circle-check" clip-path="url(#clip0_4072_102773)">
<path id="Primary" d="M-7.75 1.5C-8.99219 1.5 -10 2.48197 -10 3.69231C-10 4.38197 -9.66719 5.03053 -9.1 5.44615L1.1 12.9C1.63438 13.2882 2.36563 13.2882 2.9 12.9L5.59063 10.9361C6.71094 8.20481 9.32656 6.21803 12.4484 5.92115L13.1 5.44615C13.6672 5.03053 14 4.38197 14 3.69231C14 2.48197 12.9922 1.5 11.75 1.5H-7.75ZM3.8 14.0692C2.73125 14.8502 1.26875 14.8502 0.200001 14.0692L-10 6.61538V16.1154C-10 17.7276 -8.65469 19.0385 -7 19.0385H6.88438C5.70781 17.65 5 15.8642 5 13.9231C5 13.6673 5.01406 13.4161 5.0375 13.1649L3.8 14.0692ZM20 13.9231C20 12.1788 19.2888 10.5059 18.023 9.27249C16.7571 8.03908 15.0402 7.34615 13.25 7.34615C11.4598 7.34615 9.7429 8.03908 8.47703 9.27249C7.21116 10.5059 6.5 12.1788 6.5 13.9231C6.5 15.6674 7.21116 17.3403 8.47703 18.5737C9.7429 19.8071 11.4598 20.5 13.25 20.5C15.0402 20.5 16.7571 19.8071 18.023 18.5737C19.2888 17.3403 20 15.6674 20 13.9231ZM16.4047 11.9454C16.6953 12.2286 16.6953 12.6945 16.4047 12.9776L13.0297 16.2661C12.7391 16.5493 12.2609 16.5493 11.9703 16.2661L10.0953 14.4392C9.80469 14.156 9.80469 13.6901 10.0953 13.407C10.3859 13.1238 10.8641 13.1238 11.1547 13.407L12.5 14.7178L15.3453 11.9454C15.6359 11.6623 16.1141 11.6623 16.4047 11.9454Z" fill="#F5722E"/>
</g>
<defs>
<clipPath id="clip0_4072_102773">
<rect width="36" height="23" fill="white"/>
</clipPath>
</defs>
</svg>
