<svg width="36" height="23" viewBox="0 0 36 23" fill="none" xmlns="http://www.w3.org/2000/svg">
<g id="envelope-circle-check" clip-path="url(#clip0_4072_103407)">
<path id="Primary" d="M-6.75 1.5C-7.99219 1.5 -9 2.48197 -9 3.69231C-9 4.38197 -8.66719 5.03053 -8.1 5.44615L2.1 12.9C2.63438 13.2882 3.36563 13.2882 3.9 12.9L6.59063 10.9361C7.71094 8.20481 10.3266 6.21803 13.4484 5.92115L14.1 5.44615C14.6672 5.03053 15 4.38197 15 3.69231C15 2.48197 13.9922 1.5 12.75 1.5H-6.75ZM4.8 14.0692C3.73125 14.8502 2.26875 14.8502 1.2 14.0692L-9 6.61538V16.1154C-9 17.7276 -7.65469 19.0385 -6 19.0385H7.88438C6.70781 17.65 6 15.8642 6 13.9231C6 13.6673 6.01406 13.4161 6.0375 13.1649L4.8 14.0692ZM21 13.9231C21 12.1788 20.2888 10.5059 19.023 9.27249C17.7571 8.03908 16.0402 7.34615 14.25 7.34615C12.4598 7.34615 10.7429 8.03908 9.47703 9.27249C8.21116 10.5059 7.5 12.1788 7.5 13.9231C7.5 15.6674 8.21116 17.3403 9.47703 18.5737C10.7429 19.8071 12.4598 20.5 14.25 20.5C16.0402 20.5 17.7571 19.8071 19.023 18.5737C20.2888 17.3403 21 15.6674 21 13.9231ZM17.4047 11.9454C17.6953 12.2286 17.6953 12.6945 17.4047 12.9776L14.0297 16.2661C13.7391 16.5493 13.2609 16.5493 12.9703 16.2661L11.0953 14.4392C10.8047 14.156 10.8047 13.6901 11.0953 13.407C11.3859 13.1238 11.8641 13.1238 12.1547 13.407L13.5 14.7178L16.3453 11.9454C16.6359 11.6623 17.1141 11.6623 17.4047 11.9454Z" fill="#F5722E"/>
</g>
<defs>
<clipPath id="clip0_4072_103407">
<rect width="36" height="23" fill="white"/>
</clipPath>
</defs>
</svg>
