<svg width="18" height="19" viewBox="0 0 18 19" fill="none" xmlns="http://www.w3.org/2000/svg">
<path id="Primary" d="M9 18.5C11.3869 18.5 13.6761 17.5518 15.364 15.864C17.0518 14.1761 18 11.8869 18 9.5C18 7.11305 17.0518 4.82387 15.364 3.13604C13.6761 1.44821 11.3869 0.5 9 0.5C6.61305 0.5 4.32387 1.44821 2.63604 3.13604C0.948212 4.82387 0 7.11305 0 9.5C0 11.8869 0.948212 14.1761 2.63604 15.864C4.32387 17.5518 6.61305 18.5 9 18.5ZM12.9727 7.84766L8.47266 12.3477C8.14219 12.6781 7.60781 12.6781 7.28086 12.3477L5.03086 10.0977C4.70039 9.76719 4.70039 9.23281 5.03086 8.90586C5.36133 8.57891 5.8957 8.57539 6.22266 8.90586L7.875 10.5582L11.7773 6.65234C12.1078 6.32188 12.6422 6.32188 12.9691 6.65234C13.2961 6.98281 13.2996 7.51719 12.9691 7.84414L12.9727 7.84766Z" fill="#4BAF66"/>
</svg>
