<svg width="47" height="29" viewBox="0 0 47 29" fill="none" xmlns="http://www.w3.org/2000/svg">
<g id="American Express">
<g id="Group 2283">
<path id="Vector" d="M2.38513 0H44.1249C45.4422 0 46.51 1.03872 46.51 2.32V26.68C46.51 27.9613 45.4422 29 44.1249 29H2.38513C1.06788 29 0 27.9613 0 26.68V2.32C0 1.03872 1.06788 0 2.38513 0Z" fill="#2557D6"/>
<path id="Vector_2" d="M5.50414 13.7325H7.22147L7.60869 12.6009H8.47559L8.8618 13.7325H12.2408V12.8674L12.5424 13.7362H14.2965L14.5982 12.8545V13.7325H22.9957L22.9918 11.875H23.1542C23.2679 11.8798 23.3012 11.8925 23.3012 12.1201V13.7325H27.6444V13.3001C27.9947 13.5275 28.5396 13.7325 29.2565 13.7325H31.0837L31.4747 12.601H32.3416L32.724 13.7325H36.2451V12.6577L36.7783 13.7325H39.5999V6.62695H36.8075V7.4661L36.4166 6.62695H33.5512V7.4661L33.1921 6.62695H29.3218C28.674 6.62695 28.1045 6.73652 27.6445 7.04183V6.62695H24.9736V7.04183C24.6808 6.72712 24.282 6.62695 23.8384 6.62695H14.0805L13.4257 8.46213L12.7534 6.62695H9.67999V7.4661L9.34231 6.62695H6.72119L5.50391 10.0052V13.7324H5.50404L5.50414 13.7325ZM16.3445 12.7076H15.3142L15.3104 8.71756L13.8529 12.7076H12.9704L11.5092 8.71402V12.7076H9.46482L9.07862 11.5712H6.9858L6.5957 12.7076H5.504L7.3039 7.61301H8.79731L10.5068 12.4365V7.61301H12.1473L13.4627 11.0691L14.671 7.61301H16.3445L16.3445 12.7076ZM8.73507 10.5139L8.04714 8.48289L7.36302 10.5139H8.73507ZM20.4451 12.7075H17.0875V7.61295H20.4451V8.67383H18.0926V9.59214H20.3888V10.6364H18.0926V11.6539H20.4451L20.4451 12.7075ZM25.1769 8.98506C25.1769 9.79729 24.7294 10.217 24.4687 10.343C24.6886 10.4443 24.8765 10.6236 24.9659 10.772C25.1078 11.0254 25.1323 11.2517 25.1323 11.7067V12.7075H24.1185L24.1146 12.065C24.1146 11.7585 24.1389 11.3176 23.956 11.0725C23.8092 10.8933 23.5853 10.8545 23.2234 10.8545H22.1444V12.7076H21.1393V7.61295H23.4511C23.9648 7.61295 24.3433 7.62937 24.6682 7.85696C24.9862 8.08455 25.1769 8.41677 25.1769 8.98506ZM23.9064 9.7415C23.7682 9.84311 23.6049 9.84648 23.4091 9.84648H22.1881V8.71489H23.4257C23.6008 8.71489 23.7837 8.72441 23.9024 8.80677C24.0328 8.88101 24.1135 9.03894 24.1135 9.25714C24.1135 9.47986 24.0367 9.65902 23.9064 9.7415ZM26.7889 12.7075H25.7634V7.61295H26.7889V12.7075ZM38.6943 12.7075H37.27L35.3649 8.88373V12.7075H33.3179L32.9268 11.5712H30.8388L30.4595 12.7075H29.283C28.7946 12.7075 28.1759 12.5766 27.8257 12.144C27.4725 11.7115 27.2887 11.1255 27.2887 10.1991C27.2887 9.44355 27.3985 8.75283 27.8304 8.20699C28.1554 7.80041 28.6643 7.61295 29.3569 7.61295H30.33V8.70457H29.3773C29.0105 8.70457 28.8033 8.77069 28.6039 9.00635C28.4326 9.22089 28.315 9.62637 28.315 10.1604C28.315 10.7062 28.4045 11.0997 28.5913 11.3568C28.746 11.5584 29.0273 11.6195 29.2917 11.6195H29.7432L31.1598 7.61313H32.6658L34.3676 12.4318V7.61319H35.8981L37.6648 11.1613V7.61319H38.6943V12.7075ZM32.5847 10.5139L31.8892 8.48295L31.1974 10.5139H32.5847ZM41.2556 20.8426C41.0115 21.2751 40.5357 21.4944 39.8917 21.4944H37.9506V20.4017H39.8838C40.0756 20.4017 40.2097 20.3711 40.2905 20.2755C40.3669 20.19 40.41 20.0694 40.4094 19.9432C40.4094 19.7947 40.3606 19.6768 40.2866 19.6062C40.2137 19.5284 40.1075 19.4931 39.9324 19.4931C38.9887 19.4542 37.8113 19.5284 37.8113 17.9158C37.8113 17.1768 38.1986 16.3988 39.2533 16.3988H41.2554V15.385H39.3952C38.8339 15.385 38.426 15.548 38.1372 15.8011V15.385H35.3858C34.9457 15.385 34.4293 15.5171 34.1851 15.8011V15.385H29.2717V15.8011C28.8807 15.4594 28.221 15.385 27.9164 15.385H24.6755V15.8011C24.3661 15.4381 23.6783 15.385 23.2588 15.385H19.6318L18.8018 16.4733L18.0244 15.385H12.606V22.4952H17.9221L18.7774 21.3896L19.583 22.4952L22.8599 22.4987V20.8261H23.182C23.6168 20.8342 24.1296 20.8129 24.582 20.576V22.4949H27.2849V20.6417H27.4153C27.5817 20.6417 27.598 20.6501 27.598 20.8514V22.4947H35.8088C36.3301 22.4947 36.875 22.3331 37.1768 22.0397V22.4947H39.7812C40.3231 22.4947 40.8524 22.4027 41.2551 22.1671L41.2552 20.8423L41.2556 20.8426ZM24.9753 18.1076C24.9753 19.5231 24.1035 19.8154 23.225 19.8154H21.9708V21.5246H20.0173L18.7796 19.8376L17.4933 21.5246H13.5119V16.4288H17.5545L18.7911 18.0991L20.0697 16.4288H23.2814C24.079 16.4288 24.9753 16.6963 24.9753 18.1076ZM16.9842 20.4528H14.5129V19.4389H16.7196V18.3992H14.5129V17.4727H17.0328L18.1322 18.9578L16.9842 20.4528ZM20.966 21.0362L19.4228 18.9605L20.966 16.9508V21.0362ZM23.2482 18.7704H21.9493V17.4727H23.2599C23.6228 17.4727 23.8747 17.6519 23.8747 18.0975C23.8747 18.5382 23.6344 18.7704 23.2482 18.7704ZM30.0532 16.4288H33.4078V17.4826H31.0541V18.4091H33.3504V19.4488H31.0541V20.4626L33.4078 20.4673V21.5246H30.0531L30.0532 16.4288ZM28.7634 19.1565C28.9871 19.2565 29.17 19.4358 29.2557 19.5842C29.3977 19.8331 29.4182 20.0653 29.4223 20.5144V21.5246H28.4131V20.8871C28.4131 20.5805 28.4375 20.1266 28.2506 19.8896C28.1038 19.7071 27.8799 19.6634 27.5133 19.6634H26.439V21.5247H25.429V16.4288H27.7497C28.2585 16.4288 28.6291 16.4561 28.959 16.6693C29.2762 16.9015 29.4758 17.2196 29.4758 17.8009C29.4757 18.6142 29.0279 19.0293 28.7634 19.1565ZM28.1953 18.5123C28.0608 18.6089 27.8946 18.6173 27.6991 18.6173H26.478V17.4728H27.7156C27.8946 17.4728 28.0737 17.4775 28.1953 17.5649C28.3256 17.6474 28.4035 17.8054 28.4035 18.0233C28.4035 18.2412 28.3255 18.4168 28.1953 18.5123ZM37.2689 18.8369C37.4648 19.0822 37.5695 19.392 37.5695 19.9164C37.5695 21.0126 37.0043 21.5244 35.9905 21.5244H34.0329V20.4316H35.9827C36.1734 20.4316 36.3086 20.4012 36.3932 20.3055C36.4624 20.2267 36.512 20.1122 36.512 19.9732C36.512 19.8247 36.4583 19.7069 36.3893 19.6362C36.3125 19.5585 36.2065 19.5231 36.0314 19.5231C35.0914 19.4843 33.9143 19.5585 33.9143 17.946C33.9143 17.2069 34.2975 16.4288 35.3513 16.4288H37.3664V17.5134H35.5226C35.3398 17.5134 35.221 17.5218 35.1199 17.6055C35.0098 17.688 34.969 17.8105 34.969 17.972C34.969 18.1642 35.0624 18.295 35.1889 18.3517C35.2949 18.3963 35.4089 18.4094 35.58 18.4094L36.1211 18.4271C36.6667 18.4431 37.0413 18.5575 37.2689 18.8369ZM41.2573 17.4727H39.4255C39.2426 17.4727 39.121 17.4811 39.0188 17.5648C38.9127 17.6473 38.8719 17.7697 38.8719 17.9314C38.8719 18.1237 38.9614 18.2544 39.0916 18.311C39.1977 18.3557 39.3116 18.3688 39.479 18.3688L40.0238 18.3864C40.5734 18.4029 40.9403 18.5174 41.164 18.7966C41.2049 18.8354 41.2293 18.879 41.2573 18.9227V17.4727H41.2573Z" fill="white"/>
</g>
</g>
</svg>
