<svg width="47" height="29" viewBox="0 0 47 29" fill="none" xmlns="http://www.w3.org/2000/svg">
<g id="Discover">
<g id="Group">
<g id="Group 2287">
<path id="Vector" fill-rule="evenodd" clip-rule="evenodd" d="M3.27907 0C1.46846 0 0 1.42569 0 3.18386V25.8161C0 27.5747 1.46799 29 3.27907 29H43.2309C45.0415 29 46.51 27.5743 46.51 25.8161V3.18386C46.51 1.42534 45.042 0 43.2309 0L3.27907 0Z" fill="#4D4D4D"/>
<path id="Vector_2" fill-rule="evenodd" clip-rule="evenodd" d="M19.5072 9.37109C20.0342 9.37109 20.4761 9.47436 21.0139 9.72361V11.0405C20.5045 10.5854 20.0626 10.3949 19.4781 10.3949C18.3295 10.3949 17.4261 11.264 17.4261 12.3659C17.4261 13.5279 18.3015 14.3453 19.5351 14.3453C20.0904 14.3453 20.5241 14.1647 21.0139 13.7168V15.0344C20.4569 15.2741 20.0056 15.3688 19.4781 15.3688C17.6131 15.3688 16.1639 14.0608 16.1639 12.374C16.1639 10.7054 17.6517 9.37109 19.5072 9.37109ZM13.7166 9.40739C14.405 9.40739 15.0349 9.62272 15.5616 10.0438L14.9208 10.8106C14.6017 10.4838 14.3 10.3459 13.9331 10.3459C13.4052 10.3459 13.0208 10.6206 13.0208 10.982C13.0208 11.2919 13.2366 11.456 13.9715 11.7045C15.3647 12.1701 15.7776 12.583 15.7776 13.4947C15.7776 14.6056 14.8846 15.379 13.6119 15.379C12.6799 15.379 12.0023 15.0435 11.438 14.2866L12.2291 13.5902C12.5112 14.0886 12.9818 14.3556 13.566 14.3556C14.1124 14.3556 14.5169 14.011 14.5169 13.5461C14.5169 13.3051 14.3944 13.0984 14.1497 12.9523C14.0265 12.8832 13.7825 12.78 13.303 12.6255C12.1527 12.247 11.758 11.8425 11.758 11.0519C11.758 10.1127 12.6056 9.40739 13.7166 9.40739ZM27.7127 9.50741H29.0506L30.7252 13.362L32.4213 9.50741H33.7491L31.0364 15.3934H30.3773L27.7127 9.50741ZM4.01953 9.51621H5.81732C7.80366 9.51621 9.18834 10.696 9.18834 12.3896C9.18834 13.2342 8.76474 14.0507 8.04837 14.5925C7.44565 15.0499 6.75885 15.255 5.8079 15.255H4.01953V9.51621ZM9.75189 9.51621H10.9767V15.255H9.75189V9.51621ZM34.3028 9.51621H37.7763V10.4887H35.5268V11.7624H37.6935V12.7343H35.5268V14.2834H37.7764V15.255H34.3029L34.3028 9.51621ZM38.5876 9.51621H40.4036C41.8162 9.51621 42.6256 10.1361 42.6256 11.2106C42.6256 12.0893 42.118 12.6658 41.1954 12.8374L43.1719 15.255H41.6657L39.9706 12.9496H39.8109V15.255H38.5876V9.51621ZM39.8109 10.4201V12.1581H40.1688C40.9509 12.1581 41.3654 11.8477 41.3654 11.2709C41.3654 10.7124 40.9508 10.4201 40.1881 10.4201H39.8109ZM5.24346 10.4886V14.2834H5.57213C6.36358 14.2834 6.86344 14.1449 7.24828 13.8273C7.67182 13.4826 7.92661 12.9321 7.92661 12.3814C7.92661 11.8315 7.67182 11.2975 7.24828 10.9527C6.8437 10.6182 6.36358 10.4886 5.57213 10.4886H5.24346Z" fill="white"/>
<path id="Vector_3" fill-rule="evenodd" clip-rule="evenodd" d="M24.7533 9.33209C26.5983 9.33209 28.0938 10.697 28.0938 12.3831V12.385C28.0938 14.0712 26.5983 15.4379 24.7534 15.4379C22.9085 15.4379 21.4129 14.0711 21.4129 12.385V12.3831C21.4129 10.6969 22.9085 9.33203 24.7534 9.33203L24.7533 9.33209ZM46.5087 16.6921C44.9554 17.7531 33.3261 25.3365 13.1914 28.9994H43.2297C45.0403 28.9994 46.5088 27.5737 46.5088 25.8156V16.6918L46.5087 16.6921Z" fill="#F47216"/>
</g>
</g>
</g>
</svg>
