<svg width="47" height="29" viewBox="0 0 47 29" fill="none" xmlns="http://www.w3.org/2000/svg">
<g id="Mastercard">
<g id="Group 2281">
<g id="Group 2">
<path id="Vector" d="M2.38513 0H44.1249C45.4422 0 46.51 1.03872 46.51 2.32V26.68C46.51 27.9613 45.4422 29 44.1249 29H2.38513C1.06788 29 0 27.9613 0 26.68V2.32C0 1.03872 1.06788 0 2.38513 0Z" fill="#16366F"/>
<path id="Vector_2" d="M26.7743 14.5008C26.7743 20.2511 21.982 24.9118 16.0705 24.9118C10.1589 24.9118 5.36719 20.2509 5.36719 14.5008C5.36719 8.75113 10.159 4.08984 16.0705 4.08984C21.9818 4.08984 26.7743 8.7513 26.7743 14.5008Z" fill="#D9222A"/>
<path id="Vector_3" d="M30.4393 4.08984C27.6738 4.08984 25.1537 5.11041 23.2541 6.78487C22.8672 7.12643 22.5059 7.49462 22.1734 7.88664H24.3359C24.632 8.23679 24.9045 8.60514 25.1519 8.98939H21.3574C21.1292 9.34441 20.9233 9.7126 20.7408 10.0919H25.7682C25.9407 10.4506 26.092 10.8186 26.2214 11.1941H20.2876C20.163 11.5557 20.0591 11.9238 19.9766 12.2966H26.5321C26.6924 13.021 26.7732 13.76 26.773 14.5011C26.773 15.6572 26.579 16.7696 26.2212 17.8082H20.2875C20.4166 18.184 20.5678 18.5521 20.7404 18.9108H25.7681C25.5854 19.2901 25.3793 19.6584 25.1511 20.0136H21.3573C21.6049 20.3981 21.8778 20.7664 22.1733 21.1153H24.3353C24.0031 21.5081 23.6418 21.8766 23.2542 22.218C25.154 23.8923 27.6737 24.9124 30.4394 24.9124C36.3508 24.9123 41.1433 20.2514 41.1433 14.5014C41.1433 8.75183 36.3509 4.09037 30.4394 4.09037" fill="#EE9F2D"/>
<path id="Vector_4" d="M42.5247 20.8547C42.5247 20.669 42.6793 20.5182 42.8703 20.5182C43.0614 20.5182 43.2159 20.669 43.2159 20.8547C43.2159 21.0402 43.0614 21.191 42.8703 21.191C42.6794 21.1909 42.5246 21.0403 42.5247 20.8547ZM42.8703 21.1103C43.0155 21.1103 43.1331 20.9958 43.1331 20.8547C43.1331 20.7135 43.0156 20.5992 42.8705 20.5992H42.8703C42.7255 20.599 42.6079 20.7131 42.6077 20.854V20.8547C42.6075 20.9958 42.725 21.1103 42.87 21.1104C42.8701 21.1103 42.8702 21.1103 42.8703 21.1103ZM42.8236 21.0024H42.7528V20.707H42.8809C42.9078 20.707 42.9351 20.707 42.9587 20.7217C42.9834 20.7378 42.9973 20.7664 42.9973 20.7958C42.9973 20.8289 42.9772 20.8599 42.9446 20.8719L43.0005 21.0024H42.9221L42.8755 20.8855H42.8237L42.8236 21.0024ZM42.8236 20.8348H42.8629C42.8775 20.8348 42.8929 20.836 42.9061 20.829C42.9178 20.8218 42.9237 20.8082 42.9237 20.7951C42.9237 20.7838 42.9166 20.7708 42.9066 20.7652C42.8942 20.7576 42.8746 20.7594 42.8614 20.7594H42.8236V20.8348ZM16.3785 16.1912C16.2566 16.1774 16.2029 16.1737 16.1191 16.1737C15.4605 16.1737 15.1271 16.3935 15.1271 16.8273C15.1271 17.0947 15.2899 17.2649 15.5437 17.2649C16.017 17.2649 16.3582 16.8264 16.3785 16.1912ZM17.2235 18.1049H16.2607L16.2829 17.6597C15.9892 18.0116 15.5974 18.1788 15.065 18.1788C14.4352 18.1788 14.0033 17.7003 14.0033 17.0055C14.0033 15.9602 14.7544 15.3502 16.0436 15.3502C16.1753 15.3502 16.3442 15.3618 16.5171 15.3832C16.5532 15.2416 16.5626 15.181 16.5626 15.1048C16.5626 14.8202 16.3601 14.714 15.8173 14.714C15.2489 14.7078 14.78 14.8457 14.5875 14.9074C14.5996 14.8361 14.7485 13.9412 14.7485 13.9412C15.3276 13.7762 15.7095 13.714 16.1393 13.714C17.137 13.714 17.6655 14.1497 17.6646 14.9733C17.6665 15.194 17.629 15.4663 17.5704 15.8243C17.4695 16.4467 17.2531 17.7799 17.2235 18.1049ZM13.5171 18.1049H12.3551L13.0207 14.0451L11.5345 18.1049H10.7426L10.6448 14.0683L9.94516 18.1049H8.85742L9.76604 12.8238H11.4368L11.5382 15.7798L12.5574 12.8238H14.4158L13.5171 18.1049ZM34.6839 16.1912C34.5625 16.1774 34.5085 16.1737 34.425 16.1737C33.7667 16.1737 33.4332 16.3935 33.4332 16.8273C33.4332 17.0947 33.5957 17.2649 33.8496 17.2649C34.323 17.2649 34.6643 16.8264 34.6839 16.1912ZM35.5297 18.1049H34.567L34.5887 17.6597C34.2951 18.0116 33.903 18.1788 33.3711 18.1788C32.7411 18.1788 32.3097 17.7003 32.3097 17.0055C32.3097 15.9602 33.0603 15.3502 34.3497 15.3502C34.4814 15.3502 34.6501 15.3618 34.8228 15.3832C34.8588 15.2416 34.8683 15.181 34.8683 15.1048C34.8683 14.8202 34.6661 14.714 34.1232 14.714C33.5548 14.7078 33.0864 14.8457 32.8931 14.9074C32.9053 14.8361 33.0546 13.9412 33.0546 13.9412C33.6338 13.7762 34.0154 13.714 34.4447 13.714C35.4429 13.714 35.9714 14.1497 35.9704 14.9733C35.9723 15.194 35.9348 15.4663 35.8762 15.8243C35.7759 16.4467 35.559 17.7799 35.5297 18.1049ZM22.3882 18.0397C22.0701 18.1371 21.8222 18.1788 21.5534 18.1788C20.9593 18.1788 20.6351 17.8468 20.6351 17.2353C20.6267 17.0457 20.7206 16.5464 20.7943 16.0906C20.8614 15.6894 21.2982 13.1599 21.2982 13.1599H22.4532L22.3184 13.81H23.016L22.8584 14.8421H22.1583C22.0241 15.659 21.8331 16.6764 21.8309 16.8112C21.8309 17.0326 21.9523 17.1293 22.2286 17.1293C22.361 17.1293 22.4636 17.1161 22.5419 17.0887L22.3882 18.0397ZM25.9296 18.0049C25.5328 18.1228 25.1499 18.1799 24.7442 18.1789C23.4513 18.1777 22.7773 17.5208 22.7773 16.263C22.7773 14.7949 23.6347 13.7141 24.7987 13.7141C25.7509 13.7141 26.3591 14.3192 26.3591 15.2683C26.3591 15.5831 26.3174 15.8905 26.2168 16.3246H23.9166C23.8389 16.9476 24.2488 17.2071 24.9206 17.2071C25.3341 17.2071 25.707 17.1242 26.1216 16.9367L25.9296 18.0049ZM25.2804 15.4587C25.2868 15.3692 25.4029 14.6921 24.743 14.6921C24.375 14.6921 24.1119 14.9649 24.0048 15.4587H25.2804ZM17.9211 15.1677C17.9211 15.711 18.1919 16.0855 18.806 16.3669C19.2766 16.582 19.3494 16.6458 19.3494 16.8408C19.3494 17.1086 19.1419 17.2294 18.6821 17.2294C18.3355 17.2294 18.013 17.1768 17.6411 17.06C17.6411 17.06 17.4882 18.0066 17.4813 18.0519C17.7454 18.1079 17.981 18.1598 18.6905 18.1789C19.9166 18.1789 20.4828 17.7248 20.4828 16.7434C20.4828 16.1532 20.2458 15.8069 19.6637 15.5467C19.1765 15.3292 19.1206 15.2806 19.1206 15.08C19.1206 14.8478 19.3136 14.7293 19.6893 14.7293C19.9174 14.7293 20.2289 14.753 20.5241 14.7939L20.6896 13.7977C20.3887 13.7513 19.9325 13.7141 19.6669 13.7141C18.367 13.7141 17.9171 14.3745 17.9211 15.1677ZM31.5813 13.827C31.9041 13.827 32.205 13.9093 32.6196 14.1123L32.8097 12.9661C32.6395 12.9012 32.0402 12.5195 31.5327 12.5195C30.755 12.5195 30.0976 12.8948 29.6353 13.5142C28.9609 13.297 28.6837 13.7361 28.3438 14.1735L28.042 14.2419C28.0648 14.0979 28.0855 13.9548 28.0785 13.81H27.0114C26.8656 15.1392 26.6072 16.4856 26.4049 17.8164L26.3522 18.105H27.5147C27.7088 16.8787 27.8151 16.0935 27.8797 15.5622L28.3175 15.3253C28.3829 15.0886 28.5876 15.0087 28.9982 15.0183C28.943 15.3088 28.9154 15.6036 28.9158 15.899C28.9158 17.3041 29.6952 18.1789 30.9461 18.1789C31.2683 18.1789 31.5449 18.1376 31.973 18.0248L32.1775 16.8207C31.7923 17.0051 31.4762 17.0919 31.19 17.0919C30.5146 17.0919 30.1058 16.6069 30.1058 15.8052C30.1058 14.6423 30.7137 13.827 31.5813 13.827Z" fill="black"/>
<path id="Vector_5" d="M41.4174 12.8242L41.1599 14.3501C40.8421 13.9434 40.5008 13.649 40.0501 13.649C39.4637 13.649 38.93 14.0814 38.5807 14.7177C38.0943 14.6196 37.5911 14.453 37.5911 14.453L37.5909 14.4569C37.6301 14.1012 37.6457 13.8842 37.6423 13.8105H36.5749C36.4296 15.1396 36.1712 16.486 35.9693 17.8168L35.916 18.1054H37.0783C37.2353 17.1138 37.3556 16.2904 37.444 15.6375C37.8411 15.2885 38.0398 14.984 38.441 15.0043C38.2634 15.4222 38.1593 15.9035 38.1593 16.3973C38.1593 17.471 38.7178 18.1793 39.5626 18.1793C39.9884 18.1793 40.3151 18.0365 40.6339 17.7054L40.5795 18.1047H41.6786L42.5636 12.8242H41.4174ZM39.9643 17.1129C39.5687 17.1129 39.369 16.8281 39.369 16.2662C39.369 15.4222 39.743 14.8235 40.2701 14.8235C40.6693 14.8235 40.8855 15.1195 40.8855 15.6649C40.8855 16.5164 40.5057 17.1129 39.9643 17.1129Z" fill="black"/>
<g id="Group 2286">
<path id="Vector_6" d="M31.7961 13.2848C31.4663 13.2999 31.0952 13.2848 30.3942 13.4362L30.2292 14.3739C30.4906 14.3439 31.1915 14.2229 31.5625 14.2377C31.9338 14.2529 32.346 14.1925 32.2222 14.8429C31.9473 14.8733 30.0232 14.5403 29.7209 16.3554C29.5971 17.2483 30.298 17.7018 30.8478 17.6715C31.3975 17.641 31.5484 17.5658 31.7411 17.4144L31.8787 17.6566H32.8818L33.3081 15.297C33.418 14.7071 33.5965 13.2848 31.7961 13.2848ZM31.9612 16.1889C31.8919 16.5829 31.3843 16.8339 31.0405 16.6882C30.683 16.5367 30.779 16.0832 31.1226 15.826C31.4663 15.5689 31.8649 15.6896 32.0437 15.7203L31.9612 16.1889ZM28.8 13.421C29.1572 13.421 29.3497 13.4511 29.6244 13.6327L30.3255 12.8611C30.0507 12.5282 29.7345 12.2012 28.8548 12.1651C28.1129 12.1351 26.8412 12.7312 26.436 14.3587C25.8861 16.5671 27.0956 17.6565 28.2089 17.6565C28.8 17.6565 29.1572 17.5658 29.5147 17.3839L29.1986 16.3254C28.0992 16.7336 27.3156 16.1132 27.4943 14.8579C27.6455 13.7968 28.4428 13.421 28.8 13.421ZM17.7226 15.372C17.5165 15.2211 17.1729 15.0093 16.953 14.9031C16.7331 14.7975 16.5681 14.389 16.9668 14.2681C17.214 14.2376 17.7226 14.2376 18.0251 14.3285L18.2723 13.451C17.7637 13.2393 17.3652 13.2848 17.214 13.2848C17.0629 13.2848 15.7758 13.2674 15.5785 14.3133C15.4274 15.1148 15.6942 15.4468 15.9496 15.5688C16.3621 15.7656 16.5958 15.947 16.8156 16.0681C17.0876 16.2173 17.0378 16.7185 16.6781 16.7185C16.513 16.7185 15.7984 16.8092 15.2624 16.6124L15.1113 17.5049C15.6061 17.6564 16.0044 17.6564 16.3759 17.6564C16.6369 17.6564 17.915 17.7321 18.0935 16.431C18.1809 15.7965 17.9286 15.5081 17.7226 15.372ZM23.6874 15.7203C23.811 15.0242 24.0998 13.2999 22.2169 13.2999C20.4852 13.2999 20.2653 15.1906 20.2241 15.4627C20.1829 15.7353 20.1553 17.6564 22.0105 17.6564C22.4644 17.6713 23.1238 17.611 23.3852 17.4595L23.5501 16.567C23.3852 16.6124 22.7668 16.6732 22.3406 16.6732C21.9146 16.6732 21.2275 16.7036 21.3509 15.7203H23.6874ZM22.272 14.1469C22.6978 14.1469 22.8216 14.51 22.7529 14.9335H21.4196C21.5434 14.389 21.8456 14.1469 22.272 14.1469ZM25.4638 13.7839L25.3676 13.3605H24.4465L23.7185 17.6564H24.7904L25.1203 15.6896C25.4361 14.4044 25.9447 14.4948 26.2058 14.4948L26.4808 13.3605C25.9445 13.3605 25.6285 13.572 25.4638 13.7839Z" fill="white"/>
<path id="Vector_7" d="M35.0617 13.7417L34.9647 13.3138H34.0347L33.2988 17.6531H34.3817L34.715 15.6664C35.0342 14.3683 35.5338 14.4444 35.7976 14.4444L36.0891 13.3139C35.5478 13.3138 35.2284 13.5275 35.0617 13.7417ZM10.2055 12.4225L8.89961 15.5995L8.69345 12.4225H6.97552L6.05469 17.6566H7.12663L7.78626 13.8747L8.07491 17.6566H9.09213L10.5903 13.9656L9.95783 17.6566H11.0713L11.9646 12.4225H10.2055ZM19.4273 16.0529L19.7299 14.2983H20.2796L20.4719 13.3605H19.8948L20.1146 12.2109H19.0425L18.3006 16.3254C18.0942 17.505 18.9053 17.6714 19.1526 17.6714C19.4 17.6714 19.7161 17.626 19.9497 17.4596L20.0186 16.5826C19.4 16.6883 19.3723 16.3858 19.4273 16.0529ZM35.8924 15.1455C35.5436 16.4598 36.2496 17.6566 37.0193 17.6566C37.3767 17.6411 37.7339 17.4751 37.9538 17.3088L38.0915 17.6566H39.2459L40.1804 12.1504H39.0533L38.7649 13.8143C38.5584 13.648 38.435 13.3001 37.9264 13.3001C37.3355 13.3 36.4144 13.1791 35.8924 15.1455ZM38.3112 14.5255C38.4301 14.6999 38.4901 15.1908 38.38 15.584C38.1875 16.1133 37.9404 16.4615 37.5416 16.4615C37.1708 16.4615 36.841 15.9922 36.9919 15.3722C37.2232 14.4242 37.9816 14.0414 38.3112 14.5255ZM13.6551 13.285C13.3252 13.3001 12.9543 13.285 12.2531 13.4364L12.0882 14.3741C12.3495 14.344 13.0505 14.223 13.4214 14.2379C13.7927 14.2531 14.2048 14.1926 14.081 14.8431C13.8061 14.8735 11.8822 14.5405 11.5799 16.3555C11.456 17.2484 12.1569 17.702 12.7067 17.6717C13.2565 17.6412 13.4076 17.566 13.6002 17.4146L13.7377 17.6568H14.7408L15.167 15.2972C15.2769 14.7072 15.4554 13.285 13.6551 13.285ZM13.8201 16.189C13.7509 16.5831 13.2432 16.834 12.8991 16.6884C12.5417 16.5369 12.6378 16.0834 12.9815 15.8262C13.3252 15.5691 13.7238 15.6897 13.9025 15.7205L13.8201 16.189Z" fill="white"/>
</g>
</g>
</g>
</g>
</svg>
