<svg width="48" height="27" viewBox="0 0 48 27" fill="none" xmlns="http://www.w3.org/2000/svg">
<rect x="0.509766" y="0.5" width="46.51" height="26" rx="2" fill="#AEADAD"/>
<path d="M23.3689 6.4C24.7289 6.4 25.8156 6.77333 26.6289 7.52C27.4556 8.26667 27.8689 9.28667 27.8689 10.58C27.8689 11.9267 27.4422 12.94 26.5889 13.62C25.7356 14.3 24.6022 14.64 23.1889 14.64L23.1089 16.22H21.1289L21.0289 13.08H21.6889C22.9822 13.08 23.9689 12.9067 24.6489 12.56C25.3422 12.2133 25.6889 11.5533 25.6889 10.58C25.6889 9.87333 25.4822 9.32 25.0689 8.92C24.6689 8.52 24.1089 8.32 23.3889 8.32C22.6689 8.32 22.1022 8.51333 21.6889 8.9C21.2756 9.28667 21.0689 9.82667 21.0689 10.52H18.9289C18.9289 9.72 19.1089 9.00667 19.4689 8.38C19.8289 7.75333 20.3422 7.26667 21.0089 6.92C21.6889 6.57333 22.4756 6.4 23.3689 6.4ZM22.0889 20.64C21.6756 20.64 21.3289 20.5 21.0489 20.22C20.7689 19.94 20.6289 19.5933 20.6289 19.18C20.6289 18.7667 20.7689 18.42 21.0489 18.14C21.3289 17.86 21.6756 17.72 22.0889 17.72C22.4889 17.72 22.8289 17.86 23.1089 18.14C23.3889 18.42 23.5289 18.7667 23.5289 19.18C23.5289 19.5933 23.3889 19.94 23.1089 20.22C22.8289 20.5 22.4889 20.64 22.0889 20.64Z" fill="white"/>
</svg>
