<svg width="47" height="29" viewBox="0 0 47 29" fill="none" xmlns="http://www.w3.org/2000/svg">
<g id="visa 1" clip-path="url(#clip0_7094_100149)">
<g id="Group 2282">
<path id="Vector" d="M3.33855 1.09375H42.6225C43.8623 1.09375 44.8673 2.05408 44.8673 3.23866V25.7602C44.8673 26.9448 43.8623 27.9051 42.6225 27.9051H3.33855C2.0988 27.9051 1.09375 26.9448 1.09375 25.7602V3.23866C1.09375 2.05408 2.0988 1.09375 3.33855 1.09375Z" fill="white"/>
<path id="Vector_2" d="M43.5005 0.0234375H2.70503C1.20246 0.0234375 -0.015625 1.24153 -0.015625 2.74409V26.0349C-0.015625 27.5374 1.20246 28.7555 2.70503 28.7555H43.5005C45.0031 28.7555 46.2212 27.5374 46.2212 26.0349V2.74409C46.2212 1.24153 45.0031 0.0234375 43.5005 0.0234375ZM8.75546 20.6281L5.74022 9.82043C4.69788 9.24246 3.50859 8.77791 2.17879 8.45578L2.22052 8.19722H7.69099C8.42719 8.22467 9.02305 8.45957 9.22796 9.24742L10.4158 14.966L10.7706 16.6898L14.0912 8.20481H17.683L12.3435 20.6233L8.75546 20.6281ZM20.3243 20.6377H16.9355L19.0549 8.19586H22.4476L20.3243 20.6377ZM26.2274 20.8226C24.7056 20.8074 23.2408 20.5067 22.4495 20.1595L22.9257 17.374L23.3621 17.5713C24.476 18.0362 25.1969 18.2241 26.5537 18.2241C27.5291 18.2241 28.5745 17.8436 28.584 17.0098C28.5897 16.4652 28.1457 16.0761 26.825 15.4661C25.5385 14.8712 23.8346 13.8731 23.8536 12.0858C23.8745 9.667 26.235 7.97967 29.5858 7.97967C30.9008 7.97967 31.9539 8.25005 32.6256 8.50246L32.1665 11.1992L31.8609 11.0554C31.2366 10.8031 30.4322 10.5611 29.324 10.5788C27.9957 10.5788 27.381 11.1318 27.381 11.6489C27.3734 12.232 28.1 12.6157 29.286 13.1916C31.2423 14.0801 32.1455 15.157 32.1322 16.5715C32.1058 19.1547 29.7927 20.8226 26.2274 20.8226ZM40.9195 20.6423C40.9195 20.6423 40.6083 19.2135 40.5078 18.7781C40.0125 18.7781 36.5534 18.7724 36.1644 18.7724C36.0317 19.1092 35.451 20.6423 35.451 20.6423H31.8894L36.9254 9.23948C37.2821 8.42922 37.8892 8.20779 38.7014 8.20779H41.3218L44.0674 20.6423H40.9195Z" fill="#0E4595"/>
<path id="Vector_3" d="M7.67874 8.20898H2.23062L2.1875 8.50198C6.42602 9.66765 9.57429 12.5861 10.6686 16.1427L9.30071 9.30306C9.09618 8.4114 8.41256 8.24013 7.67874 8.20898Z" fill="#F2AE14"/>
</g>
<path id="Vector_4" d="M38.9413 11.5625C38.7705 12.0298 38.4726 12.7836 38.4916 12.7503C38.4916 12.7503 37.4214 15.5116 37.1406 16.2289H39.9565C39.8199 15.6055 39.171 12.6356 39.171 12.6356L38.9413 11.5625Z" fill="#0E4595"/>
</g>
<defs>
<clipPath id="clip0_7094_100149">
<rect width="46.5094" height="29" fill="white"/>
</clipPath>
</defs>
</svg>
