<svg width="16" height="21" viewBox="0 0 16 21" fill="none" xmlns="http://www.w3.org/2000/svg">
<path id="bolt" d="M0.973704 9.37716L5.12955 1.42168C5.42119 0.863403 6.08277 0.609889 6.67567 0.83106L12.8463 3.13287C13.3952 3.33766 13.6729 3.94571 13.4681 4.49469C13.4244 4.61181 13.3574 4.72439 13.2762 4.81917L9.89694 8.70338L14.9952 10.6052C15.7345 10.881 16.1145 11.7064 15.8373 12.4494C15.7363 12.7202 15.5575 12.9537 15.3205 13.1196L4.44979 20.7799C4.11644 21.0141 3.69181 21.0684 3.31484 20.9277L3.2087 20.8882C2.63409 20.6738 2.34038 20.0306 2.55472 19.456C2.58612 19.3718 2.6285 19.2917 2.68187 19.2157L6.97825 12.9512L1.70799 10.9852C1.06019 10.7436 0.732055 10.025 0.973704 9.37716Z" fill="#4BAF66"/>
</svg>
