<svg width="19" height="21" viewBox="0 0 19 21" fill="none" xmlns="http://www.w3.org/2000/svg">
<path d="M5.82031 0.71875C6.51172 0.71875 7.07031 1.27734 7.07031 1.96875V3.21875H12.0703V1.96875C12.0703 1.27734 12.6289 0.71875 13.3203 0.71875C14.0117 0.71875 14.5703 1.27734 14.5703 1.96875V3.21875H16.4453C17.4805 3.21875 18.3203 4.05859 18.3203 5.09375V6.96875H0.820312V5.09375C0.820312 4.05859 1.66016 3.21875 2.69531 3.21875H4.57031V1.96875C4.57031 1.27734 5.12891 0.71875 5.82031 0.71875ZM0.820312 8.21875H18.3203V18.8438C18.3203 19.8789 17.4805 20.7188 16.4453 20.7188H2.69531C1.66016 20.7188 0.820312 19.8789 0.820312 18.8438V8.21875ZM13.6719 12.6328C14.0391 12.2656 14.0391 11.6719 13.6719 11.3086C13.3047 10.9453 12.7109 10.9414 12.3477 11.3086L8.63672 15.0195L6.80078 13.1836C6.43359 12.8164 5.83984 12.8164 5.47656 13.1836C5.11328 13.5508 5.10938 14.1445 5.47656 14.5078L7.97656 17.0078C8.34375 17.375 8.9375 17.375 9.30078 17.0078L13.6719 12.6328Z" fill="#F5722E"/>
</svg>
