<svg width="22" height="21" viewBox="0 0 22 21" fill="none" xmlns="http://www.w3.org/2000/svg">
<g clip-path="url(#clip0_10538_20490)">
<path d="M7.25 0.708984C7.94141 0.708984 8.5 1.26758 8.5 1.95898V3.20898H13.5V1.95898C13.5 1.26758 14.0586 0.708984 14.75 0.708984C15.4414 0.708984 16 1.26758 16 1.95898V3.20898H17.875C18.9102 3.20898 19.75 4.04883 19.75 5.08398V6.95898H2.25V5.08398C2.25 4.04883 3.08984 3.20898 4.125 3.20898H6V1.95898C6 1.26758 6.55859 0.708984 7.25 0.708984ZM2.25 8.20898H19.75V18.834C19.75 19.8691 18.9102 20.709 17.875 20.709H4.125C3.08984 20.709 2.25 19.8691 2.25 18.834V8.20898ZM15.1016 12.623C15.4688 12.2559 15.4688 11.6621 15.1016 11.2988C14.7344 10.9355 14.1406 10.9316 13.7773 11.2988L10.0664 15.0098L8.23047 13.1738C7.86328 12.8066 7.26953 12.8066 6.90625 13.1738C6.54297 13.541 6.53906 14.1348 6.90625 14.498L9.40625 16.998C9.77344 17.3652 10.3672 17.3652 10.7305 16.998L15.1016 12.623Z" fill="#4BAF66"/>
</g>
<defs>
<clipPath id="clip0_10538_20490">
<rect width="22" height="20" fill="white" transform="translate(0 0.708984)"/>
</clipPath>
</defs>
</svg>
