<svg width="20" height="20" viewBox="0 0 20 20" fill="none" xmlns="http://www.w3.org/2000/svg">
<g clip-path="url(#clip0_10686_140633)">
<path d="M1.44444 1C0.0961806 1 -1 2.15313 -1 3.57143V4.85714H21V3.57143C21 2.15313 19.9038 1 18.5556 1H1.44444ZM21 8.71429H-1V16.4286C-1 17.8469 0.0961806 19 1.44444 19H18.5556C19.9038 19 21 17.8469 21 16.4286V8.71429ZM3.27778 13.8571H5.72222C6.05833 13.8571 6.33333 14.1464 6.33333 14.5C6.33333 14.8536 6.05833 15.1429 5.72222 15.1429H3.27778C2.94167 15.1429 2.66667 14.8536 2.66667 14.5C2.66667 14.1464 2.94167 13.8571 3.27778 13.8571ZM7.55556 14.5C7.55556 14.1464 7.83056 13.8571 8.16667 13.8571H13.0556C13.3917 13.8571 13.6667 14.1464 13.6667 14.5C13.6667 14.8536 13.3917 15.1429 13.0556 15.1429H8.16667C7.83056 15.1429 7.55556 14.8536 7.55556 14.5Z" fill="#4BAF66"/>
</g>
<defs>
<clipPath id="clip0_10686_140633">
<rect width="20" height="20" fill="white"/>
</clipPath>
</defs>
</svg>
