<svg width="20" height="19" viewBox="0 0 20 19" fill="none" xmlns="http://www.w3.org/2000/svg">
<g id="Primary" filter="url(#filter0_bd_5410_1665)">
<path d="M6.56445 14.0332C5.97852 13.8223 5.32617 13.9121 4.82227 14.2832C4.50195 14.5176 3.95117 14.8613 3.2832 15.1699C3.50195 14.5957 3.66992 13.9473 3.72461 13.2402C3.76367 12.7363 3.5957 12.2363 3.26367 11.8535C2.35352 10.8262 1.86914 9.62305 1.86914 8.37305C1.86914 5.26758 5.12305 2.12305 9.99414 2.12305C14.8652 2.12305 18.1191 5.26758 18.1191 8.37305C18.1191 11.4785 14.8652 14.623 9.99414 14.623C8.75977 14.623 7.59961 14.4082 6.56445 14.0332ZM1.02148 15.5527C0.958984 15.6582 0.892578 15.7637 0.822266 15.8691L0.810547 15.8887C0.748047 15.9785 0.685547 16.0684 0.623047 16.1582C0.486328 16.3418 0.337891 16.5215 0.181641 16.6855C0.00195314 16.8652 -0.0488281 17.1309 0.0488281 17.3652C0.146484 17.5996 0.373047 17.752 0.626953 17.752C0.826172 17.752 1.02539 17.7402 1.22461 17.7207L1.25195 17.7168C1.42383 17.6973 1.5957 17.6738 1.76758 17.6426C1.79883 17.6387 1.83008 17.6309 1.86133 17.623C2.55664 17.4863 3.22461 17.252 3.81836 16.9941C4.71289 16.6035 5.47461 16.1387 5.93945 15.7988C7.18164 16.248 8.55664 16.498 10.0059 16.498C15.5293 16.498 20.0059 12.8613 20.0059 8.37305C20.0059 3.88477 15.5176 0.248047 9.99414 0.248047C4.4707 0.248047 -0.00585938 3.88477 -0.00585938 8.37305C-0.00585938 10.1348 0.685547 11.7637 1.85742 13.0957C1.7832 14.0527 1.41211 14.9043 1.02148 15.5527ZM5.61914 9.62305C5.95066 9.62305 6.2686 9.49135 6.50302 9.25693C6.73744 9.02251 6.86914 8.70457 6.86914 8.37305C6.86914 8.04153 6.73744 7.72358 6.50302 7.48916C6.2686 7.25474 5.95066 7.12305 5.61914 7.12305C5.28762 7.12305 4.96968 7.25474 4.73526 7.48916C4.50084 7.72358 4.36914 8.04153 4.36914 8.37305C4.36914 8.70457 4.50084 9.02251 4.73526 9.25693C4.96968 9.49135 5.28762 9.62305 5.61914 9.62305ZM11.2441 8.37305C11.2441 8.04153 11.1124 7.72358 10.878 7.48916C10.6436 7.25474 10.3257 7.12305 9.99414 7.12305C9.66262 7.12305 9.34468 7.25474 9.11026 7.48916C8.87584 7.72358 8.74414 8.04153 8.74414 8.37305C8.74414 8.70457 8.87584 9.02251 9.11026 9.25693C9.34468 9.49135 9.66262 9.62305 9.99414 9.62305C10.3257 9.62305 10.6436 9.49135 10.878 9.25693C11.1124 9.02251 11.2441 8.70457 11.2441 8.37305ZM14.3691 9.62305C14.7007 9.62305 15.0186 9.49135 15.253 9.25693C15.4874 9.02251 15.6191 8.70457 15.6191 8.37305C15.6191 8.04153 15.4874 7.72358 15.253 7.48916C15.0186 7.25474 14.7007 7.12305 14.3691 7.12305C14.0376 7.12305 13.7197 7.25474 13.4853 7.48916C13.2508 7.72358 13.1191 8.04153 13.1191 8.37305C13.1191 8.70457 13.2508 9.02251 13.4853 9.25693C13.7197 9.49135 14.0376 9.62305 14.3691 9.62305Z" fill="#4BAF66"/>
</g>
<defs>
<filter id="filter0_bd_5410_1665" x="-7.00586" y="-6.75195" width="34.0117" height="32.5039" filterUnits="userSpaceOnUse" color-interpolation-filters="sRGB">
<feFlood flood-opacity="0" result="BackgroundImageFix"/>
<feGaussianBlur in="BackgroundImageFix" stdDeviation="3.5"/>
<feComposite in2="SourceAlpha" operator="in" result="effect1_backgroundBlur_5410_1665"/>
<feColorMatrix in="SourceAlpha" type="matrix" values="0 0 0 0 0 0 0 0 0 0 0 0 0 0 0 0 0 0 127 0" result="hardAlpha"/>
<feOffset dy="4"/>
<feGaussianBlur stdDeviation="2"/>
<feComposite in2="hardAlpha" operator="out"/>
<feColorMatrix type="matrix" values="0 0 0 0 0 0 0 0 0 0 0 0 0 0 0 0 0 0 0.25 0"/>
<feBlend mode="normal" in2="effect1_backgroundBlur_5410_1665" result="effect2_dropShadow_5410_1665"/>
<feBlend mode="normal" in="SourceGraphic" in2="effect2_dropShadow_5410_1665" result="shape"/>
</filter>
</defs>
</svg>
