<svg width="20" height="20" viewBox="0 0 20 20" fill="none" xmlns="http://www.w3.org/2000/svg">
<g id="gift" clip-path="url(#clip0_5410_1672)">
<g id="Primary" filter="url(#filter0_bd_5410_1672)">
<path d="M7.44141 2.6875L8.80078 5H8.75H5.9375C5.07422 5 4.375 4.30078 4.375 3.4375C4.375 2.57422 5.07422 1.875 5.9375 1.875H6.02344C6.60547 1.875 7.14844 2.18359 7.44141 2.6875ZM2.5 3.4375C2.5 4 2.63672 4.53125 2.875 5H1.25C0.558594 5 0 5.55859 0 6.25V8C0 8.69141 0.308594 9 1 9H18.5C19.1914 9 20 8.69141 20 8V6.25C20 5.55859 19.4414 5 18.75 5H17.125C17.3633 4.53125 17.5 4 17.5 3.4375C17.5 1.53906 15.9609 0 14.0625 0H13.9766C12.7305 0 11.5742 0.660156 10.9414 1.73438L10 3.33984L9.05859 1.73828C8.42578 0.660156 7.26953 0 6.02344 0H5.9375C4.03906 0 2.5 1.53906 2.5 3.4375ZM15.625 3.4375C15.625 4.30078 14.9258 5 14.0625 5H11.25H11.1992L12.5586 2.6875C12.8555 2.18359 13.3945 1.875 13.9766 1.875H14.0625C14.9258 1.875 15.625 2.57422 15.625 3.4375ZM1.25 10V18.0156C1.25 19.0508 1.96484 19 3 19H9V10H1.25ZM11 19H17C18.0352 19 18.75 19.0352 18.75 18V10H11V19Z" fill="#4BAF66"/>
</g>
<path id="Rectangle 121" d="M12 11H17V17C17 17.5523 16.5523 18 16 18H12V11Z" fill="#F5722E"/>
<path id="Rectangle 122" d="M3 11H8V18H4C3.44772 18 3 17.5523 3 17V11Z" fill="#F5722E"/>
</g>
<defs>
<filter id="filter0_bd_5410_1672" x="-6" y="-6" width="32" height="33.0005" filterUnits="userSpaceOnUse" color-interpolation-filters="sRGB">
<feFlood flood-opacity="0" result="BackgroundImageFix"/>
<feGaussianBlur in="BackgroundImageFix" stdDeviation="3"/>
<feComposite in2="SourceAlpha" operator="in" result="effect1_backgroundBlur_5410_1672"/>
<feColorMatrix in="SourceAlpha" type="matrix" values="0 0 0 0 0 0 0 0 0 0 0 0 0 0 0 0 0 0 127 0" result="hardAlpha"/>
<feOffset dy="4"/>
<feGaussianBlur stdDeviation="2"/>
<feComposite in2="hardAlpha" operator="out"/>
<feColorMatrix type="matrix" values="0 0 0 0 0 0 0 0 0 0 0 0 0 0 0 0 0 0 0.25 0"/>
<feBlend mode="normal" in2="effect1_backgroundBlur_5410_1672" result="effect2_dropShadow_5410_1672"/>
<feBlend mode="normal" in="SourceGraphic" in2="effect2_dropShadow_5410_1672" result="shape"/>
</filter>
<clipPath id="clip0_5410_1672">
<rect width="20" height="20" fill="white"/>
</clipPath>
</defs>
</svg>
