<svg width="20" height="17" viewBox="0 0 20 17" fill="none" xmlns="http://www.w3.org/2000/svg">
<path d="M10.1062 1.31115L7.08125 4.57813C6.57812 5.11985 6.48125 6.09495 6.8625 6.79085C7.26562 7.53258 8.05 7.67843 8.59062 7.11588L11.6938 3.8989C11.9125 3.67388 12.225 3.72388 12.3969 4.01558C12.5688 4.30727 12.5281 4.72398 12.3094 4.95317L11.6562 5.62823L16 10.9621V3.09466H15.9781L15.8562 2.99048L13.5875 1.05279C13.1094 0.644422 12.55 0.427734 11.9812 0.427734C11.3 0.427734 10.6375 0.740264 10.1062 1.31115ZM10.8188 6.49498L9.20312 8.17015C8.21875 9.19524 6.79063 8.92855 6.05312 7.57842C5.35938 6.30747 5.53437 4.5323 6.45 3.5447L9.05 0.740264C8.6875 0.536078 8.29688 0.431901 7.9 0.431901C7.3125 0.427734 6.74062 0.66109 6.25 1.09447L4 3.09466V12.4289H4.88125L7.7375 15.9042C8.35 16.6501 9.29688 16.5918 9.85625 15.775C10.0281 15.5209 10.1438 15.225 10.2031 14.9166L10.7344 15.5667C11.3438 16.3126 12.2937 16.2584 12.8531 15.4458C12.9937 15.2417 13.0969 15.0041 13.1625 14.7583C13.7688 15.3 14.5938 15.1875 15.1031 14.4457C15.6625 13.6332 15.6219 12.3664 15.0125 11.6205L10.8188 6.49498ZM0.5 3.09466C0.225 3.09466 0 3.39469 0 3.76139V12.4289C0 13.1665 0.446875 13.7624 1 13.7624H2C2.55312 13.7624 3 13.1665 3 12.4289V3.09466H0.5ZM1.5 11.0954C1.63261 11.0954 1.75979 11.1657 1.85355 11.2907C1.94732 11.4157 2 11.5853 2 11.7622C2 11.939 1.94732 12.1086 1.85355 12.2336C1.75979 12.3586 1.63261 12.4289 1.5 12.4289C1.36739 12.4289 1.24021 12.3586 1.14645 12.2336C1.05268 12.1086 1 11.939 1 11.7622C1 11.5853 1.05268 11.4157 1.14645 11.2907C1.24021 11.1657 1.36739 11.0954 1.5 11.0954ZM17 3.09466V12.4289C17 13.1665 17.4469 13.7624 18 13.7624H19C19.5531 13.7624 20 13.1665 20 12.4289V3.76139C20 3.39469 19.775 3.09466 19.5 3.09466H17ZM18 11.7622C18 11.5853 18.0527 11.4157 18.1464 11.2907C18.2402 11.1657 18.3674 11.0954 18.5 11.0954C18.6326 11.0954 18.7598 11.1657 18.8536 11.2907C18.9473 11.4157 19 11.5853 19 11.7622C19 11.939 18.9473 12.1086 18.8536 12.2336C18.7598 12.3586 18.6326 12.4289 18.5 12.4289C18.3674 12.4289 18.2402 12.3586 18.1464 12.2336C18.0527 12.1086 18 11.939 18 11.7622Z" fill="#F5722E"/>
</svg>
