<svg width="20" height="15" viewBox="0 0 20 15" fill="none" xmlns="http://www.w3.org/2000/svg">
<path d="M10.1062 1.37951L7.08125 4.64649C6.57812 5.18821 6.48125 6.16331 6.8625 6.85921C7.26562 7.60094 8.05 7.74679 8.59062 7.18424L11.6938 3.96726C11.9125 3.74224 12.225 3.79224 12.3969 4.08394C12.5688 4.37563 12.5281 4.79234 12.3094 5.02153L11.6562 5.69659L16 11.0304V3.16302H15.9781L15.8562 3.05884L13.5875 1.12115C13.1094 0.712781 12.55 0.496094 11.9812 0.496094C11.3 0.496094 10.6375 0.808624 10.1062 1.37951ZM10.8188 6.56334L9.20312 8.2385C8.21875 9.2636 6.79063 8.99691 6.05312 7.64678C5.35938 6.37583 5.53437 4.60066 6.45 3.61306L9.05 0.808624C8.6875 0.604437 8.29688 0.500261 7.9 0.500261C7.3125 0.496094 6.74062 0.72945 6.25 1.16282L4 3.16302V12.4972H4.88125L7.7375 15.9726C8.35 16.7185 9.29688 16.6601 9.85625 15.8434C10.0281 15.5892 10.1438 15.2934 10.2031 14.985L10.7344 15.635C11.3438 16.381 12.2937 16.3268 12.8531 15.5142C12.9937 15.31 13.0969 15.0725 13.1625 14.8266C13.7688 15.3684 14.5938 15.2558 15.1031 14.5141C15.6625 13.7015 15.6219 12.4347 15.0125 11.6888L10.8188 6.56334ZM0.5 3.16302C0.225 3.16302 0 3.46305 0 3.82975V12.4972C0 13.2348 0.446875 13.8307 1 13.8307H2C2.55312 13.8307 3 13.2348 3 12.4972V3.16302H0.5ZM1.5 11.1638C1.63261 11.1638 1.75979 11.234 1.85355 11.3591C1.94732 11.4841 2 11.6537 2 11.8305C2 12.0073 1.94732 12.1769 1.85355 12.302C1.75979 12.427 1.63261 12.4972 1.5 12.4972C1.36739 12.4972 1.24021 12.427 1.14645 12.302C1.05268 12.1769 1 12.0073 1 11.8305C1 11.6537 1.05268 11.4841 1.14645 11.3591C1.24021 11.234 1.36739 11.1638 1.5 11.1638ZM17 3.16302V12.4972C17 13.2348 17.4469 13.8307 18 13.8307H19C19.5531 13.8307 20 13.2348 20 12.4972V3.82975C20 3.46305 19.775 3.16302 19.5 3.16302H17ZM18 11.8305C18 11.6537 18.0527 11.4841 18.1464 11.3591C18.2402 11.234 18.3674 11.1638 18.5 11.1638C18.6326 11.1638 18.7598 11.234 18.8536 11.3591C18.9473 11.4841 19 11.6537 19 11.8305C19 12.0073 18.9473 12.1769 18.8536 12.302C18.7598 12.427 18.6326 12.4972 18.5 12.4972C18.3674 12.4972 18.2402 12.427 18.1464 12.302C18.0527 12.1769 18 12.0073 18 11.8305Z" fill="#F5722E"/>
</svg>
