<svg width="22" height="13" viewBox="0 0 22 13" fill="none" xmlns="http://www.w3.org/2000/svg">
<path d="M0.0703125 5.96875C0.0703125 2.83984 2.20313 0.300781 4.83141 0.300781C6.09469 0.300781 7.30547 0.898438 8.19797 1.96094L10.5703 4.78125L12.9394 1.96094C13.8352 0.898438 15.0459 0.300781 16.3092 0.300781C18.9375 0.300781 21.0703 2.83984 21.0703 5.96875V7.12891C21.0703 10.2617 18.9375 12.8008 16.3092 12.8008C15.0459 12.8008 13.8352 12.2031 12.9427 11.1406L10.5703 8.32031L8.20125 11.1406C7.30547 12.2031 6.09469 12.8008 4.83141 12.8008C2.20313 12.8008 0.0703125 10.2617 0.0703125 7.13281V5.97266V5.96875ZM9.08391 6.55078L6.71484 3.73047C6.21609 3.13672 5.53687 2.80078 4.83141 2.80078C3.36141 2.80078 2.17031 4.21875 2.17031 5.96875V7.12891C2.17031 8.87891 3.36141 10.2969 4.83141 10.2969C5.53687 10.2969 6.21609 9.96484 6.71484 9.36719L9.08391 6.55078ZM12.0534 6.55078L14.4225 9.37109C14.9212 9.96484 15.6005 10.3008 16.3059 10.3008C17.7759 10.3008 18.967 8.88281 18.967 7.13281V5.97266C18.967 4.22266 17.7759 2.80469 16.3059 2.80469C15.6005 2.80469 14.9212 3.13672 14.4225 3.73437L12.0567 6.55078H12.0534Z" fill="#F5722E"/>
</svg>
