<svg width="18" height="18" viewBox="0 0 18 18" fill="none" xmlns="http://www.w3.org/2000/svg">
<g id="Vector" filter="url(#filter0_bd_5410_1650)">
<path d="M9 9.9C8.13958 9.9 7.41406 9.59625 6.82344 8.98875C6.23281 8.38125 5.9375 7.635 5.9375 6.75C5.9375 5.865 6.23281 5.11875 6.82344 4.51125C7.41406 3.90375 8.13958 3.6 9 3.6C9.86042 3.6 10.5859 3.90375 11.1766 4.51125C11.7672 5.11875 12.0625 5.865 12.0625 6.75C12.0625 7.635 11.7672 8.38125 11.1766 8.98875C10.5859 9.59625 9.86042 9.9 9 9.9ZM9 8.1C9.37917 8.1 9.69271 7.9725 9.94062 7.7175C10.1885 7.4625 10.3125 7.14 10.3125 6.75C10.3125 6.36 10.1885 6.0375 9.94062 5.7825C9.69271 5.5275 9.37917 5.4 9 5.4C8.62083 5.4 8.30729 5.5275 8.05937 5.7825C7.81146 6.0375 7.6875 6.36 7.6875 6.75C7.6875 7.14 7.81146 7.4625 8.05937 7.7175C8.30729 7.9725 8.62083 8.1 9 8.1ZM9 18C6.97292 17.475 5.29948 16.2788 3.97969 14.4113C2.6599 12.5438 2 10.47 2 8.19V2.7L9 0L16 2.7V8.19C16 10.47 15.3401 12.5438 14.0203 14.4113C12.7005 16.2788 11.0271 17.475 9 18ZM9 1.9125L3.75 3.9375V8.19C3.75 9 3.85938 9.7875 4.07812 10.5525C4.29688 11.3175 4.59583 12.0375 4.975 12.7125C5.5875 12.3975 6.22917 12.15 6.9 11.97C7.57083 11.79 8.27083 11.7 9 11.7C9.72917 11.7 10.4292 11.79 11.1 11.97C11.7708 12.15 12.4125 12.3975 13.025 12.7125C13.4042 12.0375 13.7031 11.3175 13.9219 10.5525C14.1406 9.7875 14.25 9 14.25 8.19V3.9375L9 1.9125ZM9 13.5C8.475 13.5 7.96458 13.56 7.46875 13.68C6.97292 13.8 6.49896 13.965 6.04688 14.175C6.46979 14.625 6.92917 15.015 7.425 15.345C7.92083 15.675 8.44583 15.93 9 16.11C9.55417 15.93 10.0792 15.675 10.575 15.345C11.0708 15.015 11.5302 14.625 11.9531 14.175C11.501 13.965 11.0271 13.8 10.5312 13.68C10.0354 13.56 9.525 13.5 9 13.5Z" fill="#4BAF66"/>
</g>
<defs>
<filter id="filter0_bd_5410_1650" x="-5" y="-7" width="28" height="33" filterUnits="userSpaceOnUse" color-interpolation-filters="sRGB">
<feFlood flood-opacity="0" result="BackgroundImageFix"/>
<feGaussianBlur in="BackgroundImageFix" stdDeviation="3.5"/>
<feComposite in2="SourceAlpha" operator="in" result="effect1_backgroundBlur_5410_1650"/>
<feColorMatrix in="SourceAlpha" type="matrix" values="0 0 0 0 0 0 0 0 0 0 0 0 0 0 0 0 0 0 127 0" result="hardAlpha"/>
<feOffset dy="4"/>
<feGaussianBlur stdDeviation="2"/>
<feComposite in2="hardAlpha" operator="out"/>
<feColorMatrix type="matrix" values="0 0 0 0 0 0 0 0 0 0 0 0 0 0 0 0 0 0 0.25 0"/>
<feBlend mode="normal" in2="effect1_backgroundBlur_5410_1650" result="effect2_dropShadow_5410_1650"/>
<feBlend mode="normal" in="SourceGraphic" in2="effect2_dropShadow_5410_1650" result="shape"/>
</filter>
</defs>
</svg>
