<svg width="18" height="20" viewBox="0 0 18 20" fill="none" xmlns="http://www.w3.org/2000/svg">
<g id="icon" filter="url(#filter0_bd_5410_1640)">
<path d="M6.11129 3.10253L6.23649 3.16828C6.7425 3.44223 7.15461 3.87508 7.41545 4.40655L7.47805 4.53804C7.72845 5.05856 8.43791 5.05856 8.69352 4.53804L8.75612 4.40655C9.01695 3.87508 9.42907 3.44223 9.93508 3.16828L10.0603 3.10253C10.5559 2.83953 10.5559 2.09438 10.0603 1.8259L9.93508 1.76015C9.42907 1.4862 9.01695 1.05335 8.75612 0.521882L8.69352 0.390384C8.44312 -0.130128 7.73366 -0.130128 7.47805 0.390384L7.41545 0.521882C7.15461 1.05335 6.7425 1.4862 6.23649 1.76015L6.11129 1.8259C5.61571 2.0889 5.61571 2.83405 6.11129 3.10253Z" fill="#4BAF66"/>
<path d="M7.09723 8.23642C7.60846 7.96247 7.60846 7.20088 7.09723 6.92692L6.3356 6.51599C5.65744 6.14889 5.10448 5.56811 4.75496 4.85583L4.36372 4.05589C4.10288 3.51894 3.37777 3.51894 3.11694 4.05589L2.72569 4.85583C2.37618 5.56811 1.82321 6.14889 1.14505 6.51599L0.383423 6.92692C-0.127808 7.20088 -0.127808 7.96247 0.383423 8.23642L1.14505 8.64735C1.82321 9.01445 2.37618 9.59523 2.72569 10.3075L3.11694 11.1075C3.37777 11.6444 4.10288 11.6444 4.36372 11.1075L4.75496 10.3075C5.10448 9.59523 5.65744 9.01445 6.3356 8.64735L7.09723 8.23642Z" fill="#4BAF66"/>
<path d="M16.8836 11.5129L16.1116 11.0965C15.1778 10.5979 14.4318 9.8144 13.9571 8.83364L13.5606 8.02274C13.2111 7.2995 12.5121 6.85022 11.74 6.85022C10.968 6.85022 10.2689 7.2995 9.91943 8.02274L9.52297 8.83364C9.04825 9.8144 8.30227 10.5979 7.3685 11.0965L6.59643 11.5129C5.90784 11.88 5.48007 12.6142 5.48007 13.4251C5.48007 14.236 5.90784 14.9702 6.59643 15.3373L7.3685 15.7537C8.30227 16.2523 9.04825 17.0358 9.52297 18.0166L9.91943 18.8275C10.2689 19.5507 10.968 20 11.74 20C12.5121 20 13.2111 19.5507 13.5606 18.8275L13.9571 18.0166C14.4318 17.0358 15.1778 16.2523 16.1116 15.7537L16.8836 15.3373C17.5722 14.9702 18 14.236 18 13.4251C18 12.6142 17.5722 11.88 16.8836 11.5129ZM16.1742 13.8744L15.4021 14.2908C14.171 14.9483 13.1903 15.9784 12.5643 17.2714L12.1678 18.0823C12.0478 18.3289 11.8287 18.3563 11.74 18.3563C11.6514 18.3563 11.4323 18.3289 11.3123 18.0823L10.9158 17.2714C10.2898 15.9784 9.30908 14.9483 8.07796 14.2908L7.3059 13.8744C7.07115 13.7484 7.04507 13.5183 7.04507 13.4251C7.04507 13.332 7.07115 13.1018 7.3059 12.9758L8.07796 12.5594C9.30908 11.9019 10.2898 10.8719 10.9158 9.5788L11.3123 8.76789C11.4323 8.52133 11.6514 8.49394 11.74 8.49394C11.8287 8.49394 12.0478 8.52133 12.1678 8.76789L12.5643 9.5788C13.1903 10.8719 14.171 11.9019 15.4021 12.5594L16.1742 12.9758C16.4089 13.1018 16.435 13.332 16.435 13.4251C16.435 13.5183 16.4089 13.7484 16.1742 13.8744Z" fill="#4BAF66"/>
</g>
<defs>
<filter id="filter0_bd_5410_1640" x="-7" y="-7" width="32" height="35" filterUnits="userSpaceOnUse" color-interpolation-filters="sRGB">
<feFlood flood-opacity="0" result="BackgroundImageFix"/>
<feGaussianBlur in="BackgroundImageFix" stdDeviation="3.5"/>
<feComposite in2="SourceAlpha" operator="in" result="effect1_backgroundBlur_5410_1640"/>
<feColorMatrix in="SourceAlpha" type="matrix" values="0 0 0 0 0 0 0 0 0 0 0 0 0 0 0 0 0 0 127 0" result="hardAlpha"/>
<feOffset dy="4"/>
<feGaussianBlur stdDeviation="2"/>
<feComposite in2="hardAlpha" operator="out"/>
<feColorMatrix type="matrix" values="0 0 0 0 0 0 0 0 0 0 0 0 0 0 0 0 0 0 0.25 0"/>
<feBlend mode="normal" in2="effect1_backgroundBlur_5410_1640" result="effect2_dropShadow_5410_1640"/>
<feBlend mode="normal" in="SourceGraphic" in2="effect2_dropShadow_5410_1640" result="shape"/>
</filter>
</defs>
</svg>
