<svg width="20" height="17" viewBox="0 0 20 17" fill="none" xmlns="http://www.w3.org/2000/svg">
<g id="Primary" filter="url(#filter0_bd_5410_1645)">
<path d="M12.3836 0.0993039C11.0406 -0.289824 9.63789 0.499142 9.25469 1.86287L9.0543 2.57687C8.92422 3.04097 8.68867 3.46937 8.36875 3.82636L6.56523 5.83983C6.25234 6.18969 6.27695 6.73233 6.62148 7.05006C6.96602 7.36779 7.50039 7.3428 7.81328 6.99294L9.6168 4.97947C10.1125 4.42612 10.4746 3.76567 10.675 3.04811L10.8754 2.33411C11.002 1.88072 11.4695 1.61655 11.9195 1.74507C12.3695 1.87358 12.6262 2.34839 12.4996 2.80535L12.2992 3.51935C12.0988 4.22977 11.7824 4.90093 11.3641 5.50069C11.1812 5.76129 11.1602 6.10401 11.3043 6.38961C11.4484 6.67521 11.7367 6.85371 12.0531 6.85371H16.75C17.0594 6.85371 17.3125 7.11075 17.3125 7.42491C17.3125 7.66766 17.1613 7.87829 16.9469 7.9604C16.6867 8.06036 16.4898 8.2817 16.423 8.55659C16.3563 8.83148 16.4266 9.12065 16.6094 9.33127C16.6973 9.43123 16.75 9.56332 16.75 9.70969C16.75 9.98815 16.5531 10.2202 16.293 10.2702C16.0047 10.3273 15.7621 10.5308 15.6602 10.8128C15.5582 11.0948 15.6039 11.409 15.7867 11.6446C15.8605 11.741 15.9062 11.8624 15.9062 11.9981C15.9062 12.2372 15.7586 12.4479 15.5477 12.53C15.1434 12.6906 14.9254 13.1333 15.0414 13.5581C15.0555 13.6045 15.0625 13.6581 15.0625 13.7116C15.0625 14.0258 14.8094 14.2828 14.5 14.2828H11.0723C10.6293 14.2828 10.1934 14.1507 9.82422 13.9009L7.65508 12.4336C7.26836 12.1694 6.74453 12.2765 6.48438 12.6728C6.22422 13.069 6.32969 13.5974 6.71992 13.8616L8.88906 15.3288C9.53594 15.768 10.2953 16 11.0723 16H14.5C15.7199 16 16.7113 15.0147 16.75 13.7866C17.2633 13.3689 17.5938 12.7263 17.5938 12.0016C17.5938 11.841 17.5762 11.6875 17.548 11.5375C18.0895 11.1198 18.4375 10.4594 18.4375 9.71683C18.4375 9.48478 18.4023 9.25988 18.3391 9.04925C18.7469 8.62799 19 8.05679 19 7.42491C19 6.1647 17.9945 5.14012 16.75 5.14012H13.5051C13.6703 4.76884 13.8109 4.38328 13.9199 3.99058L14.1203 3.27659C14.5035 1.91285 13.7266 0.488432 12.3836 0.0993039ZM2.125 5.71131C1.50273 5.71131 1 6.22182 1 6.85371V14.8505C1 15.4824 1.50273 15.9929 2.125 15.9929H4.375C4.99727 15.9929 5.5 15.4824 5.5 14.8505V6.85371C5.5 6.22182 4.99727 5.71131 4.375 5.71131H2.125Z" fill="#4BAF66"/>
</g>
<defs>
<filter id="filter0_bd_5410_1645" x="-6" y="-7" width="32" height="31" filterUnits="userSpaceOnUse" color-interpolation-filters="sRGB">
<feFlood flood-opacity="0" result="BackgroundImageFix"/>
<feGaussianBlur in="BackgroundImageFix" stdDeviation="3.5"/>
<feComposite in2="SourceAlpha" operator="in" result="effect1_backgroundBlur_5410_1645"/>
<feColorMatrix in="SourceAlpha" type="matrix" values="0 0 0 0 0 0 0 0 0 0 0 0 0 0 0 0 0 0 127 0" result="hardAlpha"/>
<feOffset dy="4"/>
<feGaussianBlur stdDeviation="2"/>
<feComposite in2="hardAlpha" operator="out"/>
<feColorMatrix type="matrix" values="0 0 0 0 0 0 0 0 0 0 0 0 0 0 0 0 0 0 0.25 0"/>
<feBlend mode="normal" in2="effect1_backgroundBlur_5410_1645" result="effect2_dropShadow_5410_1645"/>
<feBlend mode="normal" in="SourceGraphic" in2="effect2_dropShadow_5410_1645" result="shape"/>
</filter>
</defs>
</svg>
