<svg width="20" height="14" viewBox="0 0 20 14" fill="none" xmlns="http://www.w3.org/2000/svg">
<g clip-path="url(#clip0_9955_125302)">
<path d="M0 6.41797C0 3.28906 2.03125 0.75 4.53438 0.75C5.7375 0.75 6.89062 1.34766 7.74062 2.41016L10 5.23047L12.2563 2.41016C13.1094 1.34766 14.2625 0.75 15.4656 0.75C17.9688 0.75 20 3.28906 20 6.41797V7.57812C20 10.7109 17.9688 13.25 15.4656 13.25C14.2625 13.25 13.1094 12.6523 12.2594 11.5898L10 8.76953L7.74375 11.5898C6.89062 12.6523 5.7375 13.25 4.53438 13.25C2.03125 13.25 0 10.7109 0 7.58203V6.42188V6.41797ZM8.58438 7L6.32812 4.17969C5.85313 3.58594 5.20625 3.25 4.53438 3.25C3.13438 3.25 2 4.66797 2 6.41797V7.57812C2 9.32812 3.13438 10.7461 4.53438 10.7461C5.20625 10.7461 5.85313 10.4141 6.32812 9.81641L8.58438 7ZM11.4125 7L13.6687 9.82031C14.1438 10.4141 14.7906 10.75 15.4625 10.75C16.8625 10.75 17.9969 9.33203 17.9969 7.58203V6.42188C17.9969 4.67188 16.8625 3.25391 15.4625 3.25391C14.7906 3.25391 14.1438 3.58594 13.6687 4.18359L11.4156 7H11.4125Z" fill="#4BAF66"/>
</g>
<defs>
<clipPath id="clip0_9955_125302">
<rect width="20" height="12.5" fill="white" transform="translate(0 0.75)"/>
</clipPath>
</defs>
</svg>
