<svg width="25" height="25" viewBox="0 0 25 25" fill="none" xmlns="http://www.w3.org/2000/svg">
<g clip-path="url(#clip0_3217_54189)">
<path d="M12.5 25C19.4036 25 25 19.4036 25 12.5C25 5.59644 19.4036 0 12.5 0C5.59644 0 0 5.59644 0 12.5C0 19.4036 5.59644 25 12.5 25Z" fill="#F0F0F0"/>
<path d="M12.501 0V12.5L3.66211 21.3389C5.92417 23.6009 9.04917 25 12.501 25C19.4045 25 25.001 19.4035 25.001 12.5C25.001 5.59648 12.501 0 12.501 0Z" fill="#D80027"/>
<path d="M12.501 0C9.04917 0 5.92417 1.39912 3.66211 3.66113C6.729 6.72803 7.81773 7.8168 12.501 12.5H25.001C25.001 5.59649 19.4045 0 12.501 0Z" fill="#0052B4"/>
<path d="M8.56006 12.4999L7.03349 11.7818L7.84643 10.3033L6.18872 10.6205L5.97866 8.9458L4.82397 10.1774L3.66934 8.9458L3.45923 10.6205L1.80156 10.3033L2.6145 11.7818L1.08789 12.4999L2.6145 13.2179L1.80156 14.6964L3.45937 14.3793L3.66929 16.0539L4.82397 14.8223L5.97866 16.0539L6.18872 14.3793L7.84634 14.6964L7.03345 13.218L8.56006 12.4999Z" fill="#FFDA44"/>
<path d="M3.33496 4.89111L3.84297 5.60122L4.67524 5.3376L4.15679 6.04014L4.66479 6.75024L3.83638 6.47432L3.31797 7.17681L3.32446 6.30376L2.49609 6.02778L3.32852 5.76416L3.33496 4.89111Z" fill="#FFDA44"/>
<path d="M3.33496 17.8228L3.84297 18.5329L4.67524 18.2692L4.15679 18.9718L4.66479 19.6819L3.83638 19.406L3.31797 20.1084L3.32446 19.2354L2.49609 18.9594L3.32852 18.6958L3.33496 17.8228Z" fill="#FFDA44"/>
<path d="M10.5805 11.3569L10.0726 12.067L9.24023 11.8033L9.75869 12.5059L9.25068 13.2161L10.0791 12.9401L10.5976 13.6426L10.591 12.7696L11.4194 12.4936L10.587 12.23L10.5805 11.3569Z" fill="#FFDA44"/>
</g>
<defs>
<clipPath id="clip0_3217_54189">
<rect width="25" height="25" fill="white"/>
</clipPath>
</defs>
</svg>
