<svg width="100" height="160" viewBox="0 0 100 160" fill="none" xmlns="http://www.w3.org/2000/svg">
<rect x="19.2139" y="94.0605" width="59" height="2" transform="rotate(0.188459 19.2139 94.0605)" fill="white"/>
<path d="M25.5311 83.7467C25.5276 84.8134 25.2576 85.8152 24.7212 86.7521C24.2061 87.689 23.4355 88.4758 22.4094 89.1125C21.4047 89.7492 20.2088 90.1292 18.8217 90.2527L18.8131 92.8447L16.7332 92.8378L16.7417 90.2458C14.737 90.0472 13.1177 89.4126 11.8839 88.3418C10.6501 87.2711 10.0361 85.8611 10.0418 84.1118L13.9458 84.1246C14.0071 84.9568 14.2715 85.651 14.739 86.2072C15.2065 86.7421 15.8774 87.0856 16.7516 87.2378L16.7747 80.1979C15.3466 79.8305 14.1851 79.464 13.2903 79.0984C12.3956 78.7115 11.6296 78.1116 10.9922 77.2989C10.3762 76.4862 10.0706 75.3758 10.0752 73.9678C10.081 72.1972 10.7045 70.7379 11.9456 69.5899C13.1868 68.4207 14.8104 67.7434 16.8163 67.558L16.8248 64.966L18.9048 64.9728L18.8963 67.5648C20.7731 67.7416 22.2751 68.3439 23.4024 69.3716C24.5511 70.3781 25.1972 71.7669 25.3407 73.538L21.4367 73.5252C21.3749 72.8636 21.1208 72.2761 20.6745 71.7627C20.2283 71.2279 19.6321 70.8632 18.8861 70.6688L18.8634 77.5807C20.2916 77.9268 21.453 78.2933 22.3478 78.6802C23.2426 79.0458 23.998 79.635 24.614 80.4477C25.23 81.239 25.5357 82.3387 25.5311 83.7467ZM13.7878 73.788C13.7849 74.6627 14.0387 75.3462 14.5491 75.8385C15.0808 76.331 15.8261 76.7281 16.7852 77.0299L16.8064 70.5659C15.8887 70.6696 15.1517 70.9978 14.5952 71.5507C14.06 72.1036 13.7909 72.8494 13.7878 73.788ZM18.8316 87.2447C19.7707 87.0984 20.5079 86.7275 21.0432 86.132C21.5786 85.515 21.8477 84.7799 21.8505 83.9266C21.8533 83.0733 21.5888 82.4111 21.057 81.94C20.5466 81.4476 19.8119 81.0505 18.8529 80.7487L18.8316 87.2447ZM82.7619 34.4947L52.8101 34.3962L52.7665 47.6441C54.0511 46.2403 55.8469 45.0942 58.1538 44.2058C60.4608 43.3174 62.9582 42.8776 65.6462 42.8864C70.4462 42.9022 74.4106 44.0033 77.5394 46.1896C80.7323 48.3761 83.059 51.1998 84.5196 54.6606C85.9802 58.1214 86.7039 61.8678 86.6906 65.8998C86.666 73.3877 84.5344 79.3328 80.2959 83.7348C76.0577 88.0729 70.0985 90.2293 62.4186 90.2041C57.2986 90.1872 52.8535 89.3086 49.0832 87.5682C45.3131 85.7638 42.4092 83.2902 40.3715 80.1475C38.3339 77.0048 37.2258 73.3851 37.0472 69.2885L53.0791 69.3412C53.4566 71.3265 54.3791 72.9935 55.8467 74.3424C57.3145 75.6272 59.3284 76.2738 61.8884 76.2823C64.8963 76.2921 67.1395 75.3395 68.6178 73.4244C70.0961 71.5092 70.8405 68.9517 70.851 65.7517C70.8614 62.6157 70.1013 60.2132 68.5707 58.5441C67.0402 56.8751 64.803 56.0357 61.859 56.026C59.683 56.0189 57.8892 56.557 56.4776 57.6404C55.0663 58.6597 54.1338 60.0327 53.6801 61.7592L37.8402 61.7071L37.9775 19.9473L82.8093 20.0948L82.7619 34.4947ZM22.656 105.156C22.8552 104.812 23.1495 104.527 23.5389 104.301C23.9356 104.068 24.3943 103.952 24.915 103.954C25.4503 103.956 25.9339 104.085 26.3657 104.344C26.8049 104.602 27.1484 104.966 27.3962 105.436C27.644 105.899 27.7669 106.438 27.7648 107.054C27.7628 107.663 27.6364 108.205 27.3855 108.681C27.1346 109.157 26.7887 109.526 26.3478 109.789C25.9143 110.051 25.4299 110.182 24.8945 110.18C24.3812 110.178 23.9269 110.063 23.5317 109.834C23.1438 109.598 22.8477 109.308 22.6435 108.962L22.6305 112.933L21.6295 112.93L21.6587 104.042L22.6597 104.045L22.656 105.156ZM26.7418 107.051C26.7433 106.596 26.653 106.2 26.4707 105.862C26.2885 105.524 26.04 105.266 25.7253 105.089C25.4179 104.912 25.0772 104.823 24.7032 104.822C24.3365 104.821 23.9952 104.911 23.6793 105.094C23.3707 105.269 23.1205 105.528 22.9287 105.872C22.7443 106.209 22.6513 106.601 22.6498 107.048C22.6483 107.503 22.7387 107.903 22.9209 108.248C23.1104 108.586 23.3589 108.847 23.6663 109.032C23.9811 109.209 24.3218 109.298 24.6884 109.299C25.0624 109.3 25.4037 109.213 25.7123 109.038C26.0282 108.856 26.2784 108.597 26.4629 108.26C26.6473 107.916 26.7403 107.513 26.7418 107.051ZM34.5831 106.868C34.5824 107.058 34.5708 107.26 34.5481 107.472L29.7301 107.457C29.7648 108.051 29.965 108.517 30.3305 108.856C30.7034 109.187 31.1539 109.353 31.6819 109.355C32.1145 109.357 32.4742 109.259 32.7608 109.062C33.0549 108.857 33.2611 108.587 33.3795 108.25L34.4575 108.253C34.2943 108.832 33.9701 109.304 33.4849 109.669C32.9997 110.027 32.3978 110.204 31.6791 110.202C31.1071 110.2 30.5942 110.07 30.1404 109.812C29.6939 109.554 29.3431 109.19 29.088 108.72C28.8329 108.242 28.7063 107.692 28.7084 107.068C28.7104 106.445 28.8369 105.899 29.0878 105.431C29.3386 104.962 29.6882 104.604 30.1363 104.356C30.5918 104.101 31.1129 103.974 31.6996 103.976C32.2716 103.978 32.7772 104.104 33.2163 104.355C33.6555 104.606 33.9917 104.952 34.2249 105.392C34.4655 105.826 34.5849 106.318 34.5831 106.868ZM33.5498 106.655C33.551 106.274 33.4678 105.947 33.3 105.675C33.1322 105.396 32.9019 105.186 32.6091 105.046C32.3235 104.898 32.0048 104.824 31.6528 104.823C31.1468 104.821 30.7136 104.981 30.3532 105.303C30.0001 105.624 29.797 106.071 29.7438 106.643L33.5498 106.655ZM36.9113 105.071C37.0884 104.727 37.3386 104.46 37.6619 104.271C37.9925 104.081 38.3925 103.987 38.8619 103.989L38.8585 105.023L38.5945 105.022C37.4725 105.018 36.9095 105.625 36.9055 106.842L36.8947 110.12L35.8937 110.117L35.9135 104.089L36.9145 104.092L36.9113 105.071ZM50.1989 104.026C50.6683 104.027 51.0859 104.128 51.4519 104.327C51.818 104.519 52.1067 104.81 52.3181 105.199C52.5295 105.588 52.6342 106.062 52.6324 106.619L52.6207 110.172L51.6307 110.169L51.6419 106.759C51.6439 106.157 51.4951 105.699 51.1955 105.382C50.9032 105.059 50.5041 104.896 49.9981 104.894C49.4774 104.893 49.0625 105.06 48.7534 105.396C48.4443 105.725 48.2888 106.205 48.2867 106.836L48.2757 110.158L47.2858 110.154L47.297 106.744C47.2989 106.143 47.1501 105.684 46.8505 105.368C46.5582 105.044 46.1591 104.882 45.6531 104.88C45.1324 104.878 44.7175 105.046 44.4084 105.382C44.0994 105.711 43.9438 106.191 43.9417 106.821L43.9308 110.143L42.9298 110.14L42.9496 104.112L43.9506 104.115L43.9477 104.984C44.1468 104.67 44.4116 104.429 44.7421 104.261C45.08 104.093 45.4506 104.01 45.854 104.012C46.3599 104.013 46.8069 104.128 47.1948 104.357C47.5827 104.586 47.8713 104.92 48.0605 105.361C48.2306 104.936 48.5103 104.607 48.8998 104.374C49.2892 104.14 49.7223 104.024 50.1989 104.026ZM56.8914 110.285C56.3267 110.283 55.8138 110.153 55.3527 109.895C54.8988 109.637 54.5407 109.273 54.2782 108.802C54.0231 108.325 53.8966 107.774 53.8987 107.151C53.9007 106.535 54.0345 105.993 54.3 105.524C54.5729 105.049 54.9408 104.687 55.4036 104.439C55.8664 104.184 56.3839 104.057 56.9559 104.059C57.5279 104.061 58.0444 104.191 58.5056 104.449C58.9668 104.7 59.3286 105.061 59.591 105.531C59.8608 106.001 59.9947 106.548 59.9926 107.171C59.9906 107.795 59.8495 108.344 59.5692 108.82C59.2963 109.288 58.9248 109.65 58.4546 109.905C57.9845 110.16 57.4634 110.287 56.8914 110.285ZM56.8943 109.405C57.2536 109.406 57.5912 109.323 57.9071 109.155C58.223 108.988 58.4768 108.736 58.6686 108.399C58.8677 108.062 58.9681 107.652 58.9696 107.168C58.9712 106.684 58.8773 106.273 58.6877 105.935C58.4981 105.597 58.2496 105.347 57.9422 105.184C57.6347 105.015 57.3013 104.929 56.942 104.928C56.5753 104.927 56.2377 105.01 55.9292 105.178C55.628 105.338 55.3852 105.587 55.2007 105.923C55.0163 106.26 54.9233 106.671 54.9217 107.155C54.9201 107.646 55.0067 108.06 55.1816 108.398C55.3638 108.736 55.605 108.99 55.9051 109.16C56.2052 109.322 56.5349 109.404 56.8943 109.405ZM64.256 104.072C64.9893 104.075 65.5826 104.3 66.0358 104.749C66.489 105.191 66.7142 105.829 66.7115 106.665L66.6998 110.218L65.7098 110.215L65.721 106.805C65.723 106.204 65.5742 105.745 65.2745 105.429C64.9749 105.105 64.5648 104.942 64.0441 104.94C63.5161 104.939 63.0939 105.102 62.7775 105.431C62.4684 105.76 62.3129 106.24 62.3108 106.871L62.2998 110.204L61.2988 110.2L61.3186 104.173L62.3196 104.176L62.3168 105.034C62.5158 104.726 62.7843 104.489 63.1222 104.321C63.4674 104.154 63.8453 104.071 64.256 104.072ZM69.573 105.025L69.5613 108.578C69.5604 108.871 69.622 109.08 69.7463 109.205C69.8706 109.323 70.0867 109.382 70.3947 109.383L71.1317 109.386L71.1289 110.233L70.2269 110.23C69.6696 110.228 69.252 110.098 68.9742 109.841C68.6964 109.583 68.5584 109.161 68.5603 108.574L68.572 105.021L67.791 105.019L67.7937 104.194L68.5747 104.196L68.5797 102.678L69.5807 102.682L69.5757 104.2L71.1487 104.205L71.146 105.03L69.573 105.025ZM75.3539 104.109C75.8086 104.11 76.2189 104.211 76.5849 104.41C76.951 104.602 77.236 104.892 77.4401 105.282C77.6514 105.671 77.7562 106.144 77.7544 106.702L77.7427 110.255L76.7527 110.251L76.7639 106.841C76.7659 106.24 76.6171 105.781 76.3174 105.465C76.0178 105.141 75.6077 104.979 75.087 104.977C74.559 104.975 74.1368 105.139 73.8204 105.468C73.5113 105.797 73.3558 106.276 73.3537 106.907L73.3427 110.24L72.3417 110.237L72.3685 102.097L73.3695 102.1L73.3597 105.07C73.5587 104.763 73.8309 104.525 74.1761 104.358C74.5286 104.19 74.9212 104.107 75.3539 104.109Z" fill="white"/>
</svg>
