<svg width="154" height="57" viewBox="0 0 154 57" fill="none" xmlns="http://www.w3.org/2000/svg">
<path d="M38.2752 14.2729L35.3615 10L10 47.1881H15.8275L38.2752 14.2729Z" fill="url(#paint0_linear_1448_6258)"/>
<path d="M44.4219 23.1629L41.5306 18.9131L22.2935 47.1883H28.0761L44.4219 23.1629Z" fill="url(#paint1_linear_1448_6258)"/>
<path d="M54.9981 47.1882H61.0182L45.5872 24.7524L42.5779 29.1292L54.9981 47.1882Z" fill="#263238"/>
<path d="M40.8392 47.4953H46.5735L38.3757 35.8164L35.5093 39.8997L40.8392 47.4953Z" fill="#263238"/>
<path d="M65.0503 46.9982C64.4765 46.9982 63.9909 46.8157 63.5953 46.4489C63.1978 46.0839 63 45.6231 63 45.0684V20.9298C63 20.3751 63.1978 19.9143 63.5953 19.5493C63.9928 19.1843 64.4765 19 65.0503 19C65.624 19 66.143 19.1825 66.5268 19.5493C66.9086 19.9161 67.1005 20.3751 67.1005 20.9298V45.0702C67.1005 45.6249 66.9086 46.0857 66.5268 46.4507C66.143 46.8157 65.6514 47 65.0503 47V46.9982ZM78.376 27.0209C78.9223 27.0209 79.3864 27.2233 79.7702 27.6262C80.1521 28.0292 80.344 28.4339 80.344 28.8369C80.344 29.341 80.0836 29.809 79.5646 30.2372L66.7324 40.8312L66.5679 36.4801L76.9014 27.6262C77.3381 27.2233 77.8296 27.0209 78.3779 27.0209H78.376ZM78.9106 46.9602C78.3368 46.9602 77.8296 46.747 77.393 46.317L69.233 38.334L72.3486 35.6851L80.344 43.668C80.7807 44.0981 81 44.5769 81 45.1063C81 45.6358 80.7611 46.1092 80.2833 46.4489C79.8055 46.7886 79.3473 46.9602 78.9086 46.9602H78.9106Z" fill="#263238"/>
<path d="M102.031 26.1537C102.609 26.1537 103.081 26.3386 103.449 26.7101C103.816 27.0816 104 27.5464 104 28.1082V44.663C104 45.2248 103.816 45.6915 103.449 46.0612C103.081 46.4308 102.609 46.6175 102.031 46.6175C101.454 46.6175 100.982 46.4327 100.614 46.0612C100.245 45.6915 100.063 45.2248 100.063 44.663V41.9033L100.89 42.057C100.89 42.4925 100.7 42.9958 100.319 43.5705C99.9387 44.1451 99.4198 44.6886 98.7636 45.1992C98.1074 45.7098 97.3327 46.138 96.4415 46.4821C95.5484 46.8261 94.5913 47 93.5666 47C91.7559 47 90.1277 46.5461 88.6855 45.6403C87.2415 44.7344 86.1002 43.4881 85.2598 41.9033C84.4193 40.3203 84 38.5176 84 36.5009C84 34.4842 84.4193 32.612 85.2598 31.04C86.1002 29.468 87.234 28.2363 88.6649 27.3414C90.0957 26.4484 91.677 26 93.4087 26C94.5368 26 95.5803 26.1793 96.5392 26.5362C97.4963 26.8949 98.3311 27.3542 99.04 27.9161C99.7488 28.4779 100.3 29.0727 100.693 29.6986C101.086 30.3244 101.283 30.9192 101.283 31.481L100.063 31.5963V28.1082C100.063 27.572 100.247 27.1127 100.614 26.7284C100.98 26.3459 101.454 26.1537 102.031 26.1537ZM93.9991 43.4735C95.2325 43.4735 96.3211 43.166 97.2669 42.5529C98.2127 41.9399 98.9459 41.1035 99.4724 40.0421C99.997 38.9825 100.26 37.8003 100.26 36.4973C100.26 35.1942 99.997 34.0139 99.4724 32.9524C98.9478 31.8928 98.2127 31.062 97.2669 30.4617C96.3211 29.8614 95.2325 29.5613 93.9991 29.5613C92.7656 29.5613 91.7221 29.8614 90.7895 30.4617C89.8569 31.062 89.1217 31.8855 88.584 32.9341C88.0463 33.9827 87.7774 35.1705 87.7774 36.4973C87.7774 37.8241 88.0463 38.9825 88.584 40.0421C89.1217 41.1017 89.8569 41.9399 90.7895 42.5529C91.7202 43.166 92.7901 43.4735 93.9991 43.4735Z" fill="#263238"/>
<path d="M121.08 43.4816C121.624 43.4816 122.081 43.6478 122.448 43.9783C122.815 44.3106 123 44.7305 123 45.2399C123 45.7493 122.817 46.1382 122.448 46.4833C122.079 46.8284 121.624 47 121.08 47H107.882C107.283 47 106.813 46.8028 106.473 46.4066C106.132 46.0122 105.976 45.6233 106.003 45.2399C106.03 44.9332 106.077 44.6611 106.145 44.4183C106.214 44.1755 106.37 43.9016 106.616 43.5967L117.566 30.0619L117.525 30.5585H108.454C107.909 30.5585 107.453 30.3869 107.086 30.0418C106.719 29.6986 106.534 29.2713 106.534 28.7601C106.534 28.2762 106.717 27.8618 107.086 27.5167C107.453 27.1735 107.909 27 108.454 27H120.996C121.54 27 121.997 27.1844 122.366 27.555C122.733 27.9239 122.891 28.3894 122.836 28.95C122.836 29.1545 122.801 29.3644 122.735 29.5817C122.666 29.799 122.51 30.0473 122.264 30.3266L111.519 43.708L111.355 43.478H121.08V43.4816Z" fill="#F5722E"/>
<path d="M143.031 26.1537C143.609 26.1537 144.081 26.3386 144.449 26.7101C144.816 27.0816 145 27.5464 145 28.1082V44.663C145 45.2248 144.816 45.6915 144.449 46.0612C144.081 46.4308 143.609 46.6175 143.031 46.6175C142.454 46.6175 141.982 46.4327 141.614 46.0612C141.245 45.6915 141.063 45.2248 141.063 44.663V41.9033L141.89 42.057C141.89 42.4925 141.7 42.9958 141.319 43.5705C140.939 44.1451 140.42 44.6886 139.764 45.1992C139.107 45.7098 138.333 46.138 137.441 46.4821C136.548 46.8261 135.591 47 134.567 47C132.756 47 131.128 46.5461 129.686 45.6403C128.242 44.7344 127.1 43.4881 126.26 41.9033C125.419 40.3203 125 38.5176 125 36.5009C125 34.4842 125.419 32.612 126.26 31.04C127.1 29.468 128.234 28.2363 129.665 27.3414C131.096 26.4484 132.677 26 134.409 26C135.537 26 136.58 26.1793 137.539 26.5362C138.496 26.8949 139.331 27.3542 140.04 27.9161C140.749 28.4779 141.3 29.0727 141.693 29.6986C142.086 30.3244 142.283 30.9192 142.283 31.481L141.063 31.5963V28.1082C141.063 27.572 141.247 27.1127 141.614 26.7284C141.98 26.3459 142.454 26.1537 143.031 26.1537ZM135.001 43.4735C136.234 43.4735 137.323 43.166 138.269 42.5529C139.215 41.9399 139.948 41.1035 140.474 40.0421C140.999 38.9825 141.262 37.8003 141.262 36.4973C141.262 35.1942 140.999 34.0139 140.474 32.9524C139.95 31.8928 139.215 31.062 138.269 30.4617C137.323 29.8614 136.234 29.5613 135.001 29.5613C133.768 29.5613 132.724 29.8614 131.791 30.4617C130.859 31.062 130.124 31.8855 129.586 32.9341C129.048 33.9827 128.779 35.1705 128.779 36.4973C128.779 37.8241 129.048 38.9825 129.586 40.0421C130.124 41.1017 130.859 41.9399 131.791 42.5529C132.722 43.166 133.792 43.4735 135.001 43.4735Z" fill="#263238"/>
<defs>
<linearGradient id="paint0_linear_1448_6258" x1="24.1376" y1="10" x2="24.1376" y2="47.1881" gradientUnits="userSpaceOnUse">
<stop stop-color="#F5722E"/>
<stop offset="1" stop-color="#8C4227"/>
</linearGradient>
<linearGradient id="paint1_linear_1448_6258" x1="33.3577" y1="18.9131" x2="33.3577" y2="47.1883" gradientUnits="userSpaceOnUse">
<stop stop-color="#F5722E"/>
<stop offset="1" stop-color="#8C4227"/>
</linearGradient>
</defs>
</svg>
