<?xml version="1.0" encoding="UTF-8"?>
<svg version="1.1" viewBox="0 0 1830 420" xmlns="http://www.w3.org/2000/svg">
<path transform="translate(485.61 12.596)" d="m0 0c1.3616-0.019026 1.3616-0.019026 2.7507-0.038437 1.4595 0.0044035 1.4595 0.0044035 2.9485 0.0088959 1.5088-0.0078628 1.5088-0.0078628 3.0481-0.015884 2.1249-0.0064183 4.2499-0.0050857 6.3748 0.0034332 3.2529 0.0085142 6.5041-0.020262 9.7568-0.052002 2.0651-0.001612 4.1302-0.0010345 6.1953 0.0019531 0.973-0.011234 1.946-0.022468 2.9485-0.034042 1.3616 0.014071 1.3616 0.014071 2.7507 0.028427 1.1944 2.4925e-4 1.1944 2.4925e-4 2.4128 5.0354e-4 3.1628 0.72041 4.2978 1.8933 6.2004 4.5012 0.51898 3.1005 0.51898 3.1005 0.5459 6.7881 0.010338 0.67358 0.020675 1.3472 0.031326 2.0412 0.029415 2.2186 0.030927 4.4363 0.03215 6.6551 0.014983 1.5413 0.03171 3.0826 0.05011 4.6238 0.043677 4.0507 0.063673 8.1013 0.078735 12.152 0.01957 4.136 0.06154 8.2717 0.10162 12.408 0.075306 8.1106 0.12559 16.221 0.16016 24.332 0.54487-0.47993 1.0897-0.95987 1.6511-1.4543 0.71712-0.62995 1.4342-1.2599 2.1731-1.9089 0.70987-0.62431 1.4197-1.2486 2.1511-1.8918 7.8644-6.7776 16.81-9.799 27.025-10.745l1-1c2.3316-0.099093 4.6663-0.12971 7-0.125 1.2788-0.0025781 2.5575-0.0051562 3.875-0.0078125 3.125 0.13281 3.125 0.13281 4.125 1.1328 1.7881 0.33067 3.5774 0.65619 5.3718 0.95117 6.8828 1.1352 12.586 2.4008 18.628 6.0488 0.9075 0.495 1.815 0.99 2.75 1.5 2.4264 1.6176 4.3353 3.3016 6.25 5.5v2c0.99 0.33 1.98 0.66 3 1 13.533 15.843 13.44 36.624 13.293 56.242-0.0056063 2.222-0.0098715 4.444-0.012863 6.666-0.011367 5.8032-0.040763 11.606-0.074112 17.409-0.030878 5.9397-0.044431 11.879-0.059509 17.819-0.03202 11.621-0.083117 23.242-0.14648 34.863h-2l-1 3c-2.71 0.90332-4.3287 1.1349-7.1167 1.1611-0.82451 0.0096075-1.649 0.019215-2.4985 0.029114-1.3313 0.0063748-1.3313 0.0063748-2.6895 0.012878-0.91613 0.0057001-1.8323 0.0114-2.7762 0.017273-1.9384 0.0094453-3.8768 0.015982-5.8152 0.019836-2.9607 0.0097057-5.9208 0.040733-8.8813 0.072266-1.8841 0.0065303-3.7682 0.011781-5.6523 0.015625-0.88348 0.012347-1.767 0.024694-2.6772 0.037415-4.777-0.017256-8.0345-0.21383-11.893-3.3655-1.5649-3.1299-1.1442-6.4668-1.1418-9.9028-0.0034744-0.8165-0.0069489-1.633-0.010529-2.4742-0.0073627-1.7772-0.012705-3.5543-0.016291-5.3315-0.0071611-2.8168-0.022827-5.6335-0.041342-8.4503-0.052473-8.0105-0.10041-16.021-0.11592-24.032-0.010107-4.8979-0.039504-9.7953-0.08132-14.693-0.012282-1.8634-0.017436-3.7268-0.015202-5.5902 0.0023646-2.6162-0.019902-5.2311-0.047522-7.8472 0.0066014-0.76291 0.013203-1.5258 0.020004-2.3118-0.08483-4.9214-1.1769-8.339-3.596-12.63-0.95402-1.7378-0.95402-1.7378-1.954-4.7378-1.6977-1.1017-1.6977-1.1017-4-2l-3-1.625c-6.0556-2.5026-12.753-2.6275-18.855-0.27344-6.1908 3.42-9.705 6.9858-11.724 13.878-0.70459 3.3897-0.59993 6.8286-0.62537 10.278-0.0098996 0.82964-0.019799 1.6593-0.029999 2.5141-0.031546 2.7378-0.056345 5.4756-0.081085 8.2135-0.020575 1.9-0.041572 3.8-0.062973 5.7-0.05516 4.9976-0.1046 9.9953-0.15285 14.993-0.05026 5.1011-0.10592 10.202-0.16113 15.303-0.10751 10.006-0.20897 20.013-0.30664 30.02h-2l-1 3c-2.7275 0.90918-4.3962 1.1397-7.2085 1.177-1.2668 0.019253-1.2668 0.019253-2.5592 0.038895-0.9094 0.0073869-1.8188 0.014774-2.7558 0.022385-0.93833 0.0080718-1.8767 0.016144-2.8434 0.02446-1.9854 0.013829-3.9709 0.024556-5.9564 0.032425-3.0333 0.017229-6.0656 0.061128-9.0986 0.10522-1.9297 0.010126-3.8594 0.018642-5.7891 0.025391-0.90535 0.017508-1.8107 0.035016-2.7435 0.053055-0.85083-0.0029256-1.7017-0.0058511-2.5783-0.0088654-0.74374 0.0058662-1.4875 0.011732-2.2538 0.017776-3.3278-0.73327-4.845-2.0388-7.2135-4.4877-0.49977-2.9278-0.67261-5.2777-0.62819-8.2055-0.0070944-0.83435-0.014189-1.6687-0.021498-2.5283-0.017625-2.8002 5.471e-4 -5.5991 0.018584-8.3993-0.0051371-2.0056-0.012417-4.0111-0.021683-6.0166-0.018548-5.4504-0.0055544-10.9 0.01409-16.351 0.016357-5.6974 0.0075778-11.395 0.0024808-17.092-0.0045238-9.5676 0.011368-19.135 0.039291-28.703 0.032062-11.071 0.032034-22.142 0.014785-33.213-0.015847-10.639-0.0091441-21.278 0.007937-31.918 0.0068837-4.5331 0.0058245-9.066-0.001545-13.599-0.0076438-5.3344 0.0044011-10.668 0.031849-16.003 0.0069046-1.9612 0.0069598-3.9225-2.1553e-4 -5.8837-0.0086464-2.6704 0.0071788-5.3396 0.029449-8.0099-0.0082408-0.78229-0.016482-1.5646-0.024972-2.3706 0.080884-5.2283 0.080884-5.2283 2.4343-7.6886 2.4156-1.1696 4.0399-1.4052 6.7186-1.4234z" fill="#1C3041"/>
<path transform="translate(78.906 68.867)" d="m0 0c1.1859 0.0025781 2.3719 0.0051562 3.5938 0.0078125 1.1859-0.0025781 2.3719-0.0051562 3.5938-0.0078125 2.9062 0.13281 2.9062 0.13281 3.9062 1.1328 1.809 0.27418 3.6225 0.51879 5.4375 0.75 6.2737 0.99215 11.075 3.1558 16.562 6.25 1.2045 0.61186 2.4122 1.2174 3.625 1.8125l2.375 1.1875c0.2475-0.78375 0.495-1.5675 0.75-2.375 1.4605-3.0671 2.1709-3.4221 5.25-4.625 2.0419-0.26743 2.0419-0.26743 4.2302-0.29053 0.82443-0.01276 1.6489-0.025519 2.4983-0.038666 0.88237-0.0022256 1.7647-0.0044513 2.6738-0.0067444 0.91472-0.0066568 1.8294-0.013314 2.7719-0.020172 1.9324-0.010114 3.8648-0.014817 5.7972-0.014496 2.9522-0.0043739 5.9028-0.040708 8.8547-0.078613 1.8796-0.0058683 3.7591-0.0098376 5.6387-0.011719 0.88034-0.014371 1.7607-0.028742 2.6677-0.043549 4.1514 0.030867 6.309 0.15399 9.9009 2.4083 3.0841 3.2874 3.093 5.1697 3.1003 9.5868 0.0063975 1.7498 0.0063975 1.7498 0.012924 3.535-4.5318e-4 1.2863-9.0637e-4 2.5726-0.0013733 3.8978 0.002991 1.3632 0.0063933 2.7265 0.010178 4.0897 0.0088513 3.7087 0.011179 7.4174 0.011816 11.126 9.4839e-4 3.094 0.0046259 6.1879 0.0081721 9.2819 0.0081491 7.2991 0.010584 14.598 0.0098736 21.897-6.0073e-4 7.5333 0.0099492 15.067 0.025744 22.6 0.01307 6.4637 0.01844 12.927 0.017801 19.391-2.5517e-4 3.8622 0.0026066 7.7244 0.013178 11.587 0.0096716 3.6328 0.0097666 7.2655 0.0024834 10.898-0.0015466 1.9697 0.0068077 3.9394 0.01544 5.9091-0.0041945 1.1722-0.008389 2.3444-0.012711 3.552 5.4477e-4 1.0187 0.0010895 2.0375 0.0016508 3.0871-0.25643 2.738-0.77374 4.3552-2.2489 6.6574-2.7573 1.827-4.9587 2.2538-8.2302 2.2747-1.2366 0.014298-1.2366 0.014298-2.4983 0.028885-0.88237-9.1141e-4 -1.7647-0.0018228-2.6738-0.0027618-0.91472 0.0042851-1.8294 0.0085702-2.7719 0.012985-1.9324 0.0057368-3.8648 0.0062484-5.7972 0.0019074-2.952-0.0031587-5.9029 0.020303-8.8547 0.045654-1.8796 0.0022732-3.7591 0.0029764-5.6387 0.0019531-1.3205 0.013815-1.3205 0.013815-2.6677 0.027908-4.7642-0.035858-8.0176-0.25445-11.867-3.3912l-1-2c-2.7594 0.38325-4.6106 0.70198-6.8477 2.4141-9.652 7.112-23.618 8.324-35.152 7.5859l-1-1c-2.1009-0.27573-4.2061-0.51979-6.3125-0.75-12.559-1.734-25.33-7.5167-34.688-16.25v-2c-0.59812-0.26812-1.1962-0.53625-1.8125-0.8125-2.186-1.1867-3.6008-2.2835-5.1875-4.1875v-2c-0.99-0.33-1.98-0.66-3-1-0.6875-2.0625-0.6875-2.0625-1-4h-2c-5.391-8.7277-9.5431-16.941-12-27-0.17588-0.65251-0.35175-1.305-0.53296-1.9773-1.5763-6.2555-1.8143-12.277-1.7795-18.71 0.0041894-1.0578 0.0083789-2.1157 0.012695-3.2056 0.23824-16.553 4.7604-31.432 14.3-45.107h2c0.23719-0.72445 0.47438-1.4489 0.71875-2.1953 5.0177-10.984 18.536-19.092 29.281-23.805 1.1962-0.53625 2.3925-1.0725 3.625-1.625 4.9916-1.8406 10.241-2.3101 15.496-2.9453 3.2316-0.48232 3.5128-1.413 6.7852-1.5625zm-10.906 61.133c-4.7593 6.935-7.774 14.28-6.3125 22.75 0.8749 3.8311 1.9204 7.5708 3.3125 11.25h2l0.5 2.125c2.7353 5.2427 7.7418 7.8606 12.75 10.75 7.7864 2.3359 15.423 2.14 22.707-1.6016 6.0962-3.6712 6.0962-3.6712 9.7305-9.4609l0.3125-1.8125h2c4.3691-10.299 4.8923-17.448 0.875-27.938l-0.875-2.0625h-2c-0.091523-0.58652-0.18305-1.173-0.27734-1.7773-1.547-4.7579-6.4394-7.8707-10.609-10.34-12.398-5.4582-24.958-1.0377-34.113 8.1172z" fill="#1C3041"/>
<path transform="translate(723.06 68.875)" d="m0 0c1.1186-0.0058008 1.1186-0.0058008 2.2598-0.011719 5.5511 0.010084 5.5511 0.010084 6.6777 1.1367 1.4095 0.29509 2.8303 0.53706 4.2539 0.75391 0.854 0.13213 1.708 0.26426 2.5879 0.40039 0.89783 0.13471 1.7957 0.26941 2.7207 0.4082 1.3525 0.20786 1.3525 0.20786 2.7324 0.41992 2.2345 0.34286 4.4695 0.68188 6.7051 1.0176v2l2.9375 0.1875c13.573 2.0128 28.069 15.399 35.996 26.078 1.0664 1.7344 1.0664 1.7344 1.0664 3.7344h2c8.3235 15.006 12.178 26.497 12.188 43.812 0.012246 1.1247 0.024492 2.2494 0.037109 3.4082 0.018475 10.598-1.5254 19.29-6.2246 28.779-0.50273 1.0545-1.0055 2.1089-1.5234 3.1953-4.2 8.6664-4.2 8.6664-6.4766 9.8047-1.1335 2.0167-1.1335 2.0167-2 4h-2l-0.78125 1.7656c-1.3171 2.4147-2.7696 4.0518-4.7188 5.9844-0.60844 0.61359-1.2169 1.2272-1.8438 1.8594-1.6562 1.3906-1.6562 1.3906-3.6562 1.3906v2c-4.9569 3.9545-11.532 9-18 9v2c-17.456 5.4878-17.456 5.4878-25.312 5.8594-1.7228-0.039364-1.7228-0.039364-2.6875 1.1406-2.3107 0.099324-4.6246 0.1297-6.9375 0.125-1.2671 0.0025781-2.5343 0.0051562-3.8398 0.0078125-3.2227-0.13281-3.2227-0.13281-5.2227-1.1328-2.2275-0.24488-4.4571-0.47075-6.6875-0.6875-16.337-1.9264-34.505-10.61-45.062-23.438-0.7425-0.94875-1.485-1.8975-2.25-2.875l-2.6875-2.5625c-2.3136-2.4386-3.3146-4.2624-4.3125-7.4375h-2c-3.8056-6.0359-6.1397-12.036-8.1055-18.887-0.84316-3.0844-0.84316-3.0844-1.9338-5.9038-1.0151-3.3913-1.2191-6.1423-1.2263-9.6743-0.0025781-1.2124-0.0051562-2.4247-0.0078125-3.6738 0.0077344-1.2536 0.015469-2.5072 0.023438-3.7988-0.0077344-1.2497-0.015469-2.4995-0.023438-3.7871 0.013092-6.1629 0.1388-11.481 2.2734-17.275 0.34418-1.1086 0.68836-2.2172 1.043-3.3594 4.2952-12.724 10.503-23.107 20.957-31.641 0.78375-0.80438 1.5675-1.6088 2.375-2.4375 8.7713-8.5625 8.7713-8.5625 12.625-8.5625v-2c10.459-4.946 19.528-8.1524 31.059-9.5703 10.724-1.5666 10.724-1.5666 13.004-1.5547zm-16.062 55.125v2l-2.1875 0.5c-4.017 2.1424-5.9133 5.4186-7.8125 9.5v3h-2c-1.8294 9.1471-1.6079 17.083 3.3242 25.172 4.8057 6.7103 10.369 12.101 18.676 13.828 4.0149 0.22688 7.9842 0.18071 12 0v-2c1.1138-0.14438 2.2275-0.28875 3.375-0.4375 3.4464-0.34622 3.4464-0.34622 5.625-1.5625v-2c0.58395-0.064453 1.1679-0.12891 1.7695-0.19531 3.1384-1.1322 4.0835-2.934 5.918-5.6797 0.60199-0.8843 1.204-1.7686 1.8242-2.6797 4.0305-6.6223 3.3091-15.902 2.4883-23.445-2.5611-8.1935-8.8138-13.658-16-18-8.9061-4.2258-18.672-2.8206-27 2z" fill="#1C3041"/>
<path transform="translate(1620.7 68.863)" d="m0 0c0.74572 0.0038672 1.4914 0.0077344 2.2598 0.011719 0.74186-0.0038672 1.4837-0.0077344 2.248-0.011719 5.5612 0.010084 5.5612 0.010084 7.8145 1.1367 2.1017 0.26968 4.2065 0.51574 6.3125 0.75 9.6772 1.3228 18.039 4.8358 26.688 9.25v2c1.65 0.66 3.3 1.32 5 2v2c0.73477 0.23848 1.4695 0.47695 2.2266 0.72266 9.7689 4.4992 16.967 17.648 21.023 27.215 3.7537 10.474 5.1955 19.998 5 31.125-0.0051562 1.2085-0.010312 2.417-0.015625 3.6621-0.07869 8.8083-0.07869 8.8083-1.2344 12.275h-2v2c-3.3615 1.6807-7.1599 1.1288-10.856 1.1135-0.91713 1.4603e-4 -1.8343 2.9205e-4 -2.7792 4.4251e-4 -3.0409-6.9842e-4 -6.0818-0.0084875-9.1227-0.016312-2.1046-0.0018644-4.2093-0.0032882-6.3139-0.0042877-5.5468-0.0038232-11.094-0.013652-16.64-0.024704-5.6571-0.010218-11.314-0.014795-16.971-0.019836-11.105-0.010734-22.211-0.027808-33.316-0.048828 0.79407 1.6186 1.5916 3.2354 2.3906 4.8516 0.44376 0.90057 0.88752 1.8011 1.3447 2.729 2.5915 4.9579 6.158 7.5278 11.245 9.6538 9.3065 2.3597 20.416 2.1355 29.105-2.0898 3.2341-1.9339 5.8853-4.1158 8.5391-6.7695 2.3057-2.3057 3.9792-3.3294 7.2227-3.7031 3.7203 0.38725 5.5291 1.4636 8.5898 3.5781 0.94359 0.63551 1.8872 1.271 2.8594 1.9258 1.338 0.90299 1.338 0.90299 2.7031 1.8242 2.3101 1.3821 4.6465 2.6925 7 4v2l2.0625 0.6875c4.9127 2.195 8.9366 4.8112 11.938 9.3125-0.38183 6.8729-4.9587 12.593-9.7539 17.172-14.676 11.945-31.505 18.128-50.246 17.828v2c-2.6459 0.026847-5.2915 0.046764-7.9375 0.0625-0.75475 0.0083789-1.5095 0.016758-2.2871 0.025391-1.9253 0.0086338-3.8507-0.035647-5.7754-0.087891-0.33-0.33-0.66-0.66-1-1-1.7204-0.21372-3.4418-0.42121-5.1667-0.59424-21.213-2.1578-38.188-12.499-52.337-28.328-1.5001-2.0837-2.0833-3.5674-2.4961-6.0781h-2c-7.329-14.137-11.573-27.264-11.375-43.375 0.0094263-1.1874 0.018853-2.3748 0.028564-3.5981 0.23182-13.46 3.1202-24.591 8.3464-37.027h2l0.25-2.125c1.5321-5.8729 5.4597-9.7843 9.75-13.875 0.89332-0.92426 0.89332-0.92426 1.8047-1.8672 0.62133-0.64195 1.2427-1.2839 1.8828-1.9453 0.58137-0.60457 1.1627-1.2091 1.7617-1.832 1.5508-1.3555 1.5508-1.3555 3.5508-1.3555v-2c2.6306-1.8569 5.1937-3.439 8-5 0.91008-0.51305 1.8202-1.0261 2.7578-1.5547 8.3231-4.2786 16.233-5.721 25.445-6.9023 3.916-0.56001 6.3547-1.6722 10.475-1.6797zm-16.24 52.262c-1.6193 2.3579-2.5225 4.1299-3.4375 6.875h45c-3.8406-7.6811-6.0454-11.705-13.602-15.23-10.509-3.3718-21.209-0.337-27.961 8.3555z" fill="#1C3041"/>
<path transform="translate(1213.1 68.863)" d="m0 0c0.79793 0.0038672 1.5959 0.0077344 2.418 0.011719 1.1969-0.0058008 1.1969-0.0058008 2.418-0.011719 5.9554 0.010111 5.9554 0.010111 7.082 1.1367 1.4095 0.29509 2.8303 0.53706 4.2539 0.75391 0.854 0.13213 1.708 0.26426 2.5879 0.40039 0.89783 0.13471 1.7957 0.26941 2.7207 0.4082 1.3525 0.20786 1.3525 0.20786 2.7324 0.41992 2.2345 0.34286 4.4695 0.68188 6.7051 1.0176v2c1.0106 0.078633 2.0212 0.15727 3.0625 0.23828 4.2499 0.61247 7.439 2.5563 10.938 4.9492 0.61375 0.41 1.2275 0.82 1.8599 1.2424 8.04 5.4402 14.715 11.383 20.14 19.57v3h2c1.4606 2.6474 2 3.8945 2 7h2c0.65161 1.873 1.296 3.7485 1.9375 5.625 0.35965 1.0441 0.7193 2.0883 1.0898 3.1641 2.2639 7.4735 2.2243 14.951 2.2678 22.688 0.011586 1.4353 0.03214 2.8706 0.061523 4.3057 0.042616 2.0856 0.058827 4.1699 0.069092 6.2559 0.021874 1.8594 0.021874 1.8594 0.044189 3.7563-0.46997 3.2046-0.46997 3.2046-1.9317 5.3708-3.7626 2.7183-7.0846 2.4061-11.621 2.3797-0.91742 0.010338-1.8348 0.020675-2.7801 0.031326-3.0302 0.029481-6.0597 0.030928-9.0901 0.03215-2.1018 0.014978-4.2036 0.031704-6.3054 0.05011-5.5303 0.043727-11.061 0.063685-16.591 0.078735-5.644 0.019552-11.288 0.061524-16.932 0.10162-11.073 0.075361-22.146 0.12562-33.219 0.16016 2.9161 5.9371 5.7811 11.391 11.875 14.438l2.125 0.5625v2c3.5207 0.087825 7.0411 0.14067 10.562 0.1875 0.99064 0.025137 1.9813 0.050273 3.002 0.076172 11.188 0.11151 17.832-4.288 26.436-11.264 3.594-2.396 4.7554-2.5636 9-2 2.9148 1.4211 5.5262 3.2174 8.1875 5.0625 1.5022 1.011 3.0048 2.0214 4.5078 3.0312 0.72993 0.49629 1.4599 0.99258 2.2119 1.5039 3.6885 2.4716 7.4903 4.7569 11.284 7.0625 0.59684 0.44215 1.1937 0.8843 1.8086 1.3398v2c0.99 0.33 1.98 0.66 3 1 0.42105 6.1053 0.10168 9.1427-4 14-1.9336 1.7771-3.9319 3.3719-6 5-0.43184 0.46148-0.86367 0.92297-1.3086 1.3984-7.086 6.7096-16.558 10.645-25.691 13.602-0.74766 0.3416-1.4953 0.6832-2.2656 1.0352-3.7764 1.3325-7.5139 1.6423-11.484 2.0273-5.0291 0.069234-5.0291 0.069234-9.25 1.9375-2.5114 0.09975-4.989 0.13882-7.5 0.125-1.0538 0.0058008-1.0538 0.0058008-2.1289 0.011719-5.2445-0.010105-5.2445-0.010105-6.3711-1.1367-1.7208-0.21378-3.4427-0.42142-5.168-0.59521-11.177-1.1325-20.909-4.0618-30.832-9.4048v-2c-0.53625-0.0825-1.0725-0.165-1.625-0.25-5.5325-1.7471-9.4617-5.6251-13.375-9.75l-1.8125-1.6875c-1.1875-1.3125-1.1875-1.3125-1.1875-3.3125-0.99-0.33-1.98-0.66-3-1-9.2923-11.06-13.704-23.233-15.57-37.375-0.15429-2.5441-0.15429-2.5441-1.4297-3.625-0.098601-1.4035-0.13079-2.8118-0.13281-4.2188-0.0012891-0.84949-0.0025781-1.699-0.0039062-2.5742 0.0038672-0.89332 0.0077344-1.7866 0.011719-2.707-0.0038672-0.89332-0.0077344-1.7866-0.011719-2.707 0.0012891-0.84949 0.0025781-1.699 0.0039062-2.5742 0.0011279-0.78439 0.0022559-1.5688 0.003418-2.377 0.12939-1.8418 0.12939-1.8418 1.1294-2.8418 0.27562-2.2679 0.51971-4.5396 0.75-6.8125 0.87307-7.3663 3.0078-13.495 6.25-20.188 0.36996-0.85078 0.73992-1.7016 1.1211-2.5781 5.0287-11.067 13.057-19.44 22.879-26.422l2.6562-1.9062c9.923-6.7294 19.781-9.3164 31.605-10.699 3.511-0.50587 5.9671-1.5247 9.8203-1.5312zm-6.082 44.137v2c-0.74766 0.086367-1.4953 0.17273-2.2656 0.26172-3.2724 0.88355-4.3285 1.9799-6.4844 4.5508-0.88945 1.0306-0.88945 1.0306-1.7969 2.082-1.74 2.2574-1.74 2.2574-2.4531 6.1055h45l-1-4h-2l-0.125-1.6875c-1.7317-4.5766-5.989-6.8087-10.062-9.125-6.1525-1.9163-12.597-1.9925-18.812-0.1875z" fill="#1C3041"/>
<path transform="translate(1470,69)" d="m0 0c2.4792-0.026851 4.9582-0.046765 7.4375-0.0625 0.70705-0.0083789 1.4141-0.016758 2.1426-0.025391 1.8069-0.0086453 3.6138 0.035691 5.4199 0.087891l1 1c1.7379 0.29389 3.4767 0.58349 5.2192 0.84912 13.175 2.0679 23.365 7.3449 31.781 17.963 8.23 11.626 10.929 24.644 11.605 38.617 0.14514 3.9135 0.14514 3.9135 1.3945 7.5703 0.11368 2.4901 0.16781 4.9529 0.177 7.4438 0.0065712 0.76773 0.013142 1.5355 0.019913 2.3264 0.019754 2.5479 0.031403 5.0958 0.041367 7.6438 0.0040755 0.87079 0.008151 1.7416 0.01235 2.6387 0.020874 4.6128 0.035167 9.2255 0.044535 13.838 0.011041 4.7547 0.045411 9.5089 0.085172 14.263 0.026211 3.6633 0.034524 7.3265 0.03811 10.99 0.0048576 1.7518 0.016448 3.5036 0.035038 5.2553 0.024479 2.4604 0.02341 4.9197 0.016485 7.3802 0.019215 1.0742 0.019215 1.0742 0.038818 2.1702-0.053584 5.257-1.3467 9.7696-4.5088 14.05-2.7182 0.90606-4.3214 1.1306-7.1167 1.1453-0.82451 0.0063798-1.649 0.01276-2.4985 0.019333-0.88753 0.0011128-1.7751 0.0022256-2.6895 0.0033722-0.91613 0.0033284-1.8323 0.0066568-2.7762 0.010086-1.9384 0.005063-3.8768 0.0074085-5.8152 0.0072479-2.9606 0.0021837-5.9208 0.020338-8.8813 0.039307-1.8841 0.0029346-3.7682 0.004919-5.6523 0.0058594-0.88348 0.0071855-1.767 0.014371-2.6772 0.021774-4.3567-0.016133-7.9958-0.048828-11.893-2.2522-1.5762-3.1523-1.1442-6.5334-1.1418-9.9946-0.0034744-0.82625-0.0069489-1.6525-0.010529-2.5038-0.0073629-1.7985-0.012705-3.5969-0.016291-5.3954-0.0071607-2.8505-0.022826-5.7007-0.041342-8.5511-0.052475-8.1061-0.10041-16.212-0.11592-24.318-0.010106-4.9562-0.039501-9.912-0.08132-14.868-0.012283-1.8857-0.017436-3.7715-0.015202-5.6572 0.0023642-2.6473-0.019899-5.2934-0.047522-7.9406 0.0066014-0.77226 0.013203-1.5445 0.020004-2.3402-0.10921-6.4093-2.0875-11.577-6.2961-16.454-0.83725-0.66902-0.83725-0.66902-1.6914-1.3516-0.55559-0.46148-1.1112-0.92297-1.6836-1.3984-5.9128-3.8599-12.013-4.1904-18.879-3.2266-5.2194 2.0009-9.594 4.6906-12.5 9.5625l-1.5 3.4375c-0.35502 0.72613-0.71003 1.4523-1.0758 2.2004-1.2166 3.6853-1.2162 7.1929-1.2113 11.031-0.01025 1.2228-0.01025 1.2228-0.020706 2.4703-0.013555 1.764-0.022629 3.5281-0.02771 5.2921-0.0083024 2.7906-0.028818 5.5808-0.052536 8.3713-0.056356 6.9271-0.091659 13.854-0.12762 20.782-0.031217 5.8603-0.070378 11.72-0.12025 17.581-0.020094 2.7515-0.028392 5.5029-0.036301 8.2545-0.012969 1.6822-0.026488 3.3644-0.040649 5.0466 9.819e-4 0.76682 0.0019638 1.5336 0.0029755 2.3237-0.044156 3.7557-0.15323 5.4432-2.2901 8.6485-2.7478 0.91593-4.3924 1.1308-7.2244 1.1453-1.2716 0.0095698-1.2716 0.0095698-2.569 0.019333-0.91254 0.0011128-1.8251 0.0022256-2.7653 0.0033722-0.9407 0.0033284-1.8814 0.0066568-2.8506 0.010086-1.9897 0.0050628-3.9793 0.0074085-5.969 0.0072479-3.044 0.0021863-6.0876 0.020348-9.1316 0.039307-1.9329 0.0029341-3.8659 0.0049188-5.7988 0.0058594-0.91052 0.0071855-1.821 0.014371-2.7591 0.021774-1.2764-0.0046149-1.2764-0.0046149-2.5785-0.0093231-0.74596 0.001425-1.4919 0.00285-2.2605 0.0043182-2.4277-0.28673-4.0212-0.96284-6.0933-2.2472-1.325-2.65-1.1289-4.6425-1.1337-7.6112-0.004265-1.1932-0.00853-2.3864-0.012924-3.6158 4.5318e-4 -1.3159 9.0637e-4 -2.6318 0.0013733-3.9876-0.0029909-1.3944-0.0063932-2.7888-0.010178-4.1833-0.0088512-3.7934-0.011179-7.5867-0.011816-11.38-9.4823e-4 -3.1636-0.0046255-6.3273-0.0081721-9.4909-0.0081487-7.4621-0.010584-14.924-0.0098736-22.386 6.0099e-4 -7.7049-0.0099541-15.41-0.025744-23.115-0.013063-6.609-0.018441-13.218-0.017801-19.827 2.5535e-4 -3.9499-0.0026166-7.8998-0.013178-11.85-0.0096594-3.7141-0.0097751-7.428-0.0024834-11.142 0.0015494-2.0164-0.0068158-4.0328-0.01544-6.0492 0.0041945-1.196 0.008389-2.3921 0.012711-3.6244-5.4477e-4 -1.0418-0.0010895-2.0836-0.0016508-3.157 0.24889-2.5812 0.24889-2.5812 2.2489-5.5812 2.7687-1.7362 4.8951-2.2534 8.1384-2.2747 1.2066-0.014298 1.2066-0.014298 2.4376-0.028885 1.2907 0.0013671 1.2907 0.0013671 2.6076 0.0027618 1.3388-0.0064277 1.3388-0.0064277 2.7046-0.012985 1.8853-0.0057362 3.7707-0.0062488 5.656-0.0019074 2.8795 0.0031587 5.758-0.020303 8.6375-0.045654 1.834-0.0022732 3.668-0.0029764 5.502-0.0019531 0.85847-0.0092098 1.7169-0.018419 2.6014-0.027908 4.7174 0.036386 7.8958 0.30089 11.715 3.3912 1.1481 2.2963 1.3077 4.077 1.5625 6.625 0.083789 0.81727 0.16758 1.6345 0.25391 2.4766 0.060586 0.62648 0.12117 1.253 0.18359 1.8984 0.3777-0.4241 0.75539-0.8482 1.1445-1.2852 7.3282-7.8087 16.131-14.309 27.125-14.82 1.9104-0.016729 3.8212 0.037281 5.7305 0.10547v-2z" fill="#1C3040"/>
<path transform="translate(202.68 72.707)" d="m0 0c0.92516 0.0042448 1.8503 0.0084897 2.8035 0.012863 2.9447 0.016746 5.8887 0.05439 8.8332 0.092606 2.0006 0.015052 4.0013 0.02874 6.002 0.041016 4.8954 0.033015 9.7904 0.084769 14.686 0.14648v2l1.875 0.375c2.125 0.625 2.125 0.625 4.125 2.625 0.20189 2.698 0.28003 5.2951 0.27124 7.9946 0.0052268 0.82625 0.010454 1.6525 0.015839 2.5038 0.010258 1.7984 0.016024 3.5969 0.017881 5.3954 0.0036563 2.8505 0.020365 5.7007 0.040758 8.5511 0.055465 8.106 0.086022 16.212 0.11058 24.318 0.015921 4.9561 0.046196 9.912 0.084764 14.868 0.011618 1.8857 0.01758 3.7715 0.017681 5.6572 1.9317e-4 2.6471 0.018543 5.2936 0.040621 7.9406-0.0045772 0.77226-0.0091544 1.5445-0.01387 2.3402 0.071507 5.4233 1.3027 9.4321 3.4145 14.431l1 3c2.0151 0.73324 2.0151 0.73324 4 1v2c2.8756 0.081384 5.7488 0.14068 8.625 0.1875 0.80824 0.025137 1.6165 0.050273 2.4492 0.076172 5.0897 0.062069 8.5062-0.44937 12.926-3.2637 4.495-4.805 4.146-10.082 4.1418-16.361 0.0052116-1.2617 0.0052116-1.2617 0.010529-2.5488 0.0073438-1.8241 0.012696-3.6481 0.016291-5.4722 0.007175-2.8876 0.022848-5.775 0.041342-8.6626 0.052428-8.2091 0.10047-16.418 0.11592-24.627 0.010077-5.0233 0.039392-10.046 0.08132-15.069 0.012315-1.9133 0.01743-3.8267 0.015202-5.74-0.0023512-2.6765 0.019798-5.3517 0.047522-8.028-0.0099021-1.1839-0.0099021-1.1839-0.020004-2.3917 0.061917-3.6409 0.41306-5.8756 2.3332-9.0045 3.3333-3.1491 5.781-4.3391 10.355-4.369 1.2066-0.014298 1.2066-0.014298 2.4376-0.028885 1.2907 0.0013671 1.2907 0.0013671 2.6076 0.0027618 1.3388-0.0064277 1.3388-0.0064277 2.7046-0.012985 1.8853-0.0057362 3.7707-0.0062488 5.656-0.0019074 2.8795 0.0031587 5.758-0.020303 8.6375-0.045654 1.834-0.0022732 3.668-0.0029764 5.502-0.0019531 0.85847-0.0092098 1.7169-0.018419 2.6014-0.027908 4.7174 0.036386 7.8958 0.30089 11.715 3.3912 1.7054 3.4108 1.1472 7.3116 1.1453 11.064 0.0033586 0.94008 0.0067172 1.8802 0.010178 2.8487 0.0095343 3.1227 0.011455 6.2454 0.012527 9.3681 0.0032127 2.1704 0.0065767 4.3407 0.010086 6.5111 0.0059987 4.5598 0.0078393 9.1195 0.0072479 13.679-1.0125e-4 5.826 0.01351 11.652 0.030772 17.478 0.011158 4.4886 0.013146 8.9772 0.012618 13.466 0.001176 2.1465 0.0055767 4.2929 0.013332 6.4394 0.0098684 3.0153 0.0068941 6.0304 8.9454e-4 9.0458 0.0056195 0.87728 0.011239 1.7546 0.017029 2.6584-0.045485 9.0595-1.5493 17.082-5.8849 25.066-0.32484 0.62262-0.64969 1.2452-0.98438 1.8867-0.78567 1.502-1.5865 2.9961-2.3906 4.4883h-2l-0.1875 1.6875c-2.553 7.2662-13.041 14.149-19.516 17.863-9.3072 4.3951-19.156 7.6913-29.469 8.2734-1.8463-0.018099-1.8463-0.018099-2.8281 1.1758-1.4765 0.098808-2.9577 0.13079-4.4375 0.13281-1.3419 0.0019336-1.3419 0.0019336-2.7109 0.0039062-0.94102-0.0038672-1.882-0.0077344-2.8516-0.011719-0.94102 0.0038672-1.882 0.0077344-2.8516 0.011719-0.89461-0.0012891-1.7892-0.0025781-2.7109-0.0039062-0.82629-0.0011279-1.6526-0.0022559-2.5039-0.003418-1.9336-0.12939-1.9336-0.12939-2.9336-1.1294-2.2679-0.27562-4.5396-0.51971-6.8125-0.75-7.3585-0.86611-13.503-3.0118-20.188-6.25-0.71543-0.30809-1.4309-0.61617-2.168-0.93359-15.17-6.8127-25.87-19.913-31.832-35.066-4.1969-11.928-3.163-25.235-3.168-37.711-0.0032186-1.9004-0.0065831-3.8009-0.010086-5.7013-0.0059561-3.962-0.0078432-7.924-0.0072479-11.886 1.0214e-4 -5.074-0.01362-10.148-0.030772-15.222-0.011112-3.9154-0.013147-7.8307-0.012618-11.746-0.0011786-1.8715-0.0055937-3.743-0.013332-5.6144-0.0097965-2.6107-0.0069246-5.221-8.9454e-4 -7.8317-0.0056195-0.76891-0.011239-1.5378-0.017029-2.33 0.023977-4.0848 0.33156-7.323 2.2599-10.958 4.3718-3.8826 9.1495-3.3888 14.676-3.293z" fill="#1C3041"/>
<path transform="translate(1010.8 72.733)" d="m0 0c0.97142-0.00853 1.9428-0.01706 2.9437-0.025848 1.0593 9.0637e-4 2.1186 0.0018128 3.21 0.0027466 1.1208-0.0067172 2.2415-0.013434 3.3962-0.020355 3.7107-0.019021 7.4211-0.022906 11.132-0.025055 2.5783-0.0064254 5.1565-0.013154 7.7348-0.020172 5.4078-0.011983 10.816-0.015765 16.223-0.014496 6.2405 0.0012006 12.481-0.019886 18.721-0.051487 6.0132-0.02936 12.026-0.036487 18.04-0.035293 2.5537-0.0023596 5.1073-0.011203 7.6609-0.026665 3.5739-0.019612 7.147-0.01384 10.721-0.0017891 1.0532-0.011239 2.1065-0.022478 3.1916-0.034058 6.2762 0.053732 10.068 0.81017 15.188 4.5199 3.4556 4.4873 2.3335 10.975 2.3157 16.362-0.0031524 1.9991 0.021158 3.9981 0.045654 5.9971 6.4453e-4 1.271 0.0012891 2.542 0.0019531 3.8516 0.002981 1.1581 0.0059619 2.3161 0.0090332 3.5093-0.5968 5.2573-2.7643 9.1033-6.6223 12.655-4.9218 4.7037-9.3049 9.8187-13.562 15.125-0.72188 0.825-1.4438 1.65-2.1875 2.5h-2c-0.24363 0.57234-0.48727 1.1447-0.73828 1.7344-1.4869 2.67-3.2426 4.4039-5.4492 6.5156-5.1793 5.0629-9.8955 10.416-14.5 16-2.0132 2.3941-3.9836 4.6621-6.3125 6.75h-2c-0.22688 0.55688-0.45375 1.1138-0.6875 1.6875-1.6689 2.9404-3.9004 4.9627-6.3125 7.3125 1.0987 0.0087994 1.0987 0.0087994 2.2197 0.017776 6.9011 0.05789 13.802 0.12995 20.703 0.21794 3.5479 0.044739 7.0956 0.083987 10.644 0.11072 4.0785 0.030971 8.1564 0.085761 12.235 0.14185 1.2751 0.0063899 2.5501 0.01278 3.8638 0.019363 1.181 0.019794 2.362 0.039588 3.5788 0.059982 1.0415 0.011103 2.0829 0.022206 3.156 0.033646 2.6006 0.39873 2.6006 0.39873 4.4371 1.6837 2.0928 3.0849 1.5668 6.8308 1.5268 10.434 7.4776e-4 1.2814 7.4776e-4 1.2814 0.0015106 2.5887-0.0023397 1.8056-0.012062 3.6111-0.02861 5.4166-0.023593 2.7654-0.02056 5.5299-0.013916 8.2954-0.0055768 1.7539-0.012687 3.5078-0.021484 5.2617 9.1141e-4 0.82818 0.0018228 1.6564 0.0027618 2.5096-0.048309 3.907-0.088319 5.8863-2.3035 9.2091-2.9951 0.99837-4.9819 1.1303-8.1106 1.1404-1.0571 0.0057102-2.1142 0.01142-3.2033 0.017303-1.1596 0.0011179-2.3191 0.0022357-3.5138 0.0033874-1.2214 0.0049649-2.4427 0.0099298-3.7011 0.015045-3.3513 0.012109-6.7026 0.019567-10.054 0.024011-2.0941 0.0029322-4.1882 0.0070372-6.2823 0.011504-6.553 0.013672-13.106 0.02334-19.659 0.027202-7.5627 0.0044814-15.125 0.022034-22.688 0.051001-5.8472 0.021618-11.694 0.031704-17.542 0.033041-3.4917 0.0010479-6.9833 0.0069515-10.475 0.02482-3.8951 0.019545-7.79 0.015191-11.685 0.0086899-1.1555 0.0092148-2.311 0.01843-3.5015 0.027924-1.0627-0.0055692-2.1254-0.011138-3.2204-0.016876-0.92066 0.0014666-1.8413 0.0029331-2.7899 0.0044441-3.1301-0.45218-5.0214-1.5354-7.5746-3.3719-2.2316-4.4631-1.3112-10.912-1.3501-15.865-0.016507-1.5392-0.043728-3.0784-0.082031-4.6172-0.35691-14.424-0.35691-14.424 2.7993-18.908 0.86883-0.86109 1.7377-1.7222 2.6328-2.6094l2.5-2.5625 2.5-2.4375c0.80438-0.99 1.6088-1.98 2.4375-3 1.9049-2.2301 3.5143-3.8805 5.75-5.6875 2.94-2.1892 2.94-2.1892 4.8125-5.3125h2c0.38092-0.87398 0.38092-0.87398 0.76953-1.7656 1.3637-2.4763 2.8727-4.0396 4.918-5.9844 2.7133-2.6401 5.291-5.3091 7.75-8.1875 3.2666-3.8023 6.7803-7.2979 10.348-10.816 2.7299-2.7684 5.2797-5.6624 7.8047-8.6172 1.0864-1.255 2.2364-2.4552 3.4102-3.6289-0.66985-0.0058662-1.3397-0.011732-2.0299-0.017776-6.9592-0.063833-13.918-0.14823-20.877-0.24467-2.5986-0.033296-5.1972-0.061313-7.7959-0.083984-3.731-0.033459-7.4614-0.085772-11.192-0.14185-1.1657-0.0063899-2.3314-0.01278-3.5324-0.019363-1.0809-0.019794-2.1618-0.039588-3.2754-0.059982-0.95264-0.011103-1.9053-0.022206-2.8868-0.033646-2.4108-0.39873-2.4108-0.39873-4.2177-1.6837-2.136-3.0702-1.6181-6.8215-1.5916-10.434-0.0028702-0.85429-0.0057404-1.7086-0.0086975-2.5887-0.0020408-1.8055 0.0034902-3.6111 0.016022-5.4166 0.016054-2.7656 1.5229e-4 -5.5298-0.019043-8.2954 0.0019824-1.7539 0.0058261-3.5078 0.011719-5.2617-0.0060727-0.82818-0.012145-1.6564-0.018402-2.5096 0.070779-5.7699 0.070779-5.7699 1.6911-7.8262 3.43-2.7487 6.1806-3.6329 10.563-3.6504z" fill="#1C3040"/>
<path transform="translate(1762.5,35.625)" d="m0 0c0.74637-0.024492 1.4927-0.048984 2.2617-0.074219 3.8919-0.020665 5.8163 0.18824 9.207 2.2852 3.5038 3.7329 3.1496 7.1065 3.1289 12.02-0.001415 0.66164-0.0028299 1.3233-0.0042877 2.005-0.0055886 2.1091-0.018139 4.218-0.030869 6.3271-0.0050165 1.4316-0.0095791 2.8633-0.013672 4.2949-0.011014 3.5059-0.028271 7.0117-0.048828 10.518 1.4148-0.023566 1.4148-0.023566 2.8582-0.047607 3.5131-0.051253 7.0258-0.088802 10.539-0.11719 1.518-0.015049 3.0359-0.035492 4.5537-0.061523 2.187-0.036558 4.3735-0.053447 6.5608-0.06665 1.3144-0.01571 2.6289-0.031421 3.9832-0.047607 3.6947 0.359 5.6102 1.0516 8.5051 3.3406v2h2c0.098958 5.1961 0.17151 10.392 0.21973 15.588 0.020102 1.7673 0.047388 3.5346 0.082031 5.3018 0.048582 2.542 0.071224 5.0831 0.088867 7.6255 0.020645 0.78868 0.04129 1.5774 0.062561 2.39 0.0013792 3.3803-0.20422 5.6844-1.9747 8.6003-3.465 2.0888-6.6035 1.9935-10.525 1.8848-0.7712-0.0056598-1.5424-0.01132-2.337-0.017151-2.456-0.022338-4.9106-0.072526-7.3661-0.12347-1.6679-0.020068-3.3359-0.038319-5.0039-0.054688-4.0826-0.044033-8.1641-0.11304-12.246-0.19531 0.1175 7.4932 0.24233 14.986 0.37231 22.479 0.043365 2.5501 0.085039 5.1002 0.125 7.6504 0.057664 3.6613 0.12137 7.3225 0.18628 10.984 0.016712 1.1438 0.033425 2.2877 0.050644 3.4661 0.019945 1.0609 0.03989 2.1217 0.06044 3.2148 0.015544 0.93488 0.031089 1.8698 0.047104 2.833 0.067945 2.5227 0.067945 2.5227 1.1582 5.3728 4.7133 1.8192 7.5636 2.4894 12.312 0.625 0.63551-0.29648 1.271-0.59297 1.9258-0.89844 1.7617-0.72656 1.7617-0.72656 4.7617-0.72656v-2c4.1243-1.3748 7.7143-2.0005 12-1 4.085 3.1848 7.0698 6.8374 8 12h2c1.6614 2.3031 3.1549 4.579 4.625 7 0.42023 0.6484 0.84047 1.2968 1.2734 1.9648 2.997 4.914 3.8062 8.2845 3.1016 14.035-5.7591 10.852-19.138 15.181-30.062 18.688-17.309 4.9224-38.262 3.7851-54.125-4.8828-12.215-7.3568-17.531-15.727-21.856-29.01-1.6225-6.6119-1.2016-13.47-1.1516-20.232 0.003736-1.4907 0.0065802-2.9814 0.0085754-4.4722 0.00759-3.8995 0.027198-7.7989 0.049408-11.698 0.020559-3.9887 0.029615-7.9775 0.039673-11.966 0.021368-7.8087 0.056512-15.617 0.097656-23.426h-18v-2h-2c-2.1693-3.2539-2.2408-4.134-2.1953-7.8867 0.0064453-0.93779 0.012891-1.8756 0.019531-2.8418 0.016758-0.97646 0.033516-1.9529 0.050781-2.959 0.0090234-0.98807 0.018047-1.9761 0.027344-2.9941 0.023572-2.4397 0.056476-4.8789 0.097656-7.3184h2l0.25-2.6875c0.84984-3.7535 2.0903-5.5722 4.75-8.3125h2c0.26426-0.59297 0.52852-1.1859 0.80078-1.7969 1.2429-2.2834 2.5032-3.6774 4.3867-5.4531 4.9138-4.7707 9.3415-9.9113 13.625-15.25l2.1875-2.5h2l0.8125-1.75c1.2168-2.3055 2.4908-4.2706 4.1875-6.25h2c0.37705-0.87785 0.37705-0.87785 0.76172-1.7734 1.3934-2.5055 2.8907-3.9764 5.0508-5.8516 0.66645-0.59039 1.3329-1.1808 2.0195-1.7891 5.0336-3.6822 9.6342-3.9505 15.668-3.9609z" fill="#1C3041"/>
<path transform="translate(402.62 35.438)" d="m0 0c0.72913-0.027393 1.4583-0.054785 2.2095-0.083008 0.70689 0.0054785 1.4138 0.010957 2.1421 0.016602 0.9448-0.0010876 0.9448-0.0010876 1.9087-0.0021973 3.41 1.0176 5.9294 2.8796 8.1147 5.6311 0.68115 3.5051 0.68115 3.5051 0.58594 7.4883-0.0084897 0.7032-0.016979 1.4064-0.025726 2.1309-0.033428 2.2327-0.10867 4.4617-0.18521 6.6933-0.030114 1.5188-0.057488 3.0377-0.082031 4.5566-0.065935 3.7115-0.16937 7.4208-0.29297 11.131 0.97348-0.01571 1.947-0.031421 2.95-0.047607 3.6248-0.054455 7.2495-0.088799 10.875-0.11719 1.5665-0.015051 3.1329-0.035497 4.6992-0.061523 2.2565-0.036546 4.5125-0.053444 6.7693-0.06665 0.69603-0.015484 1.3921-0.030968 2.1092-0.046921 4.3813-0.0015035 7.1666 0.56762 10.598 3.3399 2.5955 3.4463 2.29 7.325 2.2656 11.469 0.0019134 0.71732 0.0038269 1.4346 0.0057983 2.1737 0.0013578 1.5129-0.0023102 3.0258-0.010681 4.5387-0.010706 2.311-9.14e-5 4.6212 0.012695 6.9321-0.0013217 1.4727-0.0038842 2.9453-0.0078125 4.418 0.0040485 0.68864 0.0080969 1.3773 0.012268 2.0868-0.035133 3.6083-0.16393 6.3882-2.2779 9.382-3.74 2.4934-6.6256 2.2548-10.949 2.1953-1.1589-0.0042448-1.1589-0.0042448-2.3413-0.0085754-2.4658-0.011188-4.9313-0.03629-7.397-0.061737-1.6725-0.010032-3.345-0.019157-5.0176-0.027344-4.0984-0.022042-8.1966-0.056563-12.295-0.097656 0.067013 7.172 0.15682 14.343 0.26245 21.515 0.033243 2.4394 0.061277 4.8789 0.083984 7.3184 0.033557 3.5077 0.085875 7.0148 0.14185 10.522 0.0063899 1.0898 0.01278 2.1795 0.019363 3.3023 0.034876 7.1971 0.034876 7.1971 3.4924 13.342 1.7658 1.1987 1.7658 1.1987 3.6875 1.8125l3.3125 1.1875v-2c0.60328-0.19336 1.2066-0.38672 1.8281-0.58594 0.79922-0.26039 1.5984-0.52078 2.4219-0.78906 0.78891-0.25523 1.5778-0.51047 2.3906-0.77344 2.3461-0.77976 2.3461-0.77976 4.3438-1.9297 3.8076-1.7415 7.9299-1.4861 12.016-0.92188 3.098 2.1913 3.8035 3.4106 5 7l2 1c0.92286 1.6065 1.8386 3.2174 2.7188 4.8477 1.4843 2.4934 3.2115 4.7191 4.9688 7.0273 3.2739 4.5918 4.6829 8.4641 4.3125 14.125-2.2506 6.7517-9.9142 10.904-16 14-17.429 8.5514-38.067 10.999-57 6-3.1189-1.1346-6.045-2.4958-9-4-1.0106-0.43312-2.0212-0.86625-3.0625-1.3125-8.907-5.1168-14.785-12.439-18.938-21.688-0.4134-0.89821-0.4134-0.89821-0.83516-1.8146-2.9941-7.5633-2.5429-15.385-2.4578-23.377 0.0056051-1.5565 0.0098708-3.1131 0.012863-4.6697 0.011377-4.0689 0.040782-8.1375 0.074112-12.206 0.030856-4.1631 0.044426-8.3262 0.059509-12.489 0.032038-8.1479 0.083147-16.296 0.14648-24.443-1.253 0.046406-2.5059 0.092812-3.7969 0.14062-1.651 0.037523-3.3021 0.073923-4.9531 0.10938-0.825 0.033516-1.65 0.067031-2.5 0.10156-6.0739 0.097966-6.0739 0.097966-9.2949-2.0437-1.717-2.7233-1.9702-4.2788-1.9863-7.4836-0.0051562-0.99322-0.010312-1.9864-0.015625-3.0098 0.015469-1.0319 0.030938-2.0638 0.046875-3.127-0.015469-1.0203-0.030938-2.0406-0.046875-3.0918 0.04103-7.9342 1.4282-12.175 6.8438-18.115 0.80953-0.75668 1.6191-1.5134 2.4531-2.293 4.23-4.0867 7.8974-8.3549 11.5-12.996 2.0874-2.614 4.3535-4.8633 6.75-7.1914 0.55688-0.76312 1.1138-1.5262 1.6875-2.3125 0.43312-0.55688 0.86625-1.1138 1.3125-1.6875h2c0.2243-0.53625 0.44859-1.0725 0.67969-1.625 3.6145-6.5018 10.849-15.055 17.82-17.887 3.7045-0.72354 7.3558-0.94673 11.125-1.0508z" fill="#1C3041"/>
<path transform="translate(902.31 71.688)" d="m0 0c0.73412-0.029004 1.4682-0.058008 2.2246-0.087891 5.6385-0.06504 8.8222 1.1804 13.463 4.4004 4.164 4.7886 4.2058 8.0131 3.8125 14.312-0.60697 6.2764-0.60697 6.2764-1.8125 8.6875-0.17375 1.6328-0.29738 3.271-0.39453 4.9102-0.068965 0.99064-0.13793 1.9813-0.20898 3.002-0.13747 2.0723-0.26534 4.1452-0.38281 6.2188-0.52237 7.1699-1.628 14.001-6.5105 19.579-3.1155 2.6737-7.5681 2.307-11.503 2.29-3.8457-0.52864-7.5154-1.2577-11-3-5.6182-0.58429-10.273-0.37616-15 3-2.8577 4.5846-3.4311 8.4918-3.3848 13.778-0.0053728 0.75523-0.010746 1.5105-0.016281 2.2886-0.009741 1.6303-0.012733 3.2607-0.0096436 4.891 0.0044936 2.581-0.0095635 5.1613-0.028397 7.7423-0.042934 6.4058-0.054041 12.812-0.066223 19.218-0.011525 5.4224-0.035068 10.844-0.074692 16.267-0.013576 2.5416-0.0093995 5.0828-0.0045929 7.6245-0.0093392 1.5575-0.019508 3.1151-0.03064 4.6726 0.0061482 0.70555 0.012296 1.4111 0.018631 2.138-0.038111 3.0346-0.25477 5.1133-1.7399 7.7885-2.6684 2.5547-5.2552 2.7205-8.7802 2.7537-0.82451 0.0096076-1.649 0.019215-2.4985 0.029114-1.3313 0.0063748-1.3313 0.0063748-2.6895 0.012878-0.91613 0.0057001-1.8323 0.0114-2.7762 0.017273-1.9384 0.0094453-3.8768 0.015982-5.8152 0.019836-2.9607 0.0097057-5.9208 0.040733-8.8813 0.072266-1.8841 0.0065303-3.7682 0.011781-5.6523 0.015625-0.88348 0.012347-1.767 0.024694-2.6772 0.037415-5.2594-0.018998-8.9834-0.45589-12.893-4.3655-0.10956-1.8233-0.14856-3.6509-0.16063-5.4775-0.010046-1.189-0.020091-2.3779-0.030441-3.6029-0.005831-1.3164-0.011662-2.6327-0.01767-3.989-0.0095338-1.391-0.019425-2.7821-0.029648-4.1731-0.031443-4.5806-0.05166-9.1613-0.070206-13.742-0.0032973-0.77867-0.0065946-1.5573-0.0099919-2.3596-0.030786-7.3408-0.057501-14.682-0.074419-22.023-0.02191-9.3976-0.063876-18.795-0.13344-28.192-0.047221-6.603-0.071493-13.206-0.078759-19.809-0.0049599-3.9458-0.020071-7.8909-0.059744-11.837-0.036846-3.7135-0.045284-7.426-0.031994-11.14-7.972e-5 -2.0114-0.029944-4.0226-0.06069-6.0338 0.069224-8.5715 0.069224-8.5715 2.0174-11.546 3.737-3.3094 7.1943-3.7084 12.045-3.7056 0.68281-0.002412 1.3656-0.0048239 2.0691-0.007309 1.4371 9.7444e-4 2.8743 0.014272 4.3112 0.039291 2.1779 0.034235 4.3518 0.020663 6.5298 0.0012207 7.4332 0.0074631 13.461 0.27708 19.785 4.5957 3.0878 3.7378 4.6736 7.3576 6 12 0.59812-0.66 1.1962-1.32 1.8125-2 9.1082-9.1343 18.597-15.145 31.5-15.312z" fill="#1C3040"/>
<path transform="translate(940.02 72.725)" d="m0 0c0.80449-0.009532 1.609-0.019064 2.4378-0.028885 0.86566 9.1141e-4 1.7313 0.0018228 2.6232 0.0027618 0.89393-0.0042851 1.7879-0.0085702 2.7089-0.012985 1.8913-0.0057431 3.7826-0.0062437 5.6739-0.0019073 2.8884 0.0031543 5.7758-0.02028 8.6641-0.045654 1.8385-0.0022736 3.6771-0.0029762 5.5156-0.0019531 0.86161-0.0092097 1.7232-0.018419 2.6109-0.027908 4.7275 0.036318 7.9284 0.28095 11.741 3.3912 2.2787 3.418 2.2526 4.6328 2.2607 8.6488 0.0070848 1.1763 0.01417 2.3526 0.021469 3.5646-0.0024774 1.292-0.0049548 2.5841-0.0075073 3.9153 0.0043468 1.3732 0.0095298 2.7465 0.015488 4.1197 0.013405 3.7314 0.013967 7.4627 0.011437 11.194-0.0010687 3.1139 0.0038111 6.2278 0.0086054 9.3417 0.0111 7.3456 0.01153 14.691 0.0054858 22.037-0.0060411 7.5805 0.0062734 15.161 0.02757 22.741 0.017607 6.5062 0.023619 13.012 0.020362 19.519-0.0018144 3.8868 8.3906e-4 7.7735 0.014715 11.66 0.01256 3.6551 0.010652 7.3098-0.0024109 10.965-0.0034998 1.9816 0.007826 3.9632 0.019567 5.9448-0.0070143 1.1791-0.014029 2.3583-0.021255 3.5732 1.6774e-4 1.0248 3.3548e-4 2.0496 5.0831e-4 3.1055-0.43449 3.0961-1.2023 4.449-3.3747 6.6702-2.7182 0.90606-4.3214 1.1306-7.1167 1.1453-0.82451 0.0063798-1.649 0.01276-2.4985 0.019333-0.88753 0.0011128-1.7751 0.0022256-2.6895 0.0033722-0.91613 0.0033284-1.8323 0.0066568-2.7762 0.010086-1.9384 0.005063-3.8768 0.0074085-5.8152 0.0072479-2.9606 0.0021837-5.9208 0.020338-8.8813 0.039307-1.8841 0.0029346-3.7682 0.004919-5.6523 0.0058594-0.88348 0.0071855-1.767 0.014371-2.6772 0.021774-4.3567-0.016133-7.9958-0.048828-11.893-2.2522-1.3244-2.6489-1.132-4.6437-1.1404-7.6112-0.0057101-1.1932-0.01142-2.3864-0.017303-3.6158-0.0011178-1.3159-0.0022357-2.6318-0.0033874-3.9876-0.0046273-1.3944-0.0096518-2.7889-0.015045-4.1833-0.013133-3.7933-0.01957-7.5867-0.024011-11.38-0.0029288-2.3683-0.0070332-4.7366-0.011504-7.1049-0.013676-7.4052-0.023343-14.81-0.027202-22.215-0.0044837-8.5572-0.022045-17.114-0.051001-25.671-0.021589-6.609-0.031702-13.218-0.033041-19.827-0.0010498-3.95-0.0069957-7.8998-0.02482-11.85-0.016434-3.7141-0.018659-7.428-0.009861-11.142 0.001142-2.0164-0.012611-4.0328-0.026752-6.0492 0.0055692-1.196 0.011138-2.3921 0.016876-3.6244-0.0014666-1.0418-0.0029331-2.0836-0.0044441-3.157 0.43154-2.9949 1.0027-3.7787 3.3719-5.5812 3.03-2.02 3.626-2.2525 7.0249-2.2747z" fill="#1C3041"/>
<path transform="translate(1322.6 307.6)" d="m0 0c9.7989 5.8079 15.555 12.053 18.941 22.934 0.41797 2.4648 0.41797 2.4648-0.58203 7.4648h-14l-1.75-4.25c-1.6099-3.6624-3.2391-6.0617-6.25-8.75v-2c-2.4479-0.50732-4.897-1.0022-7.3516-1.4766-2.0375-0.4027-4.0647-0.85819-6.0859-1.3359-4.4198-0.23262-7.9119 0.81377-12.109 2.1211-2.4531 0.69141-2.4531 0.69141-5.4531 0.69141l-2 4h-2c-0.60832 7.5143-0.60832 7.5143 1.9375 14.438 3.7929 3.1737 7.4456 4.8802 12.062 6.5625 0.74766 0.27715 1.4953 0.5543 2.2656 0.83984 3.6539 1.284 7.2461 2.2955 11.047 3.0352 12.026 2.5605 24.747 8.5896 31.688 19.125 3.3069 6.6821 3.0881 14.889 1.207 21.996-1.5843 4.0851-3.3281 7.664-6.207 11.004h-2c-0.20883 0.59426-0.41766 1.1885-0.63281 1.8008-1.8886 3.038-4.0354 3.8617-7.2422 5.3867-1.0493 0.50918-2.0986 1.0184-3.1797 1.543-6.1861 2.6664-11.971 2.4874-18.633 2.5195-1.0512 0.020625-2.1025 0.04125-3.1855 0.0625-10.187 0.050713-20.273-2.3651-28.127-9.3125v-2c-0.99-0.33-1.98-0.66-3-1-6.3176-8.0944-7.3776-14.93-7-25h15l0.875 4.125c0.82231 3.718 1.8369 7.2867 3.125 10.875h2l1.25 1.3125c4.9602 4.783 10.953 5.6733 17.59 5.707 10.251-0.35492 10.251-0.35492 19.16-5.0195l1.8125-1.3125c2.4021-3.4135 3.295-7.1819 3-11.312-1.7251-5.0427-3.7322-7.8983-8.5625-10.414-6.287-2.6851-12.976-4.335-19.555-6.1484-7.7651-2.1683-14.918-4.2781-21.695-8.8125l-3-2v-2l-1.8125-0.6875c-3.1874-1.9124-4.5621-4.5001-5.7617-7.9766-0.6264-3.4366-0.56969-6.8559-0.55078-10.336-0.0038672-0.71156-0.0077344-1.4231-0.011719-2.1562 0.006379-3.4191 0.064711-6.5767 1.1367-9.8438h2l0.3125-1.7812c1.4718-4.7498 5.7356-8.1362 9.9766-10.488 2.216-0.98941 4.4373-1.8829 6.7109-2.7305 0.70641-0.35707 1.4128-0.71414 2.1406-1.082 9.4321-3.0281 23.516-2.3506 32.5 1.6836z" fill="#1F2A43"/>
<path transform="translate(852,307)" d="m0 0c1.8794-0.34058 1.8794-0.34058 4.1328-0.29297 0.80566 0.009668 1.6113 0.019336 2.4414 0.029297 1.2626 0.037705 1.2626 0.037705 2.5508 0.076172 0.84949 0.013535 1.699 0.02707 2.5742 0.041016 2.1005 0.035402 4.2007 0.08921 6.3008 0.14648 0.39832 1.2182 0.79664 2.4363 1.207 3.6914 0.53499 1.6238 1.0702 3.2474 1.6055 4.8711 0.26104 0.79986 0.52207 1.5997 0.79102 2.4238 1.5825 4.7866 3.3734 9.3911 5.3965 14.014 0.97456 2.5163 1.9355 5.0333 2.875 7.5625 0.2554 0.68675 0.51079 1.3735 0.77393 2.0811 0.52574 1.4174 1.0503 2.8352 1.5737 4.2534 0.51041 1.3809 1.0233 2.7608 1.5391 4.1396 0.71097 1.902 1.4123 3.8076 2.1133 5.7134 0.40992 1.1086 0.81984 2.2172 1.2422 3.3594 0.88281 2.8906 0.88281 2.8906 0.88281 6.8906h2c0.37512 1.2439 0.75023 2.4879 1.1367 3.7695 2.5214 8.24 5.0771 16.221 8.8281 24 2.0514 4.4203 3.0352 8.3147 3.0352 13.23h2v7h-15c-2.2822-4.5643-3.9552-8.5723-5.5-13.375-1.7059-5.2818-3.5467-10.416-5.5-15.625l-41-1-1 4c-0.42158 1.3532-0.85716 2.7021-1.3047 4.0469-0.38092 1.1447-0.38092 1.1447-0.76953 2.3125-0.26426 0.78891-0.52852 1.5778-0.80078 2.3906-0.38479 1.1602-0.38479 1.1602-0.77734 2.3438-1.674 5.0135-3.4646 9.9675-5.3477 14.906-2.459 0.08077-4.9153 0.14037-7.375 0.1875-0.69867 0.025137-1.3973 0.050273-2.1172 0.076172-2.0312 0.029297-2.0312 0.029297-5.5078-0.26367l-2-3c0.8928-2.7718 1.8624-5.3335 3-8 0.48331-1.2605 0.96012-2.5234 1.4297-3.7891 0.23525-0.62399 0.47051-1.248 0.71289-1.8909 2.1749-5.7759 4.3087-11.56 6.3574-17.383 1.6923-4.7849 3.5157-9.4902 5.4375-14.188 2.6092-6.3826 4.8156-12.86 6.9551-19.414 1.2421-3.789 2.5172-7.5255 4.0449-11.211 1.3637-3.3271 2.6272-6.6651 3.793-10.066 0.31139-0.90057 0.62278-1.8011 0.9436-2.729 0.62544-1.82 1.2471-3.6412 1.8647-5.4639 0.28883-0.84127 0.57766-1.6825 0.87524-2.5493 0.25733-0.75853 0.51466-1.5171 0.77979-2.2986 0.80615-2.0178 0.80615-2.0178 2.8062-5.0178zm8 20c-0.39832 1.2066-0.79664 2.4131-1.207 3.6562-0.53507 1.6146-1.0702 3.2292-1.6055 4.8438-0.26104 0.79148-0.52207 1.583-0.79102 2.3984-2.8349 8.5397-6.0854 16.885-9.4082 25.246-1.1518 2.8244-1.1518 2.8244-0.98828 5.8555h29c-1.2554-7.5325-3.4931-14.484-6.5-21.5-1.7734-4.1379-3.1507-8.3515-4.5352-12.633-0.89763-2.6675-1.8928-5.2657-2.9648-7.8672h-1z" fill="#1F2A43"/>
<path transform="translate(1333.8 159.75)" d="m0 0c0.87721-0.020625 1.7544-0.04125 2.6582-0.0625 9.0506-0.054154 16.009 2.8697 22.576 9.3242 7.4744 8.0336 9.4439 13.878 9.2031 24.676-0.0051562 0.9365-0.010312 1.873-0.015625 2.8379-0.045672 3.9991-0.12919 7.6103-1.2344 11.475h-2l-0.1875 2.125c-1.5824 5.5992-6.1107 9.658-10.812 12.875h-3v2c-3.8232 1.4226-6.9128 2.2404-11 2v2h-11v-2c-0.56848-0.025781-1.137-0.051562-1.7227-0.078125-7.0369-0.5169-11.325-2.348-16.715-7.0469-1.5625-1.875-1.5625-1.875-1.5625-3.875-0.99-0.33-1.98-0.66-3-1-0.6875-2.0625-0.6875-2.0625-1-4h-2c-1.7575-4.5035-2.1929-8.1764-2-13h-2v-9h2l-0.3125-2.875c0.011868-5.8389 2.89-11.575 6.875-15.77 1.4287-1.1823 2.9307-2.2745 4.4375-3.3555l1.5625-1.625c5.9701-5.7105 12.496-5.58 20.25-5.625z" fill="#FFC200"/>
<path transform="translate(938,307)" d="m0 0h17c5.8182 13.964 10.516 28.391 15.256 42.749 1.6178 4.898 3.2427 9.7937 4.8687 14.689 0.33701 1.0193 0.67402 2.0387 1.0212 3.0889 1.8401 5.5391 3.7626 11.024 5.8538 16.474l1.125 2.9375c0.70302 2.0154 0.70302 2.0154 1.875 3.0625 0.32613-0.9784 0.65227-1.9568 0.98828-2.9648 2.3372-7.0117 4.6745-14.023 7.0117-21.035h2l0.3125-3.5c0.3214-3.5996 1.4604-6.6814 2.7625-10.038 1.9695-5.2425 3.6657-10.584 5.425-15.9 0.39059-1.1763 0.78117-2.3525 1.1836-3.5645 0.38285-1.1531 0.7657-2.3061 1.1602-3.4941 0.55688-1.6762 0.55688-1.6762 1.125-3.3862 0.63048-1.9061 1.2566-3.8136 1.875-5.7236 0.37125-1.1406 0.37125-1.1406 0.75-2.3042 0.20303-0.63172 0.40605-1.2634 0.61523-1.9143 1.1308-3.1101 2.4874-6.1338 3.791-9.1755h17c-0.77325 5.4127-1.8214 9.8441-3.6875 14.875-0.54189 1.496-1.0835 2.9921-1.625 4.4883-0.27844 0.76264-0.55688 1.5253-0.84375 2.311-1.3734 3.7856-2.6997 7.5877-4.0312 11.388-1.4039 4.0044-2.8276 7.997-4.332 11.965-1.4304 3.7917-2.7183 7.6214-3.9805 11.473-1.5065 4.5637-3.0454 9.1033-4.7695 13.59-0.85342 2.2317-1.6675 4.4759-2.4805 6.7227-1.9447 5.3592-3.9071 10.712-5.875 16.062-0.30132 0.82089-0.60264 1.6418-0.91309 2.4875-1.4361 3.9012-2.8882 7.7889-4.4619 11.637-2.9586 0.053792-5.9162 0.093571-8.875 0.125-1.2626 0.025137-1.2626 0.025137-2.5508 0.050781-0.80566 0.0064453-1.6113 0.012891-2.4414 0.019531-0.74363 0.010474-1.4873 0.020947-2.2534 0.031738-1.8794-0.22705-1.8794-0.22705-3.8794-2.2271-0.77441-1.7773-0.77441-1.7773-1.5156-3.9375-0.2786-0.80373-0.5572-1.6075-0.84424-2.4355-0.29375-0.86689-0.58749-1.7338-0.89014-2.627-0.30792-0.89268-0.61585-1.7854-0.93311-2.7051-1.7737-5.1615-3.495-10.339-5.1965-15.525-2.1759-6.6267-4.5142-13.063-7.2766-19.473-4.686-11.497-8.4374-23.416-12.302-35.209-2.6377-8.3385-2.6377-8.3385-6.2288-16.275-0.8125-1.8125-0.8125-1.8125-0.8125-6.8125z" fill="#1F2A43"/>
<path transform="translate(1199,338)" d="m0 0v2l2.125 0.5c4.7567 2.4818 7.4325 6.8141 9.9346 11.473 1.4031 4.5164 1.2793 8.9243 1.3193 13.629 0.016994 1.0322 0.033989 2.0645 0.051498 3.128 0.053033 3.2984 0.093325 6.5968 0.1321 9.8954 0.044207 3.2771 0.091235 6.5541 0.14281 9.8311 0.031454 2.0358 0.05849 4.0716 0.080231 6.1075 0.093257 6.5262 0.55708 12.942 1.2145 19.436h-16l-1-6c-0.41121 0.44988-0.82242 0.89977-1.2461 1.3633-5.8238 5.4347-13.277 6.022-20.879 6.0742-0.7516 0.0099097-1.5032 0.019819-2.2776 0.030029-8.6114-0.13103-14.645-2.854-20.902-8.7058-5.227-5.4317-6.0472-11.233-5.9062-18.621 0.71886-7.2951 3.6428-13.347 9.2109-18.141 2.5713-1.6134 5.1915-2.8582 8-4 1.0422-0.53754 1.0422-0.53754 2.1055-1.0859 4.3617-1.3774 8.5982-1.2425 13.145-1.2266 0.90363-0.016113 1.8073-0.032227 2.7383-0.048828 6.1934-0.0044557 11.274 1.0342 17.012 3.3613-0.5-5-1.6376-8.5834-4-13v-2c-8.4129-2.7833-15.201-4.3993-23.375-0.3125-2.902 2.5565-4.034 4.8276-5.625 8.3125-3.3925 2.2617-4.652 2.2452-8.625 2.1875-0.98227-0.0064453-1.9645-0.012891-2.9766-0.019531-2.3984-0.16797-2.3984-0.16797-3.3984-1.168-0.78451-6.2761 0.36004-9.7455 4.1055-14.824 12.557-14.421 27.953-14.209 44.895-8.1758zm-36 45c-2.3071 3.8621-2.1504 6.5067-1.5469 10.875 0.76763 2.9828 2.0561 4.3668 4.5469 6.125 3.4299 1.1433 6.1986 1.2038 9.8125 1.25 1.804 0.038672 1.804 0.038672 3.6445 0.078125 6.0207-0.55759 10.149-3.3055 14.219-7.5781 2.8457-3.7607 4.3242-8.0219 4.3242-12.75-6.0239-2.5974-10.963-3.521-17.5-3.5-1.2046-0.042539-1.2046-0.042539-2.4336-0.085938-6.0321-0.019553-10.548 1.4729-15.066 5.5859z" fill="#1F2A43"/>
<path transform="translate(1720.8 339.47)" d="m0 0c8.918 5.7243 14.167 13.351 16.691 23.594 0.33208 1.926 0.33208 1.926 1.5078 2.9336 1.0461 19.152 1.0461 19.152-3 27-0.41379 0.82758-0.82758 1.6552-1.2539 2.5078-4.7441 8.6609-11.403 15.024-20.746 18.492-4.8604 1.3402-9.8076 1.2205-14.812 1.25-0.86432 0.020625-1.7286 0.04125-2.6191 0.0625-5.911 0.035689-10.154-0.93582-15.568-3.3125l-3-1.1875-2-0.8125v-2c-0.5891-0.26039-1.1782-0.52078-1.7852-0.78906-6.8309-3.7347-10.575-10.899-13.277-17.922-3.3677-11.815-2.1067-22.961 2.0625-34.289h2l0.6875-2.6875c2.1668-5.4685 6.5824-8.9517 11.312-12.312h3v-2c14.644-4.7885 26.647-5.9694 40.801 1.4727zm-39.586 16.125c-1.4331 1.3451-1.4331 1.3451-1.2148 3.4023h-2c-0.67736 2.0381-1.3414 4.0807-2 6.125-0.37125 1.137-0.7425 2.2739-1.125 3.4453-2.0786 8.1473 0.48723 14.705 3.125 22.43h2l0.75 1.875c1.4563 2.4757 2.6281 3.0763 5.25 4.125v2c4.6247 1.7914 8.5493 2.2974 13.5 2.3125 1.9027 0.025137 1.9027 0.025137 3.8438 0.050781 6.5136-0.64719 10.403-3.5505 14.656-8.3633 5.7666-7.9085 6.9335-14.305 6-24-1.4137-5.2229-3.4407-9.8802-7-14h-2v-2c-11.854-6.9337-23.41-6.6483-33.785 2.5977z" fill="#1F2A43"/>
<path transform="translate(1417.4 340.02)" d="m0 0c0.85207 0.65484 1.7041 1.3097 2.582 1.9844v2l1.75 0.6875c5.7429 3.35 10.039 11.15 11.875 17.461 1.6974 12.907 2.1767 26.897-5.7305 37.738-6.1148 7.2814-13.41 13.125-22.895 15.113-3.2681 0.21788-6.5378 0.18513-9.8125 0.1875-1.3158 0.018369-1.3158 0.018369-2.6582 0.037109-7.4686 0.016758-13.434-1.2502-19.904-5.1621-0.85336-0.50402-1.7067-1.008-2.5859-1.5273-2.0391-1.5352-2.0391-1.5352-3.0391-4.5352-0.99-0.33-1.98-0.66-3-1-1.5352-1.7852-1.5352-1.7852-3.0625-4.0625-0.7599-1.1002-0.7599-1.1002-1.5352-2.2227-3.6321-7.0316-3.7153-14.034-3.6523-21.777-0.0077344-0.95455-0.015469-1.9091-0.023438-2.8926 0.025495-9.2357 2.024-15.444 7.2734-23.045l1.75-2.625c13.683-14.444 35.823-16.293 52.668-6.3594zm-38.418 12.984v2c-0.99 0.33-1.98 0.66-3 1-6.1708 7.3528-6.068 16.874-5.2822 25.947 0.94125 6.8461 4.0702 11.411 9.4072 15.615 4.722 3.2429 8.4927 3.5968 14.188 3.625 1.2955 0.01418 2.591 0.028359 3.9258 0.042969 3.628-0.22227 6.395-0.90988 9.7617-2.2305v-2c0.60586-0.087656 1.2117-0.17531 1.8359-0.26562 2.7702-0.94008 3.3338-1.9869 4.7891-4.4844 0.40477-0.67547 0.80953-1.3509 1.2266-2.0469 4.1888-8.0356 4.7741-17.521 2.2734-26.262-2.9278-6.3276-6.9827-11.04-13.363-13.969-9.477-3.4563-17.023-1.5202-25.762 3.0273z" fill="#1F2A43"/>
<path transform="translate(1122.5 339.54)" d="m0 0c4.4288 3.6041 8.0177 7.8666 9.5352 13.457v7h-14l-3-6c-4.9888-4.6147-10.438-5.1173-17-5-3.3482 0.75241-3.3482 0.75241-6 2-1.3291 0.34977-2.6608 0.69096-4 1l-0.125 3.8125c-0.023203 0.7077-0.046406 1.4154-0.070312 2.1445 0.062768 2.3566 0.062768 2.3566 2.1953 5.043 5.1451 2.7962 10.123 3.5993 15.875 4.4766 8.6329 1.446 18.145 3.4354 24.438 9.8984 0.55688 0.86625 1.1138 1.7325 1.6875 2.625 0.5775 0.88688 1.155 1.7738 1.75 2.6875 2.0894 5.5368 2.2417 10.495 0.26562 16.109-3.4727 7.417-3.4727 7.417-8.0156 9.2031v2c-1.2474 0.65093-2.498 1.2955-3.75 1.9375-0.69609 0.35965-1.3922 0.7193-2.1094 1.0898-8.6398 3.9257-21.415 3.1976-30.5 1.2539-2.392-0.92116-4.4666-1.929-6.6406-3.2812-0.70641-0.43184-1.4128-0.86367-2.1406-1.3086-1.9844-1.3164-1.9844-1.3164-4.8594-3.6914v-2h-2c-2.8185-5.5489-4.5327-9.7413-4-16h2v-2c1.7916-0.026964 3.5833-0.046379 5.375-0.0625 0.99773-0.011602 1.9955-0.023203 3.0234-0.035156 2.6016 0.097656 2.6016 0.097656 4.6016 1.0977 0.71094 1.707 0.71094 1.707 1.375 3.8125 1.2754 3.5761 2.5276 5.841 5.625 8.1875 3.8563 1.3931 7.8929 1.1471 11.938 1.125 1.0548 0.0058008 1.0548 0.0058008 2.1309 0.011719 3.7698-0.0070661 7.2676-0.23325 10.932-1.1367 1.3089-6.3941 1.3089-6.3941-0.3125-12.438-5.9977-3.487-12.442-4.5832-19.25-5.5-5.7312-0.81006-10.351-2.3434-15.438-5.0625l-2.8125-1.375c-4.1486-3.0818-5.8339-5.6341-6.7266-10.66-0.76292-7.7268-0.78934-13.572 3.7266-20.152 12.008-12.008 32.078-13.158 46.277-4.2695z" fill="#1F2A43"/>
<path transform="translate(974.12 11.625)" d="m0 0c6.4772 5.3507 11.428 11.73 12.246 20.23 0.27518 9.6826-0.21471 17.4-6.9805 24.938-6.6969 6.2207-13.68 8.938-22.766 8.7695-0.83563-0.010957-1.6713-0.021914-2.5322-0.033203-8.8564-0.31051-14.77-2.8241-20.968-9.2168-5.3765-6.7874-7.8594-13.902-7.5156-22.57 0.9464-6.6437 3.6059-12.957 8.3906-17.742h2v-2c11.677-9.247 25.29-9.0493 38.125-2.375z" fill="#0075FF"/>
<path transform="translate(1805,338)" d="m0 0c5.5697 3.5551 8.9689 8.7505 11 15 0.75852 3.9203 1.126 7.6324 1.1294 11.622 0.0031522 1.0774 0.0063043 2.1549 0.009552 3.265-0.0030363 1.7206-0.0030363 1.7206-0.006134 3.476 9.5673e-4 1.1877 0.0019134 2.3755 0.0028992 3.5992 6.7897e-4 2.5022-0.0011555 5.0044-0.0053406 7.5065-0.0053759 3.847-3.326e-5 7.6938 0.0063477 11.541-6.6037e-4 2.4303-0.0019407 4.8607-0.0039062 7.291 0.0020242 1.1572 0.0040485 2.3144 0.006134 3.5067-0.0047282 1.5925-0.0047282 1.5925-0.009552 3.2172-7.9559e-4 0.93899-0.0015912 1.878-0.0024109 2.8454-0.12698 2.1299-0.12698 2.1299-1.127 3.1299-2.3531 0.072717-4.7083 0.083709-7.0625 0.0625-1.9355-0.013535-1.9355-0.013535-3.9102-0.027344-0.99902-0.011602-1.998-0.023203-3.0273-0.035156-0.0054684-1.0102-0.0054684-1.0102-0.011047-2.0409-0.041886-7.0247-0.11128-14.049-0.19647-21.073-0.028185-2.6197-0.049412-5.2395-0.063477-7.8594-0.021463-3.771-0.068134-7.541-0.11963-11.312-0.0012286-1.1669-0.0024573-2.3339-0.0037231-3.5361-0.11787-6.5789-0.5789-10.876-4.6057-16.179-4.1766-2.7844-8.0466-2.9302-13-3-5.2875 1.1185-10.048 3.3981-13.357 7.8092-3.7461 6.2299-4.3658 11.315-4.3149 18.499-0.01275 1.0479-0.025499 2.0959-0.038635 3.1756-0.036088 3.3181-0.039008 6.6351-0.03949 9.9534-0.021615 3.3429-0.050026 6.6856-0.082336 10.028-0.017767 2.0733-0.028046 4.1467-0.030151 6.2201-0.0038068 0.9318-0.0076135 1.8636-0.011536 2.8236-4.6325e-4 0.82113-9.2651e-4 1.6423-0.0014038 2.4883-0.12457 2.0022-0.12457 2.0022-1.1246 4.0022h-14v-77c2.6018-1.3009 4.5969-1.1684 7.5-1.1875 0.97969-0.01418 1.9594-0.028359 2.9688-0.042969 2.5312 0.23047 2.5312 0.23047 4.5312 2.2305 0.625 2.125 0.625 2.125 1 4l1.75-1.75c11.553-7.9983 23.864-8.0623 36.25-2.25z" fill="#1F2A43"/>
<path transform="translate(1484.7 335.9)" d="m0 0c1.6532 0.017402 1.6532 0.017402 3.3398 0.035156 1.6571 0.013535 1.6571 0.013535 3.3477 0.027344 0.85465 0.011602 1.7093 0.023203 2.5898 0.035156 0.0036456 0.63147 0.0072913 1.2629 0.011047 1.9136 0.041979 6.6033 0.11143 13.206 0.19647 19.809 0.028135 2.4605 0.049387 4.9212 0.063477 7.3818 0.021532 3.5477 0.068238 7.0944 0.11963 10.642 0.0012286 1.091 0.0024573 2.182 0.0037231 3.306 0.12691 6.696 1.0174 12.187 4.6057 17.948 3.6762 3.2106 6.7147 3.3618 11.5 3.25 1.6552-0.023203 1.6552-0.023203 3.3438-0.046875 2.8164-0.18125 5.4113-0.5681 8.1562-1.2031v-2l4-4c3.3062-4.7757 4.0948-9.0591 4.2053-14.79 0.019945-0.92058 0.03989-1.8412 0.06044-2.7896 0.025069-1.4706 0.025069-1.4706 0.050644-2.9709 0.020781-1.0139 0.041562-2.0279 0.062973-3.0726 0.065232-3.2297 0.12426-6.4594 0.18312-9.6892 0.04321-2.1934 0.086825-4.3867 0.13086-6.5801 0.10691-5.3691 0.20872-10.738 0.30664-16.107 4.1846-2.0923 9.3214-1 14-1v78h-13l-2-6c-0.60328 0.42152-1.2066 0.84305-1.8281 1.2773-1.1988 0.82178-1.1988 0.82178-2.4219 1.6602-0.78891 0.54527-1.5778 1.0905-2.3906 1.6523-4.8093 2.8745-9.7198 2.6247-15.172 2.6602-0.78182 0.020625-1.5636 0.04125-2.3691 0.0625-7.9271 0.05298-13.411-2.368-19.311-7.6992-4.7183-5.0483-5.6321-10.848-5.6372-17.468-0.0031522-1.1777-0.0063043-2.3554-0.009552-3.5688 0.0020242-1.2668 0.0040485-2.5335 0.006134-3.8387-9.5673e-4 -1.3015-0.0019134-2.6031-0.0028992-3.944-0.001472-2.7495 6.6247e-4 -5.499 0.0053406-8.2486 0.0057139-3.531 0.0024047-7.0619-0.0035725-10.593-0.004471-3.3632-0.0013466-6.7263 0.0011311-10.09-0.0020242-1.2728-0.0040485-2.5457-0.006134-3.8571 0.0031522-1.1682 0.0063043-2.3365 0.009552-3.5401 7.9559e-4 -1.0338 0.0015912-2.0677 0.0024109-3.1329 0.18395-3.38 0.43339-3.3083 3.8496-3.4309z" fill="#1F2A43"/>
<path transform="translate(1578.2 313.9)" d="m0 0c3.6133 0.032552 7.2266 0.065104 10.84 0.097656v22c1.7931-0.011602 3.5862-0.023203 5.4336-0.035156 2.3346-0.009376 4.6693-0.018476 7.0039-0.027344 1.184-0.0083789 2.368-0.016758 3.5879-0.025391 1.1247-0.0032226 2.2494-0.0064453 3.4082-0.0097656 1.0421-0.0052368 2.0843-0.010474 3.158-0.015869 2.4084 0.11353 2.4084 0.11353 3.4084 1.1135v12h-26c0.096988 6.4599 0.19975 12.919 0.31738 19.379 0.038255 2.1969 0.073114 4.3938 0.10449 6.5908 0.045727 3.1601 0.10371 6.3198 0.16406 9.4797 0.011551 0.98039 0.023102 1.9608 0.035004 2.9709 0.13832 6.5078 0.13832 6.5078 2.3791 12.58 2.8751 0.027123 5.7499 0.046899 8.625 0.0625 0.80824 0.0083789 1.6165 0.016758 2.4492 0.025391 4.4465 0.018075 8.5332-0.31884 12.926-1.0879 1.8075 1.8075 1.173 4.5045 1.1875 6.9375 0.01418 1.0815 0.028359 2.163 0.042969 3.2773-0.23047 2.7852-0.23047 2.7852-2.2305 4.7852-4.7847 1.4401-9.8573 1.2578-14.812 1.3125-1.2965 0.043506-1.2965 0.043506-2.6191 0.087891-5.8375 0.057274-10.869-0.68566-15.568-4.4004-1.218-2.1394-1.218-2.1394-2-4h-2l-1-6h-2c-1.0213-5.8767-1.1301-11.571-1.0977-17.527 0.001415-0.98892 0.0028299-1.9778 0.0042877-2.9967 0.0055676-3.1378 0.018114-6.2756 0.030869-9.4134 0.0050192-2.1361 0.0095814-4.2721 0.013672-6.4082 0.010986-5.2181 0.028228-10.436 0.048828-15.654h-14c-0.097656-9.2773-0.097656-9.2773 0-12 1-1 1-1 3.9414-1.0977 1.195 0.011602 2.3899 0.023203 3.6211 0.035156 1.7963 0.013535 1.7963 0.013535 3.6289 0.027344 0.92684 0.011602 1.8537 0.023203 2.8086 0.035156-0.0052368-0.63092-0.010474-1.2618-0.015869-1.9119-0.020709-2.8419-0.033772-5.6837-0.046631-8.5256-0.0083789-0.99322-0.016758-1.9864-0.025391-3.0098-0.0032226-0.94424-0.0064453-1.8885-0.0097656-2.8613-0.0052368-0.87455-0.010474-1.7491-0.015869-2.6501 0.18847-3.3888 0.79852-3.0315 4.2737-3.1389z" fill="#1F2A43"/>
<path transform="translate(1449,307)" d="m0 0h14v107h-14v-107z" fill="#1F2A43"/>
<path transform="translate(1046.7 335.87)" d="m0 0c1.0841 0.0025781 2.1682 0.0051562 3.2852 0.0078125 1.6223-0.0038672 1.6223-0.0038672 3.2773-0.0078125 2.7852 0.13281 2.7852 0.13281 4.7852 1.1328 0.023124 9.8919 0.040916 19.784 0.051812 29.676 0.0052286 4.5927 0.012326 9.1854 0.023627 13.778 0.01083 4.4285 0.016838 8.8569 0.019438 13.285 0.0018541 1.6934 0.0054745 3.3867 0.010853 5.0801 0.0072113 2.3635 0.0082608 4.727 0.0077953 7.0905 0.0035953 0.70706 0.0071906 1.4141 0.010895 2.1426-0.010368 4.8334-0.010368 4.8334-1.1244 5.9475-2.1864 0.072589-4.375 0.083738-6.5625 0.0625-1.1975-0.0090234-2.3951-0.018047-3.6289-0.027344-1.3903-0.017402-1.3903-0.017402-2.8086-0.035156-1.466-2.9321-1.1388-5.8825-1.1294-9.0959-0.0017523-0.7302-0.0035046-1.4604-0.0053101-2.2127-0.0044098-2.4193-0.0014839-4.8385 0.0018921-7.2577-6.7322e-4 -1.6763-0.0016434-3.3525-0.0028992-5.0288-0.0014757-3.5147 6.7385e-4 -7.0295 0.0053406-10.544 0.0057016-4.5153 0.0024148-9.0305-0.0035725-13.546-0.0036052-3.4614-0.0024673-6.9228 1.2779e-4 -10.384 6.6915e-4 -1.6655-1.5871e-4 -3.3309-0.0024796-4.9964-0.0025264-2.3226 0.0013137-4.6451 0.0069008-6.9677-0.0020242-0.69457-0.0040485-1.3891-0.006134-2.1048 0.026007-5.8062 0.026007-5.8062 3.7879-5.9946z" fill="#1F2A43"/>
<path transform="translate(1638.9 335.75)" d="m0 0c1.0815-0.025781 2.163-0.051562 3.2773-0.078125 0.9191 0.10828 1.8382 0.21656 2.7852 0.32812 2.4723 3.7085 2.2533 5.5817 2.2588 10.01 0.0035046 0.70924 0.0070093 1.4185 0.01062 2.1492 0.0088022 2.3442 0.0029742 4.688-0.0037842 7.0322 0.0013469 1.6276 0.0032877 3.2552 0.0057983 4.8828 0.0029491 3.4104-0.00134 6.8208-0.010681 10.231-0.011404 4.3773-0.0048281 8.7544 0.0071449 13.132 0.0072167 3.3602 0.0049317 6.7204-2.5559e-4 10.081-0.0013366 1.6144 3.1143e-4 3.2288 0.0049591 4.8432 0.0050632 2.253-0.0026413 4.5055-0.013802 6.7585-0.0023868 1.925-0.0023868 1.925-0.0048218 3.8889-0.25397 2.9917-0.25397 2.9917-2.254 4.9917-3.0391 0.19531-3.0391 0.19531-6.625 0.125-1.1885-0.018047-2.377-0.036094-3.6016-0.054688-0.91523-0.023203-1.8305-0.046406-2.7734-0.070312-0.023124-10.022-0.040915-20.045-0.051812-30.067-0.0052287-4.6533-0.012326-9.3065-0.023627-13.96-0.010829-4.4868-0.016838-8.9737-0.019438-13.46-0.0018542-1.7157-0.0054746-3.4314-0.010853-5.1471-0.0072112-2.3947-0.0082608-4.7893-0.0077953-7.1839-0.0035953-0.71641-0.0071906-1.4328-0.010895-2.1709 0.013437-6.3464 0.86463-6.1725 7.0619-6.2609z" fill="#1F2943"/>
<path transform="translate(1041,307)" d="m0 0h18v18l-8.4375 0.0625c-0.87842 0.009104-1.7568 0.018208-2.6619 0.027588-1.9671 0.007143-3.9342-0.039769-5.9006-0.090088-1-1-1-1-1.0977-4.8164 0.0057449-1.5821 0.01876-3.1641 0.035156-4.7461l0.0625-8.4375z" fill="#1F2A43"/>
<path transform="translate(1630,307)" d="m0 0h18l0.0625 8.4375c0.009104 0.87842 0.018208 1.7568 0.027588 2.6619 0.007143 1.9671-0.039769 3.9342-0.090088 5.9006-1.8212 1.8212-4.3067 1.1324-6.7266 1.1367-0.75023-0.0038672-1.5005-0.0077344-2.2734-0.011719-1.1254 0.0058008-1.1254 0.0058008-2.2734 0.011719-5.6-0.010108-5.6-0.010108-6.7266-1.1367-0.073303-2.8647-0.092178-5.6989-0.0625-8.5625l0.0625-8.4375z" fill="#1F2A43"/>
</svg>
