<svg width="22" height="22" viewBox="0 0 22 22" fill="none" xmlns="http://www.w3.org/2000/svg">
<g clip-path="url(#clip0_11830_19358)">
<path d="M2.44444 2C1.09618 2 0 3.15313 0 4.57143V5.85714H22V4.57143C22 3.15313 20.9038 2 19.5556 2H2.44444ZM22 9.71429H0V17.4286C0 18.8469 1.09618 20 2.44444 20H19.5556C20.9038 20 22 18.8469 22 17.4286V9.71429ZM4.27778 14.8571H6.72222C7.05833 14.8571 7.33333 15.1464 7.33333 15.5C7.33333 15.8536 7.05833 16.1429 6.72222 16.1429H4.27778C3.94167 16.1429 3.66667 15.8536 3.66667 15.5C3.66667 15.1464 3.94167 14.8571 4.27778 14.8571ZM8.55556 15.5C8.55556 15.1464 8.83056 14.8571 9.16667 14.8571H14.0556C14.3917 14.8571 14.6667 15.1464 14.6667 15.5C14.6667 15.8536 14.3917 16.1429 14.0556 16.1429H9.16667C8.83056 16.1429 8.55556 15.8536 8.55556 15.5Z" fill="#F5722E"/>
</g>
<defs>
<clipPath id="clip0_11830_19358">
<rect width="22" height="22" fill="white"/>
</clipPath>
</defs>
</svg>
