<svg width="120" height="120" viewBox="0 0 120 120" fill="none" xmlns="http://www.w3.org/2000/svg">
<g id="Frame" clip-path="url(#clip0_11177_131482)">
<g id="Group">
<path id="Vector" fill-rule="evenodd" clip-rule="evenodd" d="M59.6827 1.93555C61.3478 1.93555 62.9965 2.00603 64.6259 2.14417C62.9481 4.26661 61.9472 6.94709 61.9472 9.86135C61.9472 14.2805 64.2487 18.1622 67.7184 20.3725C66.9129 22.7603 66.4762 25.3179 66.4762 27.9775C66.4762 41.1094 77.1217 51.7549 90.2536 51.7549C93.1511 51.7549 95.9275 51.2367 98.4944 50.2874C100.772 53.2455 104.348 55.1517 108.37 55.1517C111.666 55.1517 114.663 53.8713 116.891 51.7809C117.245 54.3637 117.428 57.0009 117.428 59.6807C117.428 91.5725 91.5744 117.426 59.6827 117.426C27.7909 117.426 1.9375 91.5725 1.9375 59.6807C1.9375 27.7889 27.7909 1.93555 59.6827 1.93555Z" fill="#FCBA7F" stroke="#1C1F2A" stroke-width="3.51" stroke-linejoin="round"/>
<path id="Vector_2" d="M95.3524 14.3904C98.7917 14.3904 101.58 11.6023 101.58 8.16297C101.58 4.72366 98.7917 1.93555 95.3524 1.93555C91.9131 1.93555 89.125 4.72366 89.125 8.16297C89.125 11.6023 91.9131 14.3904 95.3524 14.3904Z" fill="#B77748" stroke="#302D31" stroke-width="2.34"/>
<path id="Vector_3" d="M89.6889 32.5067C92.5029 32.5067 94.7841 30.2255 94.7841 27.4116C94.7841 24.5976 92.5029 22.3164 89.6889 22.3164C86.8749 22.3164 84.5938 24.5976 84.5938 27.4116C84.5938 30.2255 86.8749 32.5067 89.6889 32.5067Z" fill="#B77748" stroke="#302D31" stroke-width="2.34"/>
<path id="Vector_4" d="M112.896 39.3003C115.398 39.3003 117.425 37.2725 117.425 34.7712C117.425 32.2699 115.398 30.2422 112.896 30.2422C110.395 30.2422 108.367 32.2699 108.367 34.7712C108.367 37.2725 110.395 39.3003 112.896 39.3003Z" fill="#B77748" stroke="#302D31" stroke-width="2.34"/>
<path id="Vector_5" d="M29.1128 63.0771C34.1154 63.0771 38.1708 59.0216 38.1708 54.019C38.1708 49.0164 34.1154 44.9609 29.1128 44.9609C24.1101 44.9609 20.0547 49.0164 20.0547 54.019C20.0547 59.0216 24.1101 63.0771 29.1128 63.0771Z" fill="#B77748" stroke="#302D31" stroke-width="2.34"/>
<path id="Vector_6" d="M72.1367 91.3838C76.5141 91.3838 80.0626 87.8353 80.0626 83.458C80.0626 79.0807 76.5141 75.5322 72.1367 75.5322C67.7594 75.5322 64.2109 79.0807 64.2109 83.458C64.2109 87.8353 67.7594 91.3838 72.1367 91.3838Z" fill="#B77748" stroke="#302D31" stroke-width="2.34"/>
<path id="Vector_7" d="M35.9035 86.8548C39.0301 86.8548 41.5648 84.3202 41.5648 81.1935C41.5648 78.0669 39.0301 75.5322 35.9035 75.5322C32.7768 75.5322 30.2422 78.0669 30.2422 81.1935C30.2422 84.3202 32.7768 86.8548 35.9035 86.8548Z" fill="#B77748" stroke="#302D31" stroke-width="2.34"/>
<path id="Vector_8" d="M56.2827 66.4745C59.0966 66.4745 61.3778 64.1933 61.3778 61.3793C61.3778 58.5654 59.0966 56.2842 56.2827 56.2842C53.4687 56.2842 51.1875 58.5654 51.1875 61.3793C51.1875 64.1933 53.4687 66.4745 56.2827 66.4745Z" fill="#B77748" stroke="#302D31" stroke-width="2.34"/>
<path id="Vector_9" d="M47.7905 40.4325C50.6045 40.4325 52.8856 38.1513 52.8856 35.3373C52.8856 32.5234 50.6045 30.2422 47.7905 30.2422C44.9765 30.2422 42.6953 32.5234 42.6953 35.3373C42.6953 38.1513 44.9765 40.4325 47.7905 40.4325Z" fill="#B77748" stroke="#302D31" stroke-width="2.34"/>
<path id="Vector_10" d="M100.662 86.4357C102.565 83.5666 104.157 80.4737 105.391 77.2051M106.709 73.1546C107.343 70.8502 107.804 68.474 108.077 66.041L106.709 73.1546ZM61.9453 107.235C75.8924 107.235 88.4029 101.085 96.9126 91.3481L61.9453 107.235Z" stroke="#1D1F29" stroke-width="2.34" stroke-linecap="round"/>
</g>
</g>
<defs>
<clipPath id="clip0_11177_131482">
<rect width="120" height="120" fill="white"/>
</clipPath>
</defs>
</svg>
