<svg width="52" height="52" viewBox="0 0 52 52" fill="none" xmlns="http://www.w3.org/2000/svg">
<path id="Vector" d="M32.9214 32.0644C32.997 32.3452 33.0215 32.6258 33.0207 32.8808C33.0917 34.5385 32.3464 36.3211 31.1443 37.4136C30.5817 37.8963 29.662 38.4032 28.9474 38.6049C26.7008 39.388 24.4605 38.2586 23.1388 36.9538C25.5376 36.4007 26.9458 34.6713 27.4107 32.8623C27.7218 31.3078 27.0886 30.0052 26.8387 28.4744C26.5885 26.9946 26.6436 25.7452 27.1836 24.3955C27.5636 25.1363 27.9691 25.9026 28.4517 26.4907C29.9751 28.4847 32.3948 29.3597 32.9214 32.0644ZM51.6566 26.567C51.6104 40.5919 40.0978 52.0291 26.0728 51.983C12.0479 51.9369 0.610716 40.4242 0.656848 26.3993C0.702979 12.3744 12.2157 0.937158 26.2406 0.983289C40.2655 1.02942 51.7027 12.5421 51.6566 26.567ZM39.3099 27.9544L39.0566 27.4436C38.6516 26.5242 37.5093 24.9395 37.5093 24.9395C37.0523 24.3515 36.493 23.8141 35.9847 23.3025C34.6372 22.0995 33.1354 21.2531 31.8391 19.9993C28.8651 17.0825 28.2178 12.3119 30.1424 8.64616C28.2284 9.09887 26.5676 10.1134 25.1358 11.2562C19.9457 15.3702 17.8818 22.6309 20.3093 28.8864C20.3851 29.0907 20.4609 29.2949 20.4601 29.5499C20.4587 29.9834 20.1514 30.3649 19.7683 30.5422C19.2832 30.7191 18.8246 30.6156 18.4942 30.283C18.316 30.1804 18.2398 30.0781 18.1638 29.9504C15.9546 27.1126 15.56 23.0313 17.0751 19.7977C13.7258 22.4897 11.9003 27.0483 12.1157 31.333C12.2654 32.328 12.3641 33.3228 12.7179 34.3185C12.9944 35.5179 13.5262 36.6417 14.1345 37.7657C16.2653 41.1897 20.0056 43.6755 24.033 44.1733C28.3152 44.7229 32.9077 43.973 36.2068 41.0513C39.8897 37.7484 41.1821 32.4741 39.3099 27.9544Z" fill="#F5722E"/>
</svg>
