<svg width="8" height="11" viewBox="0 0 8 11" fill="none" xmlns="http://www.w3.org/2000/svg">
<path id="Vector" d="M4 8.38095C4.26522 8.38095 4.51957 8.27058 4.70711 8.07411C4.89464 7.87765 5 7.61118 5 7.33333C5 6.7519 4.55 6.28571 4 6.28571C3.73478 6.28571 3.48043 6.39609 3.29289 6.59256C3.10536 6.78902 3 7.05549 3 7.33333C3 7.61118 3.10536 7.87765 3.29289 8.07411C3.48043 8.27058 3.73478 8.38095 4 8.38095ZM7 3.66667C7.26522 3.66667 7.51957 3.77704 7.70711 3.97351C7.89464 4.16997 8 4.43644 8 4.71429V9.95238C8 10.2302 7.89464 10.4967 7.70711 10.6932C7.51957 10.8896 7.26522 11 7 11H1C0.734784 11 0.48043 10.8896 0.292893 10.6932C0.105357 10.4967 0 10.2302 0 9.95238V4.71429C0 4.13286 0.45 3.66667 1 3.66667H1.5V2.61905C1.5 1.92443 1.76339 1.25827 2.23223 0.767101C2.70107 0.275935 3.33696 0 4 0C4.3283 0 4.65339 0.0677437 4.95671 0.199363C5.26002 0.330983 5.53562 0.5239 5.76777 0.767101C5.99991 1.0103 6.18406 1.29902 6.3097 1.61678C6.43534 1.93454 6.5 2.27511 6.5 2.61905V3.66667H7ZM4 1.04762C3.60218 1.04762 3.22064 1.21318 2.93934 1.50788C2.65804 1.80258 2.5 2.20228 2.5 2.61905V3.66667H5.5V2.61905C5.5 2.20228 5.34196 1.80258 5.06066 1.50788C4.77936 1.21318 4.39782 1.04762 4 1.04762Z" fill="#4BAF66"/>
</svg>
