<svg width="56" height="73" viewBox="0 0 56 73" fill="none" xmlns="http://www.w3.org/2000/svg">
<path d="M15.5094 64.7791C15.5109 65.6759 15.8016 66.5542 16.3469 67.3013L19.0172 70.964C19.4734 71.5902 20.0921 72.1037 20.8183 72.4589C21.5445 72.8141 22.3557 73 23.1797 73H32.8219C33.6459 73 34.457 72.8141 35.1833 72.4589C35.9095 72.1037 36.5282 71.5902 36.9844 70.964L39.6547 67.3013C40.1998 66.5541 40.4911 65.6767 40.4922 64.7791L40.4984 59.3114H15.5016L15.5094 64.7791ZM0.5 25.0933C0.5 31.4194 3.07031 37.1908 7.30625 41.6007C9.8875 44.2882 13.925 49.9028 15.4641 54.6392C15.4703 54.6762 15.475 54.7133 15.4812 54.7504H40.5187C40.525 54.7133 40.5297 54.6777 40.5359 54.6392C42.075 49.9028 46.1125 44.2882 48.6937 41.6007C52.9297 37.1908 55.5 31.4194 55.5 25.0933C55.5 11.208 43.1422 -0.042651 27.9141 0.000121556C11.975 0.0443198 0.5 11.8296 0.5 25.0933ZM28 13.6873C21.1078 13.6873 15.5 18.8044 15.5 25.0933C15.5 26.3537 14.3813 27.3745 13 27.3745C11.6187 27.3745 10.5 26.3537 10.5 25.0933C10.5 16.2879 18.35 9.12493 28 9.12493C29.3813 9.12493 30.5 10.1458 30.5 11.4061C30.5 12.6665 29.3813 13.6873 28 13.6873Z" fill="#F5722E"/>
</svg>
