<svg width="210" height="45" viewBox="0 0 210 45" fill="none" xmlns="http://www.w3.org/2000/svg">
<g id="powered_by_stripe (1)" clip-path="url(#clip0_6789_6933)">
<path id="Vector" fill-rule="evenodd" clip-rule="evenodd" d="M199.412 45H10.5882C4.74 45 0 40.3512 0 34.6154V10.3846C0 4.64885 4.74 0 10.5882 0H199.412C205.26 0 210 4.64885 210 10.3846V34.6154C210 40.3512 205.26 45 199.412 45ZM208.235 10.3846C208.235 5.60596 204.284 1.73077 199.412 1.73077H10.5882C5.71588 1.73077 1.76471 5.60596 1.76471 10.3846V34.6154C1.76471 39.394 5.71588 43.2692 10.5882 43.2692H199.412C204.284 43.2692 208.235 39.394 208.235 34.6154V10.3846Z" fill="white"/>
<path id="Vector_2" fill-rule="evenodd" clip-rule="evenodd" d="M107.118 31.9106H104.815L106.597 27.5941L103.05 18.8156H105.483L107.712 24.7902L109.959 18.8156H112.392L107.118 31.9106ZM98.2764 28.141C97.4788 28.141 96.66 27.8502 95.9188 27.2842V27.9229H93.5417V14.8262H95.9188V19.4352C96.66 18.8883 97.4788 18.5975 98.2764 18.5975C100.765 18.5975 102.473 20.5637 102.473 23.3692C102.473 26.1731 100.765 28.141 98.2764 28.141ZM97.7752 20.6C97.1258 20.6 96.4747 20.8735 95.9188 21.4204V25.3181C96.4747 25.8633 97.1258 26.1367 97.7752 26.1367C99.1129 26.1367 100.041 25.0083 100.041 23.3692C100.041 21.7302 99.1129 20.6 97.7752 20.6ZM83.9188 27.2842C83.1953 27.8502 82.3782 28.141 81.5611 28.141C79.0905 28.141 77.3647 26.1731 77.3647 23.3692C77.3647 20.5637 79.0905 18.5975 81.5611 18.5975C82.3782 18.5975 83.1953 18.8883 83.9188 19.4352V14.8262H86.3152V27.9229H83.9188V27.2842ZM83.9188 21.4204C83.3805 20.8735 82.7311 20.6 82.0817 20.6C80.7247 20.6 79.7964 21.7302 79.7964 23.3692C79.7964 25.0083 80.7247 26.1367 82.0817 26.1367C82.7311 26.1367 83.3805 25.8633 83.9188 25.3181V21.4204ZM69.7676 24.0062C69.9158 25.3908 71.0311 26.3375 72.5894 26.3375C73.4452 26.3375 74.3911 26.0277 75.3564 25.4808V27.4314C74.2994 27.9039 73.2405 28.141 72.1994 28.141C69.3952 28.141 67.4276 26.1367 67.4276 23.2966C67.4276 20.5464 69.3582 18.5975 72.0141 18.5975C74.4476 18.5975 76.0994 20.4737 76.0994 23.1494C76.0994 23.4056 76.0994 23.6964 76.0623 24.0062H69.7676ZM71.9223 20.3992C70.77 20.3992 69.8788 21.2387 69.7676 22.4952H73.8158C73.7417 21.256 72.9811 20.3992 71.9223 20.3992ZM63.5082 21.8392V27.9229H61.1311V18.8156H63.5082V19.726C64.177 18.9973 64.9941 18.5975 65.7917 18.5975C66.0529 18.5975 66.3123 18.6148 66.5717 18.6875V20.7644C66.3123 20.6917 66.0158 20.6554 65.737 20.6554C64.957 20.6554 64.1205 21.0742 63.5082 21.8392ZM52.9041 24.0062C53.0523 25.3908 54.1658 26.3375 55.7258 26.3375C56.5799 26.3375 57.5276 26.0277 58.4929 25.4808V27.4314C57.4341 27.9039 56.3752 28.141 55.3358 28.141C52.5317 28.141 50.5641 26.1367 50.5641 23.2966C50.5641 20.5464 52.4947 18.5975 55.1505 18.5975C57.5823 18.5975 59.2358 20.4737 59.2358 23.1494C59.2358 23.4056 59.2358 23.6964 59.1988 24.0062H52.9041ZM55.057 20.3992C53.9064 20.3992 53.0152 21.2387 52.9041 22.4952H56.9523C56.8782 21.256 56.1158 20.3992 55.057 20.3992ZM44.6011 27.9229L42.7058 21.7302L40.8299 27.9229H38.6947L35.5005 18.8156H37.8776L39.7535 25.0083L41.6294 18.8156H43.7823L45.6582 25.0083L47.5341 18.8156H49.9111L46.7364 27.9229H44.6011ZM30.0758 28.141C27.2717 28.141 25.2847 26.1558 25.2847 23.3692C25.2847 20.5637 27.2717 18.5975 30.0758 18.5975C32.8799 18.5975 34.8494 20.5637 34.8494 23.3692C34.8494 26.1558 32.8799 28.141 30.0758 28.141ZM30.0758 20.5464C28.6835 20.5464 27.7182 21.6939 27.7182 23.3692C27.7182 25.0446 28.6835 26.1921 30.0758 26.1921C31.4505 26.1921 32.4158 25.0446 32.4158 23.3692C32.4158 21.6939 31.4505 20.5464 30.0758 20.5464ZM19.6376 23.4229H17.5023V27.9229H15.1252V15.3904H19.6376C22.2388 15.3904 24.0952 17.0485 24.0952 19.4162C24.0952 21.7839 22.2388 23.4229 19.6376 23.4229ZM19.3041 17.2856H17.5023V21.5294H19.3041C20.6788 21.5294 21.6441 20.6727 21.6441 19.4162C21.6441 18.1423 20.6788 17.2856 19.3041 17.2856Z" fill="white"/>
<path id="Vector_3" fill-rule="evenodd" clip-rule="evenodd" d="M196.087 24.3182H186.277C186.501 26.6218 188.222 27.3003 190.175 27.3003C192.164 27.3003 193.731 26.8884 195.097 26.2134V30.1717C193.737 30.9124 191.938 31.4455 189.544 31.4455C184.662 31.4455 181.242 28.4478 181.242 22.5217C181.242 17.5163 184.144 13.5424 188.91 13.5424C193.67 13.5424 196.154 17.5145 196.154 22.5476C196.154 23.0236 196.11 24.0534 196.087 24.3182ZM188.878 17.5492C187.625 17.5492 186.233 18.4769 186.233 20.6905H191.414C191.414 18.4786 190.108 17.5492 188.878 17.5492ZM173.132 31.4455C171.378 31.4455 170.307 30.7203 169.587 30.2028L169.576 35.7638L164.566 36.8092L164.564 13.8695H168.976L169.237 15.0828C169.929 14.4494 171.198 13.5424 173.162 13.5424C176.681 13.5424 179.995 16.6509 179.995 22.3728C179.995 28.6174 176.716 31.4455 173.132 31.4455ZM171.964 17.8953C170.815 17.8953 170.093 18.3072 169.571 18.8697L169.601 26.1719C170.088 26.6894 170.788 27.1047 171.964 27.1047C173.817 27.1047 175.059 25.1265 175.059 22.4801C175.059 19.9099 173.797 17.8953 171.964 17.8953ZM157.322 13.8695H162.351V31.0942H157.322V13.8695ZM157.322 8.36916L162.351 7.32031V11.3236L157.322 12.3724V8.36916ZM151.959 19.4167V31.0942H146.951V13.8695H151.283L151.597 15.3217C152.771 13.2067 155.112 13.6359 155.78 13.8713V18.3886C155.142 18.1861 153.143 17.8919 151.959 19.4167ZM141.219 25.052C141.219 27.9476 144.381 27.0459 145.022 26.7949V30.7947C144.355 31.1547 143.144 31.4455 141.507 31.4455C138.533 31.4455 136.301 29.2976 136.301 26.3882L136.324 10.6226L141.215 9.60147L141.219 13.8695H145.024V18.0597H141.219V25.052ZM134.974 25.8897C134.974 29.4274 132.102 31.4455 127.936 31.4455C126.208 31.4455 124.32 31.1167 122.457 30.3309V25.6388C124.138 26.5353 126.281 27.2086 127.941 27.2086C129.058 27.2086 129.863 26.9144 129.863 26.0057C129.863 23.6605 122.247 24.5432 122.247 19.1034C122.247 15.6245 124.955 13.5424 129.02 13.5424C130.68 13.5424 132.339 13.7917 134 14.4407V19.0705C132.475 18.2622 130.539 17.8053 129.016 17.8053C127.966 17.8053 127.313 18.103 127.313 18.8697C127.313 21.0817 134.974 20.0294 134.974 25.8897Z" fill="white"/>
</g>
<defs>
<clipPath id="clip0_6789_6933">
<rect width="210" height="45" fill="white"/>
</clipPath>
</defs>
</svg>
