<svg width="39" height="43" viewBox="0 0 39 43" fill="none" xmlns="http://www.w3.org/2000/svg">
<g id="sparkle icon">
<g id="icon">
<path d="M13.2411 6.67043L13.5124 6.81179C14.6088 7.40079 15.5017 8.33141 16.0668 9.47408L16.2024 9.7568C16.745 10.8759 18.2821 10.8759 18.836 9.7568L18.9716 9.47408C19.5367 8.33141 20.4296 7.40079 21.526 6.81179L21.7973 6.67043C22.871 6.10499 22.871 4.50291 21.7973 3.92569L21.526 3.78433C20.4296 3.19533 19.5367 2.26471 18.9716 1.12205L18.836 0.839326C18.2934 -0.279775 16.7563 -0.279775 16.2024 0.839326L16.0668 1.12205C15.5017 2.26471 14.6088 3.19533 13.5124 3.78433L13.2411 3.92569C12.1674 4.49113 12.1674 6.09321 13.2411 6.67043Z" fill="#F5722E"/>
<path d="M15.3773 17.7083C16.485 17.1193 16.485 15.4819 15.3773 14.8929L13.7271 14.0094C12.2578 13.2201 11.0597 11.9714 10.3024 10.44L9.45472 8.72016C8.88958 7.56571 7.3185 7.56571 6.75337 8.72016L5.90567 10.44C5.14838 11.9714 3.9503 13.2201 2.48094 14.0094L0.830749 14.8929C-0.276916 15.4819 -0.276916 17.1193 0.830749 17.7083L2.48094 18.5918C3.9503 19.3811 5.14838 20.6297 5.90567 22.1612L6.75337 23.881C7.3185 25.0355 8.88958 25.0355 9.45472 23.881L10.3024 22.1612C11.0597 20.6297 12.2578 19.3811 13.7271 18.5918L15.3773 17.7083Z" fill="#F5722E"/>
<path d="M36.5812 24.7528L34.9084 23.8575C32.8852 22.7855 31.2689 21.101 30.2404 18.9923L29.3814 17.2489C28.6241 15.6939 27.1096 14.728 25.4367 14.728C23.7639 14.728 22.2494 15.6939 21.4921 17.2489L20.6331 18.9923C19.6046 21.101 17.9883 22.7855 15.9651 23.8575L14.2923 24.7528C12.8003 25.542 11.8735 27.1205 11.8735 28.864C11.8735 30.6074 12.8003 32.1859 14.2923 32.9752L15.9651 33.8705C17.9883 34.9425 19.6046 36.627 20.6331 38.7356L21.4921 40.4791C22.2494 42.034 23.7639 43 25.4367 43C27.1096 43 28.6241 42.034 29.3814 40.4791L30.2404 38.7356C31.2689 36.627 32.8852 34.9425 34.9084 33.8705L36.5812 32.9752C38.0732 32.1859 39 30.6074 39 28.864C39 27.1205 38.0732 25.542 36.5812 24.7528ZM35.0441 29.8299L33.3713 30.7252C30.7038 32.1388 28.5789 34.3535 27.2226 37.1335L26.3636 38.877C26.1036 39.4071 25.6289 39.466 25.4367 39.466C25.2446 39.466 24.7699 39.4071 24.5099 38.877L23.6509 37.1335C22.2946 34.3535 20.1697 32.1388 17.5022 30.7252L15.8294 29.8299C15.3208 29.559 15.2643 29.0642 15.2643 28.864C15.2643 28.6637 15.3208 28.169 15.8294 27.898L17.5022 27.0027C20.1697 25.5891 22.2946 23.3745 23.6509 20.5944L24.5099 18.851C24.7699 18.3209 25.2446 18.262 25.4367 18.262C25.6289 18.262 26.1036 18.3209 26.3636 18.851L27.2226 20.5944C28.5789 23.3745 30.7038 25.5891 33.3713 27.0027L35.0441 27.898C35.5527 28.169 35.6092 28.6637 35.6092 28.864C35.6092 29.0642 35.5527 29.559 35.0441 29.8299Z" fill="#F5722E"/>
</g>
</g>
</svg>
