<svg width="13" height="11" viewBox="0 0 13 11" fill="none" xmlns="http://www.w3.org/2000/svg">
<path d="M6.49953 0C6.8601 0 7.19274 0.184152 7.37557 0.486161L12.8603 9.52187C13.0457 9.82634 13.0457 10.202 12.8654 10.5065C12.6851 10.8109 12.3474 11 11.9843 11H1.01476C0.651649 11 0.313929 10.8109 0.133643 10.5065C-0.0466436 10.202 -0.0441044 9.82388 0.138721 9.52187L5.62349 0.486161C5.80631 0.184152 6.13896 0 6.49953 0ZM6.49953 3.14286C6.16181 3.14286 5.89011 3.40558 5.89011 3.73214V6.48214C5.89011 6.80871 6.16181 7.07143 6.49953 7.07143C6.83725 7.07143 7.10895 6.80871 7.10895 6.48214V3.73214C7.10895 3.40558 6.83725 3.14286 6.49953 3.14286ZM7.31209 8.64286C7.31209 8.43447 7.22648 8.23462 7.07409 8.08727C6.92171 7.93992 6.71503 7.85714 6.49953 7.85714C6.28402 7.85714 6.07735 7.93992 5.92496 8.08727C5.77258 8.23462 5.68697 8.43447 5.68697 8.64286C5.68697 8.85124 5.77258 9.05109 5.92496 9.19844C6.07735 9.34579 6.28402 9.42857 6.49953 9.42857C6.71503 9.42857 6.92171 9.34579 7.07409 9.19844C7.22648 9.05109 7.31209 8.85124 7.31209 8.64286Z" fill="#F5722E"/>
</svg>
