<svg width="52" height="52" viewBox="0 0 52 52" fill="none" xmlns="http://www.w3.org/2000/svg">
<path d="M33.0511 2.33594C36.8169 2.33594 40.4284 3.83188 43.0912 6.49469C45.7541 9.15749 47.25 12.769 47.25 16.5348C47.25 23.6951 41.9559 29.618 35.0795 30.5917V36.8189C35.0795 38.5228 34.3696 40.0238 32.97 41.2814V44.9325C32.97 45.4802 32.7874 45.9467 32.402 46.3727C32.0369 46.7784 31.5501 46.9609 31.0227 46.9609H28.9943C28.4061 46.9609 27.9193 46.7784 27.5136 46.3727C27.0876 45.9467 26.8848 45.4802 26.8848 44.9325V42.9041H10.8198V44.9325C10.8198 45.4802 10.6169 45.9467 10.191 46.3727C9.78528 46.7784 9.29847 46.9609 8.71023 46.9609H6.68182C6.15443 46.9609 5.66761 46.7784 5.3025 46.3727C4.9171 45.9467 4.73455 45.4802 4.73455 44.9325V41.2814C3.33494 40.0238 2.625 38.5228 2.625 36.8189V16.5348C2.625 13.3299 4.04489 11.1595 6.82381 10.0439C9.60273 8.94855 13.619 8.42116 18.8523 8.42116L21.3472 8.48202C23.9233 4.77003 28.2032 2.33594 33.0511 2.33594ZM33.0511 6.39276C30.3613 6.39276 27.7816 7.46129 25.8796 9.36329C23.9776 11.2653 22.9091 13.845 22.9091 16.5348C22.9091 19.2246 23.9776 21.8043 25.8796 23.7063C27.7816 25.6083 30.3613 26.6768 33.0511 26.6768C35.741 26.6768 38.3206 25.6083 40.2226 23.7063C42.1246 21.8043 43.1932 19.2246 43.1932 16.5348C43.1932 13.845 42.1246 11.2653 40.2226 9.36329C38.3206 7.46129 35.741 6.39276 33.0511 6.39276ZM31.0227 20.5916H35.0795V24.6484H31.0227V20.5916ZM31.0227 8.42116H35.0795V18.5632H31.0227V8.42116ZM6.68182 26.6768H23.0916C20.475 24.0805 18.8523 20.5105 18.8523 16.5348H6.68182V26.6768ZM9.72443 32.7621C8.08142 32.7621 6.68182 34.1211 6.68182 35.8047C6.68182 36.6116 7.00238 37.3855 7.57298 37.9561C8.14358 38.5267 8.91748 38.8473 9.72443 38.8473C11.4486 38.8473 12.767 37.4883 12.767 35.8047C12.767 34.9977 12.4465 34.2238 11.8759 33.6532C11.3053 33.0826 10.5314 32.7621 9.72443 32.7621ZM27.9801 32.7621C26.256 32.7621 24.9375 34.1211 24.9375 35.8047C24.9375 36.6116 25.2581 37.3855 25.8287 37.9561C26.3993 38.5267 27.1732 38.8473 27.9801 38.8473C29.6231 38.8473 31.0227 37.4883 31.0227 35.8047C31.0227 34.9977 30.7022 34.2238 30.1316 33.6532C29.561 33.0826 28.7871 32.7621 27.9801 32.7621Z" fill="#F5722E"/>
</svg>
