<svg width="52" height="52" viewBox="0 0 52 52" fill="none" xmlns="http://www.w3.org/2000/svg">
<path d="M13.25 33.694H18.35C18.35 36.499 21.8435 38.8885 26 38.8885C30.1565 38.8885 33.65 36.499 33.65 33.694C33.65 30.8371 30.998 29.7982 25.388 28.4217C19.982 27.0451 13.25 25.331 13.25 18.1107C13.25 13.4616 16.9985 9.51387 22.175 8.18929V2.52734H29.825V8.18929C35.0015 9.51387 38.75 13.4616 38.75 18.1107H33.65C33.65 15.3057 30.1565 12.9162 26 12.9162C21.8435 12.9162 18.35 15.3057 18.35 18.1107C18.35 20.9676 21.002 22.0065 26.612 23.383C32.018 24.7596 38.75 26.4737 38.75 33.694C38.75 38.343 35.0015 42.2908 29.825 43.6154V49.2773H22.175V43.6154C16.9985 42.2908 13.25 38.343 13.25 33.694Z" fill="#F5722E"/>
</svg>
