<svg width="52" height="52" viewBox="0 0 52 52" fill="none" xmlns="http://www.w3.org/2000/svg">
<path d="M20.2045 18.3411H24.0682V29.8769H20.2045V18.3411ZM27.9318 4.88281H16.3409V8.72805H27.9318V4.88281ZM35.7171 17.1683C38.0932 20.1292 39.5227 23.8783 39.5227 27.9542C39.5227 37.5097 31.7955 45.2578 22.1364 45.2578C12.5352 45.2578 4.75 37.5097 4.75 27.9542C4.75 18.3988 12.5352 10.6507 22.1364 10.6507C26.2318 10.6507 29.9989 12.0734 32.9932 14.4959L35.7364 11.7273C36.7216 12.5733 37.5909 13.4577 38.4602 14.4382L35.7171 17.1683ZM35.6591 27.9542C35.6591 20.5137 29.6125 14.4959 22.1364 14.4959C14.6602 14.4959 8.61364 20.5137 8.61364 27.9542C8.61364 35.3948 14.6602 41.4126 22.1364 41.4126C29.6125 41.4126 35.6591 35.3948 35.6591 27.9542ZM43.3864 16.4185V27.9542H47.25V16.4185H43.3864ZM43.3864 35.6447H47.25V31.7995H43.3864V35.6447Z" fill="#F5722E"/>
</svg>
